<?xml version="1.0" encoding="utf-8"?>
<!-- Generator: Adobe Illustrator 21.1.0, SVG Export Plug-In . SVG Version: 6.00 Build 0)  -->
<svg version="1.1" id="Layer_1" xmlns="http://www.w3.org/2000/svg" xmlns:xlink="http://www.w3.org/1999/xlink" x="0px" y="0px"
	 viewBox="0 0 512 512" style="enable-background:new 0 0 512 512;" xml:space="preserve">
<style type="text/css">
	.st0{fill:#B3CD72;}
	.st1{fill:#91C167;}
	.st2{fill:#4E4A58;}
	.st3{fill:#2F3329;}
	.st4{fill:#FCC57F;}
	.st5{fill:#FFD8AA;}
	.st6{fill:#FFE6C8;}
	.st7{fill:#F4DBAD;}
	.st8{fill:#9D9ECE;}
	.st9{fill:#6D73B5;}
	.st10{fill:#FFFFFF;}
	.st11{fill:#F1F1F2;}
	.st12{fill:#FFDD15;}
	.st13{fill:#8BC53F;}
	.st14{fill:#F6921E;}
</style>
<g>
	<path class="st0" d="M88.5,256c0,92.5,75,167.5,167.5,167.5v-335C163.5,88.5,88.5,163.5,88.5,256z"/>
	<path class="st1" d="M423.5,256c0-92.5-75-167.5-167.5-167.5v335C348.5,423.5,423.5,348.5,423.5,256z"/>
	<g>
		<path class="st2" d="M255.1,146.2c-42.4,0-76.8,34.4-76.8,76.8c0,0-12.7,94.7-5.5,120.2c4.3,15.1,30.7,33.2,30.7,33.2
			c0,42.4,9.1,31.5,51.6,31.5c0.3,0,0.5,0,0.8,0V146.3C255.7,146.3,255.4,146.2,255.1,146.2z"/>
		<path class="st3" d="M340.3,314.9l-8.3-91.9c0-42.1-33.9-76.3-76-76.8V408C298.1,407.3,340.3,357,340.3,314.9z"/>
		<polygon class="st4" points="280,302.1 280,292.9 230.2,292.9 230.2,326.8 		"/>
		<path class="st5" d="M230.5,279.5v46.3c0,0-5.8,7.3-7.4,12.1c-2,5.9,1,17.3,1,17.3l-10,28.3c3.2,9,31.6,17.4,41.9,17.2V279.5
			H230.5z"/>
		<path class="st4" d="M297.9,345.6l-13.6-15.4c0,0-1.2-5.1-3.3-6.8v-71.7H256v152c12.1-0.3,36.6,4.4,37.4-6.9l10.6-40L297.9,345.6z
			"/>
		<path class="st6" d="M256,321.5V198.3c-20.1,0.1-34.8,4.6-45,11.9C168,241,205.5,321.3,256,321.5z"/>
		<path class="st7" d="M256.2,198.3c-0.1,0-0.1,0-0.2,0v123.2c0.1,0,0.1,0,0.2,0C318.8,321.5,361.5,198.3,256.2,198.3z"/>
		<path class="st7" d="M323.9,237.5c3.8,0.9,5.4,8.7,3.4,17.6c-2,8.9-6.7,15.4-10.5,14.5c-3.9-0.8-5.3-8.7-3.4-17.6
			C315.3,243.1,320,236.6,323.9,237.5"/>
		<path class="st6" d="M186.6,235.6c-3.8,0.9-5.3,8.8-3.3,17.6c2,8.9,6.7,15.4,10.5,14.5c3.8-0.8,5.4-8.7,3.4-17.6
			C195.1,241.3,190.4,234.8,186.6,235.6"/>
		<path class="st8" d="M227.4,337c0-5.3,0.6-6.8,3.1-11.1l-16.3,18.5c-6.6,3.2-13.9,7.3-22.2,12.7c-9.7,6.3-21,25.2-27.1,39.5
			c24.8,17.5,60.8,27.7,91.2,26.8v-32.9c-7.3-0.1-20.7-3.3-25.7-13.4C224.3,365.3,227.4,345.6,227.4,337z"/>
		<path class="st9" d="M318.4,357.1c-7.6-4.7-14.3-8.5-20.5-11.5l-7.3-10.2l-9.6-11.9c1.6,3.6,4.2,9.4,4.2,13.6
			c0,16.1-12.9,53.6-28.9,53.6c-0.1,0-0.2,0-0.3,0v32.9c0.1,0,0.2,0,0.3,0c32.7,0,65-9.6,89.6-26.1
			C339.8,382.5,328.6,363.4,318.4,357.1z"/>
		<path class="st3" d="M276,187.9c0,0,25.7,59.6,49.9,38c24.2-21.6-34-43.7-34-43.7l-15.9,4.3"/>
		<path class="st8" d="M230.4,325.9l-16.3,18.5c-6.6,3.2-13.9,7.3-22.2,12.7c-3.8,2.5-7.9,6.9-11.8,12.3l16.9,43.4
			c19.2,6.9,40.2,11.2,59,10.7v-32.9L235,374.7C231.9,365.8,228,330.2,230.4,325.9z"/>
		<path class="st9" d="M333.5,374.1c-4.7-7.4-9.9-13.8-15.1-17c-7.6-4.7-14.3-8.5-20.5-11.5l-7.3-10.2l-9.6-11.9
			c1.6,3.6-5.3,49-8.2,53.8c0,0-16.9,13.3-16.5,13.3c0.1,0-0.2,0-0.3,0v32.9c0.1,0,0.2,0,0.3,0c23.1,0.5,45-5.5,63.7-13.8
			L333.5,374.1z"/>
		<path class="st2" d="M192.2,238.5c0,0,5.8,17.1,4.5,22.3c-1.2,5.2,2.9,4.2,3.6,3.3c4.7-6.3,2.8-31.1,2.8-31.1l-5.2-0.7l-5.7-3.2
			l-1.1,7.4L192.2,238.5z"/>
		<path class="st3" d="M322,228.9c0,0-5.8,17.1-4.6,22.3c1.2,5.2-2.9,4.2-3.6,3.3c-4.7-6.3-2.8-31.1-2.8-31.1l5.2-0.7l5.7-3.2
			l1.1,7.4L322,228.9z"/>
		<polygon class="st10" points="191.1,271.8 186.4,281.6 197.3,281.6 		"/>
		<polygon class="st10" points="319.4,272.8 314.6,282.6 325.6,282.6 		"/>
		<path class="st2" d="M195.4,232.9c9.6,4.5-0.4,33.2,5.5,25.9c15.8-19.6,37.3-31.8,55.1-39.2V190
			C237,194.2,154.7,213.7,195.4,232.9z"/>
		<path class="st3" d="M289.8,193.5l-30.1-4.3c0,0-1.4,0.3-3.8,0.8v29.5c18-7.5,32.1-9.9,32.1-9.9L289.8,193.5z"/>
	</g>
</g>
<path class="st11" d="M261,466.2h-73.3l-0.7-0.5c-14.2-9.7-27.1-0.2-27.2-0.1l-0.7,0.5H91.9c-1.4,0-2.6-1.2-2.6-2.6s1.2-2.6,2.6-2.6
	h65.6c3.3-2.1,17-9.6,31.8,0H261c1.4,0,2.6,1.2,2.6,2.6S262.4,466.2,261,466.2z"/>
<path class="st11" d="M314.9,466.2h-44.6c-1.4,0-2.6-1.2-2.6-2.6s1.2-2.6,2.6-2.6h44.6c1.4,0,2.6,1.2,2.6,2.6
	S316.4,466.2,314.9,466.2z"/>
<path class="st11" d="M420.5,466.2h-72.2c-1.4,0-2.6-1.2-2.6-2.6s1.2-2.6,2.6-2.6h72.2c1.4,0,2.6,1.2,2.6,2.6S422,466.2,420.5,466.2
	z"/>
<path class="st11" d="M337.4,466.2h-15.1c-1.4,0-2.6-1.2-2.6-2.6s1.2-2.6,2.6-2.6h15.1c1.4,0,2.6,1.2,2.6,2.6
	S338.9,466.2,337.4,466.2z"/>
<path class="st11" d="M221.3,496.4h-76.3c-1.4,0-2.6-1.2-2.6-2.6c0-1.4,1.2-2.6,2.6-2.6h76.3c1.4,0,2.6,1.2,2.6,2.6
	C223.9,495.3,222.7,496.4,221.3,496.4z"/>
<path class="st11" d="M373.5,496.4H263.4c-1.4,0-2.6-1.2-2.6-2.6c0-1.4,1.2-2.6,2.6-2.6h110.1c1.4,0,2.6,1.2,2.6,2.6
	C376.1,495.3,374.9,496.4,373.5,496.4z"/>
<path class="st11" d="M248.1,496.4h-15.1c-1.4,0-2.6-1.2-2.6-2.6c0-1.4,1.2-2.6,2.6-2.6h15.1c1.4,0,2.6,1.2,2.6,2.6
	C250.7,495.3,249.6,496.4,248.1,496.4z"/>
<g>
	<path class="st11" d="M452.5,228h31.1c1.6,0,2.9,1.3,2.9,2.9v0c0,1.6-1.3,2.9-2.9,2.9h-31.1c-1.6,0-2.9-1.3-2.9-2.9v0
		C449.6,229.3,450.9,228,452.5,228z"/>
</g>
<path class="st11" d="M503.4,228h-8.7c-1.6,0-2.9,1.3-2.9,2.9v0c0,1.6,1.3,2.9,2.9,2.9h8.7c1.6,0,2.9-1.3,2.9-2.9v0
	C506.3,229.3,505,228,503.4,228z"/>
<path class="st11" d="M4.1,351.9h31.1c1.6,0,2.9,1.3,2.9,2.9l0,0c0,1.6-1.3,2.9-2.9,2.9H4.1c-1.6,0-2.9-1.3-2.9-2.9l0,0
	C1.2,353.2,2.5,351.9,4.1,351.9z"/>
<path class="st11" d="M55,351.9h-8.7c-1.6,0-2.9,1.3-2.9,2.9l0,0c0,1.6,1.3,2.9,2.9,2.9H55c1.6,0,2.9-1.3,2.9-2.9l0,0
	C57.9,353.2,56.6,351.9,55,351.9z"/>
<path class="st11" d="M72.4,67.7h31.1c1.6,0,2.9,1.3,2.9,2.9l0,0c0,1.6-1.3,2.9-2.9,2.9H72.4c-1.6,0-2.9-1.3-2.9-2.9l0,0
	C69.5,69,70.8,67.7,72.4,67.7z"/>
<path class="st11" d="M123.2,67.7h-8.7c-1.6,0-2.9,1.3-2.9,2.9l0,0c0,1.6,1.3,2.9,2.9,2.9h8.7c1.6,0,2.9-1.3,2.9-2.9l0,0
	C126.1,69,124.8,67.7,123.2,67.7z"/>
<path class="st11" d="M58.2,128.5H28.7c-1.1,0-2.1-0.9-2.1-2.1l0,0c0-1.1,0.9-2.1,2.1-2.1h29.6c1.1,0,2.1,0.9,2.1,2.1l0,0
	C60.3,127.6,59.4,128.5,58.2,128.5z"/>
<path class="st11" d="M45.5,111.6v29.6c0,1.1-0.9,2.1-2.1,2.1h0c-1.1,0-2.1-0.9-2.1-2.1v-29.6c0-1.1,0.9-2.1,2.1-2.1h0
	C44.6,109.6,45.5,110.5,45.5,111.6z"/>
<path class="st11" d="M462.5,109.6H433c-1.1,0-2.1-0.9-2.1-2.1l0,0c0-1.1,0.9-2.1,2.1-2.1h29.6c1.1,0,2.1,0.9,2.1,2.1l0,0
	C464.6,108.6,463.7,109.6,462.5,109.6z"/>
<path class="st11" d="M449.8,92.7v29.6c0,1.1-0.9,2.1-2.1,2.1l0,0c-1.1,0-2.1-0.9-2.1-2.1V92.7c0-1.1,0.9-2.1,2.1-2.1l0,0
	C448.9,90.6,449.8,91.6,449.8,92.7z"/>
<path class="st11" d="M495.2,298.6h-20.7c-0.8,0-1.4-0.6-1.4-1.4l0,0c0-0.8,0.6-1.4,1.4-1.4h20.7c0.8,0,1.4,0.6,1.4,1.4l0,0
	C496.7,297.9,496,298.6,495.2,298.6z"/>
<path class="st11" d="M486.3,286.8v20.7c0,0.8-0.6,1.4-1.4,1.4l0,0c-0.8,0-1.4-0.6-1.4-1.4v-20.7c0-0.8,0.6-1.4,1.4-1.4l0,0
	C485.7,285.3,486.3,286,486.3,286.8z"/>
<path class="st12" d="M356.1,35.1h-20.7c-0.8,0-1.4-0.6-1.4-1.4v0c0-0.8,0.6-1.4,1.4-1.4h20.7c0.8,0,1.4,0.6,1.4,1.4v0
	C357.6,34.5,356.9,35.1,356.1,35.1z"/>
<path class="st12" d="M347.2,23.3v20.8c0,0.8-0.6,1.4-1.4,1.4l0,0c-0.8,0-1.4-0.6-1.4-1.4V23.3c0-0.8,0.6-1.4,1.4-1.4l0,0
	C346.5,21.9,347.2,22.5,347.2,23.3z"/>
<path class="st11" d="M30.5,216.4c0,8-6.5,14.4-14.4,14.4c-7.9,0-14.4-6.4-14.4-14.4c0-7.9,6.5-14.4,14.4-14.4
	C24.1,202,30.5,208.4,30.5,216.4z"/>
<path class="st12" d="M63.2,177c0,5-4,9-9,9c-4.9,0-9-4-9-9c0-5,4-9,9-9C59.2,168,63.2,172,63.2,177z"/>
<circle class="st12" cx="457.9" cy="272.9" r="4.5"/>
<path class="st11" d="M496.8,260.4c0,2.5-2,4.5-4.5,4.5c-2.5,0-4.6-2-4.6-4.5c0-2.5,2-4.6,4.6-4.6
	C494.7,255.9,496.8,257.9,496.8,260.4z"/>
<path class="st11" d="M374.5,86.6c0-6.7,5.4-12.1,12.1-12.1c6.7,0,12.1,5.4,12.1,12.1c0,6.7-5.4,12.1-12.1,12.1
	C379.9,98.7,374.5,93.2,374.5,86.6z"/>
<path class="st13" d="M190.3,33.7c0-6.7,5.4-12.1,12.1-12.1c6.7,0,12.1,5.4,12.1,12.1s-5.4,12.1-12.1,12.1
	C195.7,45.8,190.3,40.4,190.3,33.7z"/>
<path class="st11" d="M445,156.9c0-3.5,2.9-6.4,6.4-6.4c3.5,0,6.4,2.9,6.4,6.4c0,3.5-2.9,6.4-6.4,6.4
	C447.9,163.3,445,160.4,445,156.9z"/>
<path class="st11" d="M219.3,15.2c0-3.5,2.9-6.4,6.4-6.4c3.5,0,6.4,2.9,6.4,6.4c0,3.5-2.9,6.4-6.4,6.4
	C222.1,21.6,219.3,18.7,219.3,15.2z"/>
<path class="st14" d="M238.9,45.8c0-3.5,2.9-6.4,6.4-6.4c3.5,0,6.4,2.9,6.4,6.4c0,3.5-2.9,6.4-6.4,6.4
	C241.7,52.2,238.9,49.3,238.9,45.8z"/>
<polygon class="st13" points="26.6,266 29.5,275.4 38.9,278.4 29.5,281.3 26.6,290.7 23.7,281.3 14.3,278.4 23.3,275.4 "/>
<polygon class="st14" points="454.6,342.5 457.5,351.9 466.9,354.8 457.5,357.8 454.6,367.2 451.6,357.8 442.3,354.8 451.3,351.9 
	"/>
<polygon class="st11" points="164.4,0 168,11.6 179.6,15.2 168,18.8 164.4,30.4 160.7,18.8 149.2,15.2 160.3,11.6 "/>
<path class="st11" d="M256,437.2c-99.9,0-181.2-81.3-181.2-181.2c0-99.9,81.3-181.2,181.2-181.2c99.9,0,181.2,81.3,181.2,181.2
	C437.2,355.9,355.9,437.2,256,437.2z M256,89.1c-92,0-166.9,74.9-166.9,166.9S163.9,422.9,256,422.9c92,0,166.9-74.9,166.9-166.9
	S348,89.1,256,89.1z"/>
</svg>
