<?xml version="1.0" encoding="utf-8"?>
<!-- Generator: Adobe Illustrator 21.1.0, SVG Export Plug-In . SVG Version: 6.00 Build 0)  -->
<svg version="1.1" id="Layer_1" xmlns="http://www.w3.org/2000/svg" xmlns:xlink="http://www.w3.org/1999/xlink" x="0px" y="0px"
	 viewBox="0 0 512 512" style="enable-background:new 0 0 512 512;" xml:space="preserve">
<style type="text/css">
	.st0{fill:#D1495D;}
	.st1{fill:#C7374A;}
	.st2{fill:#FCC57F;}
	.st3{fill:#FFD8AA;}
	.st4{fill:#FFE6C8;}
	.st5{fill:#F4DBAD;}
	.st6{fill:#FBB762;}
	.st7{fill:#E5A85A;}
	.st8{fill:#EDEDED;}
	.st9{fill:#DBDBDB;}
	.st10{fill:#5BC0A0;}
	.st11{fill:#66AD97;}
	.st12{fill:#FFFFFF;}
	.st13{fill:#F1F1F2;}
	.st14{fill:#FFDD15;}
	.st15{fill:#8BC53F;}
	.st16{fill:#F6921E;}
</style>
<g>
	<path class="st0" d="M256,88c-92.8,0-168,75.2-168,168c0,92.8,75.2,168,168,168c0.3,0,0.6,0,0.9,0V88C256.6,88,256.3,88,256,88z"/>
	<path class="st1" d="M424,256c0-92.5-74.7-167.5-167.1-168V424C349.3,423.5,424,348.5,424,256z"/>
	<g>
		<polygon class="st2" points="285.8,299.1 285.8,288.6 228.7,288.6 228.7,327.4 		"/>
		<path class="st3" d="M228.7,247.3v82.6c0,15.5,14.3,22.5,28.6,22.1V247.3H228.7z"/>
		<path class="st2" d="M285.8,329.9v-82.6h-28.5V352C271.6,351.5,285.8,343.8,285.8,329.9z"/>
		<path class="st4" d="M257.3,167.7c-120.9,0-71.9,159.7,0,159.7h0L257.3,167.7L257.3,167.7z"/>
		<path class="st5" d="M257.3,167.7v159.7C329.2,327.4,378.1,167.7,257.3,167.7z"/>
		<path class="st6" d="M255.2,160.7c-34.9,0-62.6,32.9-67.8,45.2c-5.2,12.3-6.5,14.6-5.6,27.8c0.9,13.2,13.8,22.7,15.8,8.3
			c2.5-17.8,14-39.4,31-51.2c4.1-2.8,16.3,3.1,28.6,9.7v-39.7C256.6,160.7,255.9,160.7,255.2,160.7z"/>
		<path class="st7" d="M276.4,186.6c19.3,8.1,37.1,26.8,44.6,53.4c3,10.5,8.5,4.5,10.9-4c2.4-8.5,1.2-18.7-4-28.2
			c0.9,1.6-41.8-44.8-70.6-47v39.7c11.8,6.3,23.7,13,28.6,13.1C292.6,213.7,269.7,183.7,276.4,186.6z"/>
		<path class="st6" d="M178.9,229.4c8.8,33.9,19.7,14.7,19.2,0.1c-0.4-14.6,12.2-46.5,57.1-47.6c0.7,0,1.4,0.1,2.1,0.1v-48.6
			C195.6,134.3,170.2,195.7,178.9,229.4z"/>
		<path class="st7" d="M316.7,229c1.3,20.5,8.4,22.4,17.2,3.7c8.8-18.7-12.7-99.2-75.2-99.4v0c0,0-0.1,0-0.1,0c0,0-0.1,0-0.1,0v0
			c-0.4,0-0.8,0-1.2,0V182C296.4,182.9,315.4,208.9,316.7,229z"/>
		<path class="st4" d="M177.4,222.7c-4.4,1-6.1,10-3.9,20.2c2.3,10.2,7.7,17.7,12.1,16.7c4.4-1,6.1-10,3.9-20.2
			C187.2,229.2,181.8,221.7,177.4,222.7"/>
		<path class="st4" d="M334.8,222.7c4.4,1,6.1,10,3.9,20.2c-2.3,10.2-7.7,17.7-12.1,16.7c-4.4-1-6.1-10-3.9-20.2
			C325,229.2,330.4,221.7,334.8,222.7"/>
		<g>
			<path class="st8" d="M257.3,343.8c-20-0.3-40.8,3-73.7,24.4c-8.7,5.6-16.6,17.5-23,30.3c25.9,16.1,56.5,25.5,89.2,25.5
				c2.5,0,5-0.2,7.5-0.3v-77.7C256.9,345.9,257.7,343.8,257.3,343.8z"/>
			<path class="st9" d="M328.7,368.2c-32.4-20.3-52.2-23.9-71.4-24.4v79.8c33.9-1.5,66.6-10.3,92.5-28.9
				C344.1,384.4,336.1,372.8,328.7,368.2z"/>
			<path class="st10" d="M230.7,344.1l19.4,46.4l-6.9,33.3c4.7,0.2,6.7,0.2,12.8,0c0.4,0,0.8,0,1.2,0v-80
				C248.7,343.8,240.2,343.9,230.7,344.1z"/>
			<path class="st11" d="M262.1,390.5l19.4-46.4c-8.6-0.2-16.4-0.2-24.2-0.2v80c3.5-0.1,6.1-0.4,9.9-0.7L262.1,390.5z"/>
			<polygon class="st12" points="229.5,327.4 208.4,354.3 221.6,378.8 256.4,343.8 			"/>
			<polygon class="st8" points="284.4,327.4 306.9,356.1 292.4,378.8 257.6,343.8 			"/>
		</g>
	</g>
</g>
<path class="st13" d="M261,466.2h-73.3l-0.7-0.5c-14.2-9.7-27.1-0.2-27.2-0.1l-0.7,0.5H91.9c-1.4,0-2.6-1.2-2.6-2.6s1.2-2.6,2.6-2.6
	h65.6c3.3-2.1,17-9.6,31.8,0H261c1.4,0,2.6,1.2,2.6,2.6S262.4,466.2,261,466.2z"/>
<path class="st13" d="M314.9,466.2h-44.6c-1.4,0-2.6-1.2-2.6-2.6s1.2-2.6,2.6-2.6h44.6c1.4,0,2.6,1.2,2.6,2.6
	S316.4,466.2,314.9,466.2z"/>
<path class="st13" d="M420.5,466.2h-72.2c-1.4,0-2.6-1.2-2.6-2.6s1.2-2.6,2.6-2.6h72.2c1.4,0,2.6,1.2,2.6,2.6S422,466.2,420.5,466.2
	z"/>
<path class="st13" d="M337.4,466.2h-15.1c-1.4,0-2.6-1.2-2.6-2.6s1.2-2.6,2.6-2.6h15.1c1.4,0,2.6,1.2,2.6,2.6
	S338.9,466.2,337.4,466.2z"/>
<path class="st13" d="M221.3,496.4h-76.3c-1.4,0-2.6-1.2-2.6-2.6c0-1.4,1.2-2.6,2.6-2.6h76.3c1.4,0,2.6,1.2,2.6,2.6
	C223.9,495.3,222.7,496.4,221.3,496.4z"/>
<path class="st13" d="M373.5,496.4H263.4c-1.4,0-2.6-1.2-2.6-2.6c0-1.4,1.2-2.6,2.6-2.6h110.1c1.4,0,2.6,1.2,2.6,2.6
	C376.1,495.3,374.9,496.4,373.5,496.4z"/>
<path class="st13" d="M248.1,496.4h-15.1c-1.4,0-2.6-1.2-2.6-2.6c0-1.4,1.2-2.6,2.6-2.6h15.1c1.4,0,2.6,1.2,2.6,2.6
	C250.7,495.3,249.6,496.4,248.1,496.4z"/>
<g>
	<path class="st13" d="M452.5,228h31.1c1.6,0,2.9,1.3,2.9,2.9v0c0,1.6-1.3,2.9-2.9,2.9h-31.1c-1.6,0-2.9-1.3-2.9-2.9v0
		C449.6,229.3,450.9,228,452.5,228z"/>
</g>
<path class="st13" d="M503.4,228h-8.7c-1.6,0-2.9,1.3-2.9,2.9v0c0,1.6,1.3,2.9,2.9,2.9h8.7c1.6,0,2.9-1.3,2.9-2.9v0
	C506.3,229.3,505,228,503.4,228z"/>
<path class="st13" d="M4.1,351.9h31.1c1.6,0,2.9,1.3,2.9,2.9l0,0c0,1.6-1.3,2.9-2.9,2.9H4.1c-1.6,0-2.9-1.3-2.9-2.9l0,0
	C1.2,353.2,2.5,351.9,4.1,351.9z"/>
<path class="st13" d="M55,351.9h-8.7c-1.6,0-2.9,1.3-2.9,2.9l0,0c0,1.6,1.3,2.9,2.9,2.9H55c1.6,0,2.9-1.3,2.9-2.9l0,0
	C57.9,353.2,56.6,351.9,55,351.9z"/>
<path class="st13" d="M72.4,67.7h31.1c1.6,0,2.9,1.3,2.9,2.9l0,0c0,1.6-1.3,2.9-2.9,2.9H72.4c-1.6,0-2.9-1.3-2.9-2.9l0,0
	C69.5,69,70.8,67.7,72.4,67.7z"/>
<path class="st13" d="M123.2,67.7h-8.7c-1.6,0-2.9,1.3-2.9,2.9l0,0c0,1.6,1.3,2.9,2.9,2.9h8.7c1.6,0,2.9-1.3,2.9-2.9l0,0
	C126.1,69,124.8,67.7,123.2,67.7z"/>
<path class="st13" d="M58.2,128.5H28.7c-1.1,0-2.1-0.9-2.1-2.1l0,0c0-1.1,0.9-2.1,2.1-2.1h29.6c1.1,0,2.1,0.9,2.1,2.1l0,0
	C60.3,127.6,59.4,128.5,58.2,128.5z"/>
<path class="st13" d="M45.5,111.6v29.6c0,1.1-0.9,2.1-2.1,2.1h0c-1.1,0-2.1-0.9-2.1-2.1v-29.6c0-1.1,0.9-2.1,2.1-2.1h0
	C44.6,109.6,45.5,110.5,45.5,111.6z"/>
<path class="st13" d="M462.5,109.6H433c-1.1,0-2.1-0.9-2.1-2.1l0,0c0-1.1,0.9-2.1,2.1-2.1h29.6c1.1,0,2.1,0.9,2.1,2.1l0,0
	C464.6,108.6,463.7,109.6,462.5,109.6z"/>
<path class="st13" d="M449.8,92.7v29.6c0,1.1-0.9,2.1-2.1,2.1l0,0c-1.1,0-2.1-0.9-2.1-2.1V92.7c0-1.1,0.9-2.1,2.1-2.1l0,0
	C448.9,90.6,449.8,91.6,449.8,92.7z"/>
<path class="st13" d="M495.2,298.6h-20.7c-0.8,0-1.4-0.6-1.4-1.4l0,0c0-0.8,0.6-1.4,1.4-1.4h20.7c0.8,0,1.4,0.6,1.4,1.4l0,0
	C496.7,297.9,496,298.6,495.2,298.6z"/>
<path class="st13" d="M486.3,286.8v20.7c0,0.8-0.6,1.4-1.4,1.4l0,0c-0.8,0-1.4-0.6-1.4-1.4v-20.7c0-0.8,0.6-1.4,1.4-1.4l0,0
	C485.7,285.3,486.3,286,486.3,286.8z"/>
<path class="st14" d="M356.1,35.1h-20.7c-0.8,0-1.4-0.6-1.4-1.4v0c0-0.8,0.6-1.4,1.4-1.4h20.7c0.8,0,1.4,0.6,1.4,1.4v0
	C357.6,34.5,356.9,35.1,356.1,35.1z"/>
<path class="st14" d="M347.2,23.3v20.8c0,0.8-0.6,1.4-1.4,1.4l0,0c-0.8,0-1.4-0.6-1.4-1.4V23.3c0-0.8,0.6-1.4,1.4-1.4l0,0
	C346.5,21.9,347.2,22.5,347.2,23.3z"/>
<path class="st13" d="M30.5,216.4c0,8-6.5,14.4-14.4,14.4c-7.9,0-14.4-6.4-14.4-14.4c0-7.9,6.5-14.4,14.4-14.4
	C24.1,202,30.5,208.4,30.5,216.4z"/>
<path class="st14" d="M63.2,177c0,5-4,9-9,9c-4.9,0-9-4-9-9c0-5,4-9,9-9C59.2,168,63.2,172,63.2,177z"/>
<circle class="st14" cx="457.9" cy="272.9" r="4.5"/>
<path class="st13" d="M496.8,260.4c0,2.5-2,4.5-4.5,4.5c-2.5,0-4.6-2-4.6-4.5c0-2.5,2-4.6,4.6-4.6
	C494.7,255.9,496.8,257.9,496.8,260.4z"/>
<path class="st13" d="M374.5,86.6c0-6.7,5.4-12.1,12.1-12.1c6.7,0,12.1,5.4,12.1,12.1c0,6.7-5.4,12.1-12.1,12.1
	C379.9,98.7,374.5,93.2,374.5,86.6z"/>
<path class="st15" d="M190.3,33.7c0-6.7,5.4-12.1,12.1-12.1c6.7,0,12.1,5.4,12.1,12.1s-5.4,12.1-12.1,12.1
	C195.7,45.8,190.3,40.4,190.3,33.7z"/>
<path class="st13" d="M445,156.9c0-3.5,2.9-6.4,6.4-6.4c3.5,0,6.4,2.9,6.4,6.4c0,3.5-2.9,6.4-6.4,6.4
	C447.9,163.3,445,160.4,445,156.9z"/>
<path class="st13" d="M219.3,15.2c0-3.5,2.9-6.4,6.4-6.4c3.5,0,6.4,2.9,6.4,6.4c0,3.5-2.9,6.4-6.4,6.4
	C222.1,21.6,219.3,18.7,219.3,15.2z"/>
<path class="st16" d="M238.9,45.8c0-3.5,2.9-6.4,6.4-6.4c3.5,0,6.4,2.9,6.4,6.4c0,3.5-2.9,6.4-6.4,6.4
	C241.7,52.2,238.9,49.3,238.9,45.8z"/>
<polygon class="st15" points="26.6,266 29.5,275.4 38.9,278.4 29.5,281.3 26.6,290.7 23.7,281.3 14.3,278.4 23.3,275.4 "/>
<polygon class="st16" points="454.6,342.5 457.5,351.9 466.9,354.8 457.5,357.8 454.6,367.2 451.6,357.8 442.3,354.8 451.3,351.9 
	"/>
<polygon class="st13" points="164.4,0 168,11.6 179.6,15.2 168,18.8 164.4,30.4 160.7,18.8 149.2,15.2 160.3,11.6 "/>
<path class="st13" d="M256,437.2c-99.9,0-181.2-81.3-181.2-181.2c0-99.9,81.3-181.2,181.2-181.2c99.9,0,181.2,81.3,181.2,181.2
	C437.2,355.9,355.9,437.2,256,437.2z M256,89.1c-92,0-166.9,74.9-166.9,166.9S163.9,422.9,256,422.9c92,0,166.9-74.9,166.9-166.9
	S348,89.1,256,89.1z"/>
</svg>
