<?xml version="1.0" encoding="utf-8"?>
<!-- Generator: Adobe Illustrator 21.1.0, SVG Export Plug-In . SVG Version: 6.00 Build 0)  -->
<svg version="1.1" id="Layer_1" xmlns="http://www.w3.org/2000/svg" xmlns:xlink="http://www.w3.org/1999/xlink" x="0px" y="0px"
	 viewBox="0 0 512 512" style="enable-background:new 0 0 512 512;" xml:space="preserve">
<style type="text/css">
	.st0{fill:#B3CD72;}
	.st1{fill:#91C167;}
	.st2{fill:#59595C;}
	.st3{fill:#515251;}
	.st4{fill:#FFD8AA;}
	.st5{fill:#FCC57F;}
	.st6{fill:#FFE6C8;}
	.st7{fill:#F4DBAD;}
	.st8{fill:#FFFFFF;}
	.st9{fill:#EBEBEB;}
	.st10{fill:#F1F1F2;}
	.st11{fill:#FFDD15;}
	.st12{fill:#8BC53F;}
	.st13{fill:#F6921E;}
</style>
<g>
	<g>
		<path class="st0" d="M88.5,256c0,92.5,75,167.5,167.5,167.5v-335C163.5,88.5,88.5,163.5,88.5,256z"/>
		<path class="st1" d="M423.5,256c0-92.5-75-167.5-167.5-167.5v335C348.5,423.5,423.5,348.5,423.5,256z"/>
	</g>
	<g>
		<path class="st2" d="M173.4,217c6.5,41.9-29.8,127.3-27.8,128.5c4.2,2.3,18.4,17.6,42.7-13.6c11.8-15.1,6.4,27.1,37,9
			c63.7-37.6,14.2-197.1-45.7-124.7L173.4,217z"/>
		<path class="st3" d="M341.6,203.8c-6.6,41.9,5.5,117.2,23.9,133c7.9,9.9-6,39.9-41.9-6.2c-11.8-15.1-6.4,27.1-37,9
			c-63.7-37.6-11.5-180.6,48.5-108.3L341.6,203.8z"/>
		<path class="st4" d="M227.4,224.3v83.5c0,15.6,14.3,22.7,28.6,22.3V224.3H227.4z"/>
		<path class="st5" d="M285.1,307.8v-83.5H256v105.8C270.5,329.8,285.1,321.9,285.1,307.8z"/>
		<path class="st6" d="M256,305.3V143.9C134.2,144.1,183.5,304.9,256,305.3z"/>
		<path class="st7" d="M256.2,143.9c-0.1,0-0.2,0-0.2,0v161.4c0.1,0,0.2,0,0.2,0C328.9,305.3,378.4,143.9,256.2,143.9z"/>
		<path class="st2" d="M177.3,235.3c11.1,33.6,19.5-14.3,19.1-29c-0.4-14.7,12.3-46.9,57.7-48.1c0.6,0,1.2,0.1,1.9,0.1v-49
			C193.8,110.3,160.3,184.1,177.3,235.3z"/>
		<path class="st3" d="M316.3,205.8c0.9,14.9,8.3,49,14.1,50.2c2.3,0.4,2-19.2,4.6-24.5c22.3-45.4-14.1-122.2-77.4-122.3v0
			c0,0-0.1,0-0.1,0c-0.1,0-0.1,0-0.1,0v0c-0.5,0-1,0-1.5,0v49C295.7,159.1,315,185.4,316.3,205.8z"/>
		<path class="st2" d="M254.1,136.7c-35.3,0-63.3,33.3-68.6,45.7c-5.3,12.4-6.6,14.7-5.6,28.1c0.6,8.4,2.6,61.3,7,61.8
			c2.6,0.3,8.3-47.9,9-53.3c2.6-17.9,14.1-39.8,31.4-51.7c8.1-5.6-27.9,31-17.7,31.2c4.4,0.1,28.4-16.4,46.3-27v-34.7
			C255.4,136.8,254.8,136.7,254.1,136.7z"/>
		<path class="st3" d="M275.6,162.9c19.5,8.2,37.5,27.1,45.1,54c3,10.6,8.6,4.6,11-4c2.4-8.6,1.2-19-4-28.5
			c0.9,1.6-42.5-45.6-71.6-47.5v34.7C265.4,165.9,273.2,162,275.6,162.9z"/>
		<polygon class="st8" points="228.2,305.3 206.9,332.5 220.1,357.3 255.3,321.9 		"/>
		<polygon class="st9" points="283.7,305.3 306.7,334.5 291.8,357.3 256.6,321.9 		"/>
		<path class="st8" d="M255,320.3c-20.2-0.3-40,4.7-73.3,26.3c-11.3,7.3-21.2,25-28.3,41.6c28.3,22.1,63.9,35.3,102.6,35.4V320.3
			C255.7,320.3,255.3,320.3,255,320.3z"/>
		<path class="st9" d="M357.4,389.7c-7.1-17.1-17.1-35.7-28.9-43.1c-32.9-20.6-53-25.8-72.4-26.2v103.2c0.1,0,0.2,0,0.4,0
			C294.3,423.5,329.3,410.9,357.4,389.7z"/>
	</g>
</g>
<path class="st10" d="M261,466.2h-73.3l-0.7-0.5c-14.2-9.7-27.1-0.2-27.2-0.1l-0.7,0.5H91.9c-1.4,0-2.6-1.2-2.6-2.6s1.2-2.6,2.6-2.6
	h65.6c3.3-2.1,17-9.6,31.8,0H261c1.4,0,2.6,1.2,2.6,2.6S262.4,466.2,261,466.2z"/>
<path class="st10" d="M314.9,466.2h-44.6c-1.4,0-2.6-1.2-2.6-2.6s1.2-2.6,2.6-2.6h44.6c1.4,0,2.6,1.2,2.6,2.6
	S316.4,466.2,314.9,466.2z"/>
<path class="st10" d="M420.5,466.2h-72.2c-1.4,0-2.6-1.2-2.6-2.6s1.2-2.6,2.6-2.6h72.2c1.4,0,2.6,1.2,2.6,2.6S422,466.2,420.5,466.2
	z"/>
<path class="st10" d="M337.4,466.2h-15.1c-1.4,0-2.6-1.2-2.6-2.6s1.2-2.6,2.6-2.6h15.1c1.4,0,2.6,1.2,2.6,2.6
	S338.9,466.2,337.4,466.2z"/>
<path class="st10" d="M221.3,496.4h-76.3c-1.4,0-2.6-1.2-2.6-2.6c0-1.4,1.2-2.6,2.6-2.6h76.3c1.4,0,2.6,1.2,2.6,2.6
	C223.9,495.3,222.7,496.4,221.3,496.4z"/>
<path class="st10" d="M373.5,496.4H263.4c-1.4,0-2.6-1.2-2.6-2.6c0-1.4,1.2-2.6,2.6-2.6h110.1c1.4,0,2.6,1.2,2.6,2.6
	C376.1,495.3,374.9,496.4,373.5,496.4z"/>
<path class="st10" d="M248.1,496.4h-15.1c-1.4,0-2.6-1.2-2.6-2.6c0-1.4,1.2-2.6,2.6-2.6h15.1c1.4,0,2.6,1.2,2.6,2.6
	C250.7,495.3,249.6,496.4,248.1,496.4z"/>
<g>
	<path class="st10" d="M452.5,228h31.1c1.6,0,2.9,1.3,2.9,2.9v0c0,1.6-1.3,2.9-2.9,2.9h-31.1c-1.6,0-2.9-1.3-2.9-2.9v0
		C449.6,229.3,450.9,228,452.5,228z"/>
</g>
<path class="st10" d="M503.4,228h-8.7c-1.6,0-2.9,1.3-2.9,2.9v0c0,1.6,1.3,2.9,2.9,2.9h8.7c1.6,0,2.9-1.3,2.9-2.9v0
	C506.3,229.3,505,228,503.4,228z"/>
<path class="st10" d="M4.1,351.9h31.1c1.6,0,2.9,1.3,2.9,2.9l0,0c0,1.6-1.3,2.9-2.9,2.9H4.1c-1.6,0-2.9-1.3-2.9-2.9l0,0
	C1.2,353.2,2.5,351.9,4.1,351.9z"/>
<path class="st10" d="M55,351.9h-8.7c-1.6,0-2.9,1.3-2.9,2.9l0,0c0,1.6,1.3,2.9,2.9,2.9H55c1.6,0,2.9-1.3,2.9-2.9l0,0
	C57.9,353.2,56.6,351.9,55,351.9z"/>
<path class="st10" d="M72.4,67.7h31.1c1.6,0,2.9,1.3,2.9,2.9l0,0c0,1.6-1.3,2.9-2.9,2.9H72.4c-1.6,0-2.9-1.3-2.9-2.9l0,0
	C69.5,69,70.8,67.7,72.4,67.7z"/>
<path class="st10" d="M123.2,67.7h-8.7c-1.6,0-2.9,1.3-2.9,2.9l0,0c0,1.6,1.3,2.9,2.9,2.9h8.7c1.6,0,2.9-1.3,2.9-2.9l0,0
	C126.1,69,124.8,67.7,123.2,67.7z"/>
<path class="st10" d="M58.2,128.5H28.7c-1.1,0-2.1-0.9-2.1-2.1l0,0c0-1.1,0.9-2.1,2.1-2.1h29.6c1.1,0,2.1,0.9,2.1,2.1l0,0
	C60.3,127.6,59.4,128.5,58.2,128.5z"/>
<path class="st10" d="M45.5,111.6v29.6c0,1.1-0.9,2.1-2.1,2.1h0c-1.1,0-2.1-0.9-2.1-2.1v-29.6c0-1.1,0.9-2.1,2.1-2.1h0
	C44.6,109.6,45.5,110.5,45.5,111.6z"/>
<path class="st10" d="M462.5,109.6H433c-1.1,0-2.1-0.9-2.1-2.1l0,0c0-1.1,0.9-2.1,2.1-2.1h29.6c1.1,0,2.1,0.9,2.1,2.1l0,0
	C464.6,108.6,463.7,109.6,462.5,109.6z"/>
<path class="st10" d="M449.8,92.7v29.6c0,1.1-0.9,2.1-2.1,2.1l0,0c-1.1,0-2.1-0.9-2.1-2.1V92.7c0-1.1,0.9-2.1,2.1-2.1l0,0
	C448.9,90.6,449.8,91.6,449.8,92.7z"/>
<path class="st10" d="M495.2,298.6h-20.7c-0.8,0-1.4-0.6-1.4-1.4l0,0c0-0.8,0.6-1.4,1.4-1.4h20.7c0.8,0,1.4,0.6,1.4,1.4l0,0
	C496.7,297.9,496,298.6,495.2,298.6z"/>
<path class="st10" d="M486.3,286.8v20.7c0,0.8-0.6,1.4-1.4,1.4l0,0c-0.8,0-1.4-0.6-1.4-1.4v-20.7c0-0.8,0.6-1.4,1.4-1.4l0,0
	C485.7,285.3,486.3,286,486.3,286.8z"/>
<path class="st11" d="M356.1,35.1h-20.7c-0.8,0-1.4-0.6-1.4-1.4v0c0-0.8,0.6-1.4,1.4-1.4h20.7c0.8,0,1.4,0.6,1.4,1.4v0
	C357.6,34.5,356.9,35.1,356.1,35.1z"/>
<path class="st11" d="M347.2,23.3v20.8c0,0.8-0.6,1.4-1.4,1.4l0,0c-0.8,0-1.4-0.6-1.4-1.4V23.3c0-0.8,0.6-1.4,1.4-1.4l0,0
	C346.5,21.9,347.2,22.5,347.2,23.3z"/>
<path class="st10" d="M30.5,216.4c0,8-6.5,14.4-14.4,14.4c-7.9,0-14.4-6.4-14.4-14.4c0-7.9,6.5-14.4,14.4-14.4
	C24.1,202,30.5,208.4,30.5,216.4z"/>
<path class="st11" d="M63.2,177c0,5-4,9-9,9c-4.9,0-9-4-9-9c0-5,4-9,9-9C59.2,168,63.2,172,63.2,177z"/>
<circle class="st11" cx="457.9" cy="272.9" r="4.5"/>
<path class="st10" d="M496.8,260.4c0,2.5-2,4.5-4.5,4.5c-2.5,0-4.6-2-4.6-4.5c0-2.5,2-4.6,4.6-4.6
	C494.7,255.9,496.8,257.9,496.8,260.4z"/>
<path class="st10" d="M374.5,86.6c0-6.7,5.4-12.1,12.1-12.1c6.7,0,12.1,5.4,12.1,12.1c0,6.7-5.4,12.1-12.1,12.1
	C379.9,98.7,374.5,93.2,374.5,86.6z"/>
<path class="st12" d="M190.3,33.7c0-6.7,5.4-12.1,12.1-12.1c6.7,0,12.1,5.4,12.1,12.1s-5.4,12.1-12.1,12.1
	C195.7,45.8,190.3,40.4,190.3,33.7z"/>
<path class="st10" d="M445,156.9c0-3.5,2.9-6.4,6.4-6.4c3.5,0,6.4,2.9,6.4,6.4c0,3.5-2.9,6.4-6.4,6.4
	C447.9,163.3,445,160.4,445,156.9z"/>
<path class="st10" d="M219.3,15.2c0-3.5,2.9-6.4,6.4-6.4c3.5,0,6.4,2.9,6.4,6.4c0,3.5-2.9,6.4-6.4,6.4
	C222.1,21.6,219.3,18.7,219.3,15.2z"/>
<path class="st13" d="M238.9,45.8c0-3.5,2.9-6.4,6.4-6.4c3.5,0,6.4,2.9,6.4,6.4c0,3.5-2.9,6.4-6.4,6.4
	C241.7,52.2,238.9,49.3,238.9,45.8z"/>
<polygon class="st12" points="26.6,266 29.5,275.4 38.9,278.4 29.5,281.3 26.6,290.7 23.7,281.3 14.3,278.4 23.3,275.4 "/>
<polygon class="st13" points="454.6,342.5 457.5,351.9 466.9,354.8 457.5,357.8 454.6,367.2 451.6,357.8 442.3,354.8 451.3,351.9 
	"/>
<polygon class="st10" points="164.4,0 168,11.6 179.6,15.2 168,18.8 164.4,30.4 160.7,18.8 149.2,15.2 160.3,11.6 "/>
<path class="st10" d="M256,437.2c-99.9,0-181.2-81.3-181.2-181.2c0-99.9,81.3-181.2,181.2-181.2c99.9,0,181.2,81.3,181.2,181.2
	C437.2,355.9,355.9,437.2,256,437.2z M256,89.1c-92,0-166.9,74.9-166.9,166.9S163.9,422.9,256,422.9c92,0,166.9-74.9,166.9-166.9
	S348,89.1,256,89.1z"/>
</svg>
