<?xml version="1.0" encoding="utf-8"?>
<!-- Generator: Adobe Illustrator 21.1.0, SVG Export Plug-In . SVG Version: 6.00 Build 0)  -->
<svg version="1.1" id="Layer_1" xmlns="http://www.w3.org/2000/svg" xmlns:xlink="http://www.w3.org/1999/xlink" x="0px" y="0px"
	 viewBox="0 0 512 512" style="enable-background:new 0 0 512 512;" xml:space="preserve">
<style type="text/css">
	.st0{fill:#2493C5;}
	.st1{fill:#0088BE;}
	.st2{fill:#FFD8AA;}
	.st3{fill:#FCC57F;}
	.st4{fill:#B2A0C7;}
	.st5{fill:#9E87B8;}
	.st6{fill:#9880BA;}
	.st7{fill:#8062A9;}
	.st8{fill:#FFE6C8;}
	.st9{fill:#F4DBAD;}
	.st10{fill:#6E4435;}
	.st11{fill:#DCD6EA;}
	.st12{fill:#F1F1F2;}
	.st13{fill:#FFDD15;}
	.st14{fill:#8BC53F;}
	.st15{fill:#F6921E;}
</style>
<g>
	<path class="st0" d="M88,256c0,92.8,75.2,168,168,168V88C163.2,88,88,163.2,88,256z"/>
	<g>
		<path class="st1" d="M424,256c0-92.8-75.2-168-168-168v336C348.8,424,424,348.8,424,256z"/>
		<g>
			<path class="st2" d="M228.6,268.8v50c0,0-6.2,7.9-8,13.1c-2.2,6.4,1.1,18.6,1.1,18.6l8,2.6c3.4,9.8,15.3,14.3,26.4,14.1l0.2-98.4
				H228.6z"/>
			<path class="st3" d="M293.1,342l-6.2-18.3c0,0-2.2-4.9-3.7-7.6v-77.3h-27v128.4c13.1-0.3,26.2-3.7,27-16h10.1V342z"/>
			<path class="st4" d="M225.3,330.8c0-5.7,0.7-7.4,3.3-12l-17.6,19.9c-7.1,3.5-15,7.9-23.9,13.7c-10.5,6.8-22.3,24.7-28.8,40.2
				c27.7,20.7,65.2,31.9,97.9,31.4v-61.9C239,361.9,225.3,347.9,225.3,330.8z"/>
			<polygon class="st3" points="282,293.1 282,283.2 228.4,283.2 228.4,319.7 			"/>
			<path class="st5" d="M323.5,352.4c-8.1-5.1-15.4-9.2-22.1-12.4l-18.2-23.9c1.7,3.9,4.5,10.1,4.5,14.7c0,17.3-14,31.3-31.2,31.3
				c-0.1,0-0.2,0-0.3,0V424c0.1,0,0.2,0,0.3,0c35.3,0,68.7-11.6,95.3-29.5C345.1,378.6,334.4,359.3,323.5,352.4z"/>
			<path class="st4" d="M228.6,318.8l27.5,1v47.5l-18,5.3l-13.7-5.3c0,0-1.7-13-1.5-13.8s0-25.9,0-25.9L228.6,318.8z"/>
			<path class="st5" d="M284.6,318.8l-28.5,1v47.5l18,5.3l13.7-5.3c0,0,1.7-13,1.5-13.8c-0.2-0.8,0-25.9,0-25.9L284.6,318.8z"/>
			<path class="st6" d="M215,304.9c-1.7,0-3,0.8-3,1.8v26.1c0,1,1.3,1.8,3,1.8h41.4v-29.7H215z"/>
			<path class="st7" d="M300.2,332.8v-26.1c0-1-1.3-1.8-3-1.8h-40.9v29.7h40.9C298.9,334.6,300.2,333.8,300.2,332.8z"/>
			<path class="st8" d="M256.1,314.1V164C142.9,164.2,188.7,313.7,256.1,314.1z"/>
			<path class="st9" d="M256.3,164c-0.1,0-0.1,0-0.2,0v150.1c0.1,0,0.1,0,0.2,0C323.9,314.1,370,164,256.3,164z"/>
			<path class="st10" d="M189,250.3c0,0-16.6-30.5-7.7-67.1c8.8-36.6,19.9-48.6,35.8-51.9c15.9-3.3,25.1-5.1,25.1-5.1
				s18.8-5.7,27.4-3.5c0,0,45.6,9.9,45.6,19.7s25.4,29,21.6,57.7c-3.8,28.7-15,50.2-15,50.2s0.3-24.2-0.9-40.7
				c-1.2-16.4-14.4-35.3-23.9-35.3c-9.5,0-14.8,17-14.8,17s-30.5-20.1-37.2-21.5c-16-3.3-30.5,5.5-30.5,5.5s-8.9,6-16.7,24.6
				C189,220.6,189,250.3,189,250.3z"/>
			<path class="st9" d="M329.3,215.6c4.1,0.9,5.8,9.4,3.7,19c-2.2,9.6-7.2,16.6-11.4,15.7c-4.2-0.9-5.8-9.4-3.7-19
				C320.1,221.7,325.2,214.7,329.3,215.6"/>
			<path class="st8" d="M181.2,215.6c-4.1,0.9-5.7,9.4-3.6,19c2.1,9.6,7.2,16.6,11.3,15.7c4.2-0.9,5.8-9.4,3.6-19
				C190.5,221.7,185.4,214.7,181.2,215.6"/>
			<path class="st11" d="M320.8,390.7c-0.5,0-1-0.1-1.4-0.4l-23.2-15.8L279,389.3l-23.2-16.2l-21.6,16.2l-15.5-13l-29.4,12.2
				c-1.3,0.5-2.7-0.1-3.2-1.3c-0.5-1.3,0.1-2.7,1.3-3.2l32.2-13.3l14.7,12.4l21.4-16l23,16.1l17.2-14.8l26.3,17.9
				c1.1,0.8,1.4,2.3,0.7,3.5C322.4,390.3,321.6,390.7,320.8,390.7z"/>
			<polygon class="st10" points="228.4,167.7 261.6,188.4 240.3,164 			"/>
			<polygon class="st10" points="208.8,167.7 242,188.4 220.8,164 			"/>
		</g>
	</g>
</g>
<path class="st12" d="M261,466.2h-73.3l-0.7-0.5c-14.2-9.7-27.1-0.2-27.2-0.1l-0.7,0.5H91.9c-1.4,0-2.6-1.2-2.6-2.6s1.2-2.6,2.6-2.6
	h65.6c3.3-2.1,17-9.6,31.8,0H261c1.4,0,2.6,1.2,2.6,2.6S262.4,466.2,261,466.2z"/>
<path class="st12" d="M314.9,466.2h-44.6c-1.4,0-2.6-1.2-2.6-2.6s1.2-2.6,2.6-2.6h44.6c1.4,0,2.6,1.2,2.6,2.6
	S316.4,466.2,314.9,466.2z"/>
<path class="st12" d="M420.5,466.2h-72.2c-1.4,0-2.6-1.2-2.6-2.6s1.2-2.6,2.6-2.6h72.2c1.4,0,2.6,1.2,2.6,2.6S422,466.2,420.5,466.2
	z"/>
<path class="st12" d="M337.4,466.2h-15.1c-1.4,0-2.6-1.2-2.6-2.6s1.2-2.6,2.6-2.6h15.1c1.4,0,2.6,1.2,2.6,2.6
	S338.9,466.2,337.4,466.2z"/>
<path class="st12" d="M221.3,496.4h-76.3c-1.4,0-2.6-1.2-2.6-2.6c0-1.4,1.2-2.6,2.6-2.6h76.3c1.4,0,2.6,1.2,2.6,2.6
	C223.9,495.3,222.7,496.4,221.3,496.4z"/>
<path class="st12" d="M373.5,496.4H263.4c-1.4,0-2.6-1.2-2.6-2.6c0-1.4,1.2-2.6,2.6-2.6h110.1c1.4,0,2.6,1.2,2.6,2.6
	C376.1,495.3,374.9,496.4,373.5,496.4z"/>
<path class="st12" d="M248.1,496.4h-15.1c-1.4,0-2.6-1.2-2.6-2.6c0-1.4,1.2-2.6,2.6-2.6h15.1c1.4,0,2.6,1.2,2.6,2.6
	C250.7,495.3,249.6,496.4,248.1,496.4z"/>
<g>
	<path class="st12" d="M452.5,228h31.1c1.6,0,2.9,1.3,2.9,2.9v0c0,1.6-1.3,2.9-2.9,2.9h-31.1c-1.6,0-2.9-1.3-2.9-2.9v0
		C449.6,229.3,450.9,228,452.5,228z"/>
</g>
<path class="st12" d="M503.4,228h-8.7c-1.6,0-2.9,1.3-2.9,2.9v0c0,1.6,1.3,2.9,2.9,2.9h8.7c1.6,0,2.9-1.3,2.9-2.9v0
	C506.3,229.3,505,228,503.4,228z"/>
<path class="st12" d="M4.1,351.9h31.1c1.6,0,2.9,1.3,2.9,2.9l0,0c0,1.6-1.3,2.9-2.9,2.9H4.1c-1.6,0-2.9-1.3-2.9-2.9l0,0
	C1.2,353.2,2.5,351.9,4.1,351.9z"/>
<path class="st12" d="M55,351.9h-8.7c-1.6,0-2.9,1.3-2.9,2.9l0,0c0,1.6,1.3,2.9,2.9,2.9H55c1.6,0,2.9-1.3,2.9-2.9l0,0
	C57.9,353.2,56.6,351.9,55,351.9z"/>
<path class="st12" d="M72.4,67.7h31.1c1.6,0,2.9,1.3,2.9,2.9l0,0c0,1.6-1.3,2.9-2.9,2.9H72.4c-1.6,0-2.9-1.3-2.9-2.9l0,0
	C69.5,69,70.8,67.7,72.4,67.7z"/>
<path class="st12" d="M123.2,67.7h-8.7c-1.6,0-2.9,1.3-2.9,2.9l0,0c0,1.6,1.3,2.9,2.9,2.9h8.7c1.6,0,2.9-1.3,2.9-2.9l0,0
	C126.1,69,124.8,67.7,123.2,67.7z"/>
<path class="st12" d="M58.2,128.5H28.7c-1.1,0-2.1-0.9-2.1-2.1l0,0c0-1.1,0.9-2.1,2.1-2.1h29.6c1.1,0,2.1,0.9,2.1,2.1l0,0
	C60.3,127.6,59.4,128.5,58.2,128.5z"/>
<path class="st12" d="M45.5,111.6v29.6c0,1.1-0.9,2.1-2.1,2.1h0c-1.1,0-2.1-0.9-2.1-2.1v-29.6c0-1.1,0.9-2.1,2.1-2.1h0
	C44.6,109.6,45.5,110.5,45.5,111.6z"/>
<path class="st12" d="M462.5,109.6H433c-1.1,0-2.1-0.9-2.1-2.1l0,0c0-1.1,0.9-2.1,2.1-2.1h29.6c1.1,0,2.1,0.9,2.1,2.1l0,0
	C464.6,108.6,463.7,109.6,462.5,109.6z"/>
<path class="st12" d="M449.8,92.7v29.6c0,1.1-0.9,2.1-2.1,2.1l0,0c-1.1,0-2.1-0.9-2.1-2.1V92.7c0-1.1,0.9-2.1,2.1-2.1l0,0
	C448.9,90.6,449.8,91.6,449.8,92.7z"/>
<path class="st12" d="M495.2,298.6h-20.7c-0.8,0-1.4-0.6-1.4-1.4l0,0c0-0.8,0.6-1.4,1.4-1.4h20.7c0.8,0,1.4,0.6,1.4,1.4l0,0
	C496.7,297.9,496,298.6,495.2,298.6z"/>
<path class="st12" d="M486.3,286.8v20.7c0,0.8-0.6,1.4-1.4,1.4l0,0c-0.8,0-1.4-0.6-1.4-1.4v-20.7c0-0.8,0.6-1.4,1.4-1.4l0,0
	C485.7,285.3,486.3,286,486.3,286.8z"/>
<path class="st13" d="M356.1,35.1h-20.7c-0.8,0-1.4-0.6-1.4-1.4v0c0-0.8,0.6-1.4,1.4-1.4h20.7c0.8,0,1.4,0.6,1.4,1.4v0
	C357.6,34.5,356.9,35.1,356.1,35.1z"/>
<path class="st13" d="M347.2,23.3v20.8c0,0.8-0.6,1.4-1.4,1.4l0,0c-0.8,0-1.4-0.6-1.4-1.4V23.3c0-0.8,0.6-1.4,1.4-1.4l0,0
	C346.5,21.9,347.2,22.5,347.2,23.3z"/>
<path class="st12" d="M30.5,216.4c0,8-6.5,14.4-14.4,14.4c-7.9,0-14.4-6.4-14.4-14.4c0-7.9,6.5-14.4,14.4-14.4
	C24.1,202,30.5,208.4,30.5,216.4z"/>
<path class="st13" d="M63.2,177c0,5-4,9-9,9c-4.9,0-9-4-9-9c0-5,4-9,9-9C59.2,168,63.2,172,63.2,177z"/>
<circle class="st13" cx="457.9" cy="272.9" r="4.5"/>
<path class="st12" d="M496.8,260.4c0,2.5-2,4.5-4.5,4.5c-2.5,0-4.6-2-4.6-4.5c0-2.5,2-4.6,4.6-4.6
	C494.7,255.9,496.8,257.9,496.8,260.4z"/>
<path class="st12" d="M374.5,86.6c0-6.7,5.4-12.1,12.1-12.1c6.7,0,12.1,5.4,12.1,12.1c0,6.7-5.4,12.1-12.1,12.1
	C379.9,98.7,374.5,93.2,374.5,86.6z"/>
<path class="st14" d="M190.3,33.7c0-6.7,5.4-12.1,12.1-12.1c6.7,0,12.1,5.4,12.1,12.1s-5.4,12.1-12.1,12.1
	C195.7,45.8,190.3,40.4,190.3,33.7z"/>
<path class="st12" d="M445,156.9c0-3.5,2.9-6.4,6.4-6.4c3.5,0,6.4,2.9,6.4,6.4c0,3.5-2.9,6.4-6.4,6.4
	C447.9,163.3,445,160.4,445,156.9z"/>
<path class="st12" d="M219.3,15.2c0-3.5,2.9-6.4,6.4-6.4c3.5,0,6.4,2.9,6.4,6.4c0,3.5-2.9,6.4-6.4,6.4
	C222.1,21.6,219.3,18.7,219.3,15.2z"/>
<path class="st15" d="M238.9,45.8c0-3.5,2.9-6.4,6.4-6.4c3.5,0,6.4,2.9,6.4,6.4c0,3.5-2.9,6.4-6.4,6.4
	C241.7,52.2,238.9,49.3,238.9,45.8z"/>
<polygon class="st14" points="26.6,266 29.5,275.4 38.9,278.4 29.5,281.3 26.6,290.7 23.7,281.3 14.3,278.4 23.3,275.4 "/>
<polygon class="st15" points="454.6,342.5 457.5,351.9 466.9,354.8 457.5,357.8 454.6,367.2 451.6,357.8 442.3,354.8 451.3,351.9 
	"/>
<polygon class="st12" points="164.4,0 168,11.6 179.6,15.2 168,18.8 164.4,30.4 160.7,18.8 149.2,15.2 160.3,11.6 "/>
<path class="st12" d="M256,437.2c-99.9,0-181.2-81.3-181.2-181.2c0-99.9,81.3-181.2,181.2-181.2c99.9,0,181.2,81.3,181.2,181.2
	C437.2,355.9,355.9,437.2,256,437.2z M256,89.1c-92,0-166.9,74.9-166.9,166.9S163.9,422.9,256,422.9c92,0,166.9-74.9,166.9-166.9
	S348,89.1,256,89.1z"/>
</svg>
