<?xml version="1.0" encoding="utf-8"?>
<!-- Generator: Adobe Illustrator 21.1.0, SVG Export Plug-In . SVG Version: 6.00 Build 0)  -->
<svg version="1.1" id="Layer_1" xmlns="http://www.w3.org/2000/svg" xmlns:xlink="http://www.w3.org/1999/xlink" x="0px" y="0px"
	 viewBox="0 0 512 512" style="enable-background:new 0 0 512 512;" xml:space="preserve">
<style type="text/css">
	.st0{fill:#EDBC1F;}
	.st1{fill:#DAAE2A;}
	.st2{fill:#5C55A3;}
	.st3{fill:#45407A;}
	.st4{fill:#FCC57F;}
	.st5{fill:#FFD8AA;}
	.st6{fill:#FFE6C8;}
	.st7{fill:#F4DBAD;}
	.st8{fill:#FFFFFF;}
	.st9{fill:#F6AFC0;}
	.st10{fill:#EF6490;}
	.st11{fill:#F1F1F2;}
	.st12{fill:#FFDD15;}
	.st13{fill:#8BC53F;}
	.st14{fill:#F6921E;}
</style>
<path class="st0" d="M88.5,256c0,92.3,74.7,167.2,166.9,167.5v-335C163.2,88.8,88.5,163.7,88.5,256z"/>
<path class="st1" d="M423.5,256c0-92.5-75-167.5-167.5-167.5c-0.2,0-0.4,0-0.5,0v335c0.2,0,0.4,0,0.5,0
	C348.5,423.5,423.5,348.5,423.5,256z"/>
<g>
	<g>
		<path class="st2" d="M254.7,134.6c-44.2,0-80,35.8-80,80l-17.6,158c0,44.2,53.4,34.7,97.6,34.7c0.3,0,0.5,0,0.8,0V134.7
			C255.2,134.7,254.9,134.6,254.7,134.6z"/>
		<path class="st3" d="M351.5,366l-16.8-151.4c0-43.9-35.4-79.6-79.2-80v272.7C299.5,407.4,351.5,410,351.5,366z"/>
	</g>
	<polygon class="st4" points="280.6,297 280.6,287.5 228.7,287.5 228.7,322.8 	"/>
	<path class="st5" d="M229,273.5v48.3c0,0-6,7.6-7.7,12.6c-2.1,6.2,1,18,1,18l-10.4,29.5c3.4,9.4,32.9,18.1,43.6,17.9V273.5H229z"/>
	<path class="st4" d="M299.3,342.3l-14.1-16c0,0-1.2-5.3-3.5-7.1v-74.7h-26.1v158.3c12.6-0.3,38.2,4.6,38.9-7.2l11-41.6L299.3,342.3
		z"/>
	<path class="st6" d="M255.5,317.3V188.9c-20.9,0.1-36.2,4.8-46.8,12.4C163.9,233.4,202.9,317,255.5,317.3z"/>
	<path class="st7" d="M255.7,188.9c-0.1,0-0.1,0-0.2,0v128.4c0.1,0,0.1,0,0.2,0C321,317.3,365.5,188.9,255.7,188.9z"/>
	<path class="st7" d="M326.3,229.7c4,0.9,5.6,9.1,3.5,18.4c-2.1,9.3-7,16-11,15.1c-4-0.9-5.6-9.1-3.5-18.3
		C317.4,235.6,322.3,228.8,326.3,229.7"/>
	<path class="st6" d="M183.3,227.8c-4,0.9-5.6,9.1-3.5,18.4c2,9.3,6.9,16,10.9,15.1c4-0.9,5.6-9.1,3.5-18.3
		C192.1,233.7,187.3,226.9,183.3,227.8"/>
	<path class="st8" d="M225.7,333.4c0-5.5,0.7-7.1,3.2-11.5l-17,19.2c-6.9,3.4-14.5,7.7-23.1,13.2c-10.1,6.6-21.2,25.5-27.5,40.4
		c25.8,18.3,62.6,29.6,94.2,28.7v-34.2C239.1,389,225.7,350,225.7,333.4z"/>
	<path class="st8" d="M320.6,354.3c-7.9-4.9-14.9-8.8-21.3-12l-7.6-10.6l-10-12.4c1.7,3.8,4.3,9.8,4.3,14.1
		c0,16.7-13.5,55.8-30.1,55.8c-0.1,0-0.2,0-0.4,0v34.2c0.1,0,0.2,0,0.4,0c34.1,0,67.1-10.6,92.7-27.8
		C342.2,380.2,331.2,360.9,320.6,354.3z"/>
	<path class="st2" d="M192.5,224.9c22.1,10.5,44.9,2.7,63-8.7v-36C235.5,184.7,150.2,204.9,192.5,224.9z"/>
	<path class="st3" d="M290.8,185.4v-1.5l-31.3-4.4c0,0-1.5-45.3-4.1-44.8v81.6C276.3,203.2,290.8,185.4,290.8,185.4z"/>
	<path class="st3" d="M276.4,178c0,0,26.8,62.1,52,39.6c25.2-22.6-35.4-45.5-35.4-45.5l-16.5,4.4V178z"/>
	<path class="st9" d="M225.7,333.4c0-5.5,0.7-7.1,3.2-11.5l-17,19.2c-6.9,3.4-14.5,7.7-23.1,13.2c-4,2.6-8.2,7.2-12.3,12.8
		l17.1,44.8c21.2,8.1,42.3,12.1,61.9,11.5v-34.2C239.1,389,225.7,350,225.7,333.4z"/>
	<path class="st10" d="M336.3,372c-4.9-7.7-10.4-14.4-15.7-17.7c-7.9-4.9-14.9-8.8-21.3-12l-7.6-10.6l-10-12.4
		c1.7,3.8,4.3,9.8,4.3,14.1c0,16.7-13.5,55.8-30.1,55.8c-0.1,0-0.2,0-0.4,0v34.2c0.1,0,0.2,0,0.4,0c21,0.6,47.2-4.9,65.9-13.3
		L336.3,372z"/>
</g>
<path class="st11" d="M261,466.2h-73.3l-0.7-0.5c-14.2-9.7-27.1-0.2-27.2-0.1l-0.7,0.5H91.9c-1.4,0-2.6-1.2-2.6-2.6s1.2-2.6,2.6-2.6
	h65.6c3.3-2.1,17-9.6,31.8,0H261c1.4,0,2.6,1.2,2.6,2.6S262.4,466.2,261,466.2z"/>
<path class="st11" d="M314.9,466.2h-44.6c-1.4,0-2.6-1.2-2.6-2.6s1.2-2.6,2.6-2.6h44.6c1.4,0,2.6,1.2,2.6,2.6
	S316.4,466.2,314.9,466.2z"/>
<path class="st11" d="M420.5,466.2h-72.2c-1.4,0-2.6-1.2-2.6-2.6s1.2-2.6,2.6-2.6h72.2c1.4,0,2.6,1.2,2.6,2.6S422,466.2,420.5,466.2
	z"/>
<path class="st11" d="M337.4,466.2h-15.1c-1.4,0-2.6-1.2-2.6-2.6s1.2-2.6,2.6-2.6h15.1c1.4,0,2.6,1.2,2.6,2.6
	S338.9,466.2,337.4,466.2z"/>
<path class="st11" d="M221.3,496.4h-76.3c-1.4,0-2.6-1.2-2.6-2.6c0-1.4,1.2-2.6,2.6-2.6h76.3c1.4,0,2.6,1.2,2.6,2.6
	C223.9,495.3,222.7,496.4,221.3,496.4z"/>
<path class="st11" d="M373.5,496.4H263.4c-1.4,0-2.6-1.2-2.6-2.6c0-1.4,1.2-2.6,2.6-2.6h110.1c1.4,0,2.6,1.2,2.6,2.6
	C376.1,495.3,374.9,496.4,373.5,496.4z"/>
<path class="st11" d="M248.1,496.4h-15.1c-1.4,0-2.6-1.2-2.6-2.6c0-1.4,1.2-2.6,2.6-2.6h15.1c1.4,0,2.6,1.2,2.6,2.6
	C250.7,495.3,249.6,496.4,248.1,496.4z"/>
<g>
	<path class="st11" d="M452.5,228h31.1c1.6,0,2.9,1.3,2.9,2.9v0c0,1.6-1.3,2.9-2.9,2.9h-31.1c-1.6,0-2.9-1.3-2.9-2.9v0
		C449.6,229.3,450.9,228,452.5,228z"/>
</g>
<path class="st11" d="M503.4,228h-8.7c-1.6,0-2.9,1.3-2.9,2.9v0c0,1.6,1.3,2.9,2.9,2.9h8.7c1.6,0,2.9-1.3,2.9-2.9v0
	C506.3,229.3,505,228,503.4,228z"/>
<path class="st11" d="M4.1,351.9h31.1c1.6,0,2.9,1.3,2.9,2.9l0,0c0,1.6-1.3,2.9-2.9,2.9H4.1c-1.6,0-2.9-1.3-2.9-2.9l0,0
	C1.2,353.2,2.5,351.9,4.1,351.9z"/>
<path class="st11" d="M55,351.9h-8.7c-1.6,0-2.9,1.3-2.9,2.9l0,0c0,1.6,1.3,2.9,2.9,2.9H55c1.6,0,2.9-1.3,2.9-2.9l0,0
	C57.9,353.2,56.6,351.9,55,351.9z"/>
<path class="st11" d="M72.4,67.7h31.1c1.6,0,2.9,1.3,2.9,2.9l0,0c0,1.6-1.3,2.9-2.9,2.9H72.4c-1.6,0-2.9-1.3-2.9-2.9l0,0
	C69.5,69,70.8,67.7,72.4,67.7z"/>
<path class="st11" d="M123.2,67.7h-8.7c-1.6,0-2.9,1.3-2.9,2.9l0,0c0,1.6,1.3,2.9,2.9,2.9h8.7c1.6,0,2.9-1.3,2.9-2.9l0,0
	C126.1,69,124.8,67.7,123.2,67.7z"/>
<path class="st11" d="M58.2,128.5H28.7c-1.1,0-2.1-0.9-2.1-2.1l0,0c0-1.1,0.9-2.1,2.1-2.1h29.6c1.1,0,2.1,0.9,2.1,2.1l0,0
	C60.3,127.6,59.4,128.5,58.2,128.5z"/>
<path class="st11" d="M45.5,111.6v29.6c0,1.1-0.9,2.1-2.1,2.1h0c-1.1,0-2.1-0.9-2.1-2.1v-29.6c0-1.1,0.9-2.1,2.1-2.1h0
	C44.6,109.6,45.5,110.5,45.5,111.6z"/>
<path class="st11" d="M462.5,109.6H433c-1.1,0-2.1-0.9-2.1-2.1l0,0c0-1.1,0.9-2.1,2.1-2.1h29.6c1.1,0,2.1,0.9,2.1,2.1l0,0
	C464.6,108.6,463.7,109.6,462.5,109.6z"/>
<path class="st11" d="M449.8,92.7v29.6c0,1.1-0.9,2.1-2.1,2.1l0,0c-1.1,0-2.1-0.9-2.1-2.1V92.7c0-1.1,0.9-2.1,2.1-2.1l0,0
	C448.9,90.6,449.8,91.6,449.8,92.7z"/>
<path class="st11" d="M495.2,298.6h-20.7c-0.8,0-1.4-0.6-1.4-1.4l0,0c0-0.8,0.6-1.4,1.4-1.4h20.7c0.8,0,1.4,0.6,1.4,1.4l0,0
	C496.7,297.9,496,298.6,495.2,298.6z"/>
<path class="st11" d="M486.3,286.8v20.7c0,0.8-0.6,1.4-1.4,1.4l0,0c-0.8,0-1.4-0.6-1.4-1.4v-20.7c0-0.8,0.6-1.4,1.4-1.4l0,0
	C485.7,285.3,486.3,286,486.3,286.8z"/>
<path class="st12" d="M356.1,35.1h-20.7c-0.8,0-1.4-0.6-1.4-1.4v0c0-0.8,0.6-1.4,1.4-1.4h20.7c0.8,0,1.4,0.6,1.4,1.4v0
	C357.6,34.5,356.9,35.1,356.1,35.1z"/>
<path class="st12" d="M347.2,23.3v20.8c0,0.8-0.6,1.4-1.4,1.4l0,0c-0.8,0-1.4-0.6-1.4-1.4V23.3c0-0.8,0.6-1.4,1.4-1.4l0,0
	C346.5,21.9,347.2,22.5,347.2,23.3z"/>
<path class="st11" d="M30.5,216.4c0,8-6.5,14.4-14.4,14.4c-7.9,0-14.4-6.4-14.4-14.4c0-7.9,6.5-14.4,14.4-14.4
	C24.1,202,30.5,208.4,30.5,216.4z"/>
<path class="st12" d="M63.2,177c0,5-4,9-9,9c-4.9,0-9-4-9-9c0-5,4-9,9-9C59.2,168,63.2,172,63.2,177z"/>
<circle class="st12" cx="457.9" cy="272.9" r="4.5"/>
<path class="st11" d="M496.8,260.4c0,2.5-2,4.5-4.5,4.5c-2.5,0-4.6-2-4.6-4.5c0-2.5,2-4.6,4.6-4.6
	C494.7,255.9,496.8,257.9,496.8,260.4z"/>
<path class="st11" d="M374.5,86.6c0-6.7,5.4-12.1,12.1-12.1c6.7,0,12.1,5.4,12.1,12.1c0,6.7-5.4,12.1-12.1,12.1
	C379.9,98.7,374.5,93.2,374.5,86.6z"/>
<path class="st13" d="M190.3,33.7c0-6.7,5.4-12.1,12.1-12.1c6.7,0,12.1,5.4,12.1,12.1s-5.4,12.1-12.1,12.1
	C195.7,45.8,190.3,40.4,190.3,33.7z"/>
<path class="st11" d="M445,156.9c0-3.5,2.9-6.4,6.4-6.4c3.5,0,6.4,2.9,6.4,6.4c0,3.5-2.9,6.4-6.4,6.4
	C447.9,163.3,445,160.4,445,156.9z"/>
<path class="st11" d="M219.3,15.2c0-3.5,2.9-6.4,6.4-6.4c3.5,0,6.4,2.9,6.4,6.4c0,3.5-2.9,6.4-6.4,6.4
	C222.1,21.6,219.3,18.7,219.3,15.2z"/>
<path class="st14" d="M238.9,45.8c0-3.5,2.9-6.4,6.4-6.4c3.5,0,6.4,2.9,6.4,6.4c0,3.5-2.9,6.4-6.4,6.4
	C241.7,52.2,238.9,49.3,238.9,45.8z"/>
<polygon class="st13" points="26.6,266 29.5,275.4 38.9,278.4 29.5,281.3 26.6,290.7 23.7,281.3 14.3,278.4 23.3,275.4 "/>
<polygon class="st14" points="454.6,342.5 457.5,351.9 466.9,354.8 457.5,357.8 454.6,367.2 451.6,357.8 442.3,354.8 451.3,351.9 
	"/>
<polygon class="st11" points="164.4,0 168,11.6 179.6,15.2 168,18.8 164.4,30.4 160.7,18.8 149.2,15.2 160.3,11.6 "/>
<path class="st11" d="M256.4,437.1c-99.9,0-181.2-81.3-181.2-181.2c0-99.9,81.3-181.2,181.2-181.2c99.9,0,181.2,81.3,181.2,181.2
	C437.6,355.8,356.3,437.1,256.4,437.1z M256.4,88.9c-92,0-166.9,74.9-166.9,166.9s74.9,166.9,166.9,166.9
	c92,0,166.9-74.9,166.9-166.9S348.5,88.9,256.4,88.9z"/>
</svg>
