<?xml version="1.0" encoding="utf-8"?>
<!-- Generator: Adobe Illustrator 21.1.0, SVG Export Plug-In . SVG Version: 6.00 Build 0)  -->
<svg version="1.1" id="Layer_1" xmlns="http://www.w3.org/2000/svg" xmlns:xlink="http://www.w3.org/1999/xlink" x="0px" y="0px"
	 viewBox="0 0 512 512" style="enable-background:new 0 0 512 512;" xml:space="preserve">
<style type="text/css">
	.st0{fill:#2695A3;}
	.st1{fill:#319197;}
	.st2{fill:#79C043;}
	.st3{fill:#FCC57F;}
	.st4{fill:#FFD8AA;}
	.st5{fill:#FFE6C8;}
	.st6{fill:#F4DBAD;}
	.st7{fill:#FFFFFF;}
	.st8{fill:#F9AD76;}
	.st9{fill:#C38C63;}
	.st10{fill:#F1F1F2;}
	.st11{fill:#FFDD15;}
	.st12{fill:#8BC53F;}
	.st13{fill:#F6921E;}
</style>
<g>
	<path class="st0" d="M88,256c0,92.5,74.8,167.6,167.2,168V88C162.8,88.4,88,163.5,88,256z"/>
	<path class="st1" d="M424,256c0-92.8-75.2-168-168-168c-0.3,0-0.5,0-0.8,0v336c0.3,0,0.5,0,0.8,0C348.8,424,424,348.8,424,256z"/>
	<g>
		<path class="st2" d="M332.5,331.4c0,42.5-34.5,77-77,77l0,0c-42.5,0-77-34.5-77-77V223c0-42.5,34.5-77,77-77l0,0
			c42.5,0,77,34.5,77,77V331.4z"/>
		<polygon class="st3" points="280.4,302.3 280.4,293 230.5,293 230.5,327 		"/>
		<path class="st4" d="M230.8,279.6v46.5c0,0-5.8,7.3-7.4,12.2c-2,6,1,17.3,1,17.3l-10,28.4c3.2,9.1,31.7,17.5,42,17.2V279.6H230.8z
			"/>
		<path class="st3" d="M298.4,345.8l-13.6-15.4c0,0-1.2-5.1-3.3-6.8v-71.9h-25.1v152.5c12.2-0.3,36.7,4.4,37.5-6.9l10.6-40.1
			L298.4,345.8z"/>
		<path class="st5" d="M256.3,321.7V198.1c-20.1,0.1-34.9,4.6-45.1,11.9C168,241,205.6,321.5,256.3,321.7z"/>
		<path class="st6" d="M256.5,198.1c-0.1,0-0.1,0-0.2,0v123.6c0.1,0,0.1,0,0.2,0C319.3,321.7,362.2,198.1,256.5,198.1z"/>
		<path class="st6" d="M324.4,237.4c3.9,0.9,5.4,8.8,3.4,17.7c-2,8.9-6.7,15.4-10.6,14.6c-3.9-0.8-5.4-8.8-3.4-17.7
			C315.8,243.1,320.5,236.6,324.4,237.4"/>
		<path class="st5" d="M186.7,235.6c-3.8,0.9-5.4,8.8-3.4,17.7c2,8.9,6.7,15.4,10.5,14.6c3.9-0.8,5.4-8.7,3.4-17.7
			C195.3,241.3,190.5,234.7,186.7,235.6"/>
		<path class="st7" d="M230.7,326.1c0,0-1.3,20,24.8,20c26,0,26-22.5,26-22.5l8,21.1v24c0,0-16.2,8.2-17.5,8.2
			c-1.4,0-30.5-4.4-30.5-4.4l-9.2-7.5l-9.9-12.7l2-14L230.7,326.1z"/>
		<g>
			<path class="st8" d="M227.6,337.2c0-5.3,0.7-6.8,3.1-11.1l-16.4,18.5c-6.7,3.2-14,7.4-22.2,12.8c-9.7,6.3-21.4,25.6-27.5,39.9
				c24.9,17.6,61.3,27.5,91.7,26.6v-57.6C240.4,366.2,227.6,353.2,227.6,337.2z"/>
			<path class="st9" d="M318.9,357.4c-7.6-4.7-14.3-8.5-20.5-11.5l-7.3-10.3l-9.7-12c1.6,3.6,4.2,9.4,4.2,13.6
				c0,16.1-13,29.1-29,29.1c-0.1,0-0.2,0-0.3,0v57.6c0.1,0,0.2,0,0.3,0c32.8,0,64.6-9.8,89.3-26.4
				C339.8,382.7,329.1,363.8,318.9,357.4z"/>
			<path class="st7" d="M260.9,413.5c0,2.6-2.1,4.6-4.6,4.6l0,0c-2.6,0-4.6-2.1-4.6-4.6l0,0c0-2.6,2.1-4.6,4.6-4.6l0,0
				C258.8,408.9,260.9,410.9,260.9,413.5L260.9,413.5z"/>
			<path class="st7" d="M256.3,394.2c2.6,0,4.6,2.1,4.6,4.6l0,0c0,2.6-2.1,4.6-4.6,4.6l0,0c-2.6,0-4.6-2.1-4.6-4.6l0,0
				C251.6,396.3,253.7,394.2,256.3,394.2L256.3,394.2z"/>
			<path class="st7" d="M260.9,385.1c0,2.6-2.1,4.6-4.6,4.6l0,0c-2.6,0-4.6-2.1-4.6-4.6l0,0c0-2.6,2.1-4.6,4.6-4.6l0,0
				C258.8,380.4,260.9,382.5,260.9,385.1L260.9,385.1z"/>
		</g>
		<path class="st2" d="M258.1,194.7c0,0-34,59.8-66,38.1s45-43.8,45-43.8l21,4.3"/>
		<path class="st2" d="M254.4,194.7c0,0,34,59.8,66,38.1c32-21.7-45-43.8-45-43.8l-21,4.3"/>
	</g>
</g>
<path class="st10" d="M261,466.2h-73.3l-0.7-0.5c-14.2-9.7-27.1-0.2-27.2-0.1l-0.7,0.5H91.9c-1.4,0-2.6-1.2-2.6-2.6s1.2-2.6,2.6-2.6
	h65.6c3.3-2.1,17-9.6,31.8,0H261c1.4,0,2.6,1.2,2.6,2.6S262.4,466.2,261,466.2z"/>
<path class="st10" d="M314.9,466.2h-44.6c-1.4,0-2.6-1.2-2.6-2.6s1.2-2.6,2.6-2.6h44.6c1.4,0,2.6,1.2,2.6,2.6
	S316.4,466.2,314.9,466.2z"/>
<path class="st10" d="M420.5,466.2h-72.2c-1.4,0-2.6-1.2-2.6-2.6s1.2-2.6,2.6-2.6h72.2c1.4,0,2.6,1.2,2.6,2.6S422,466.2,420.5,466.2
	z"/>
<path class="st10" d="M337.4,466.2h-15.1c-1.4,0-2.6-1.2-2.6-2.6s1.2-2.6,2.6-2.6h15.1c1.4,0,2.6,1.2,2.6,2.6
	S338.9,466.2,337.4,466.2z"/>
<path class="st10" d="M221.3,496.4h-76.3c-1.4,0-2.6-1.2-2.6-2.6c0-1.4,1.2-2.6,2.6-2.6h76.3c1.4,0,2.6,1.2,2.6,2.6
	C223.9,495.3,222.7,496.4,221.3,496.4z"/>
<path class="st10" d="M373.5,496.4H263.4c-1.4,0-2.6-1.2-2.6-2.6c0-1.4,1.2-2.6,2.6-2.6h110.1c1.4,0,2.6,1.2,2.6,2.6
	C376.1,495.3,374.9,496.4,373.5,496.4z"/>
<path class="st10" d="M248.1,496.4h-15.1c-1.4,0-2.6-1.2-2.6-2.6c0-1.4,1.2-2.6,2.6-2.6h15.1c1.4,0,2.6,1.2,2.6,2.6
	C250.7,495.3,249.6,496.4,248.1,496.4z"/>
<g>
	<path class="st10" d="M452.5,228h31.1c1.6,0,2.9,1.3,2.9,2.9v0c0,1.6-1.3,2.9-2.9,2.9h-31.1c-1.6,0-2.9-1.3-2.9-2.9v0
		C449.6,229.3,450.9,228,452.5,228z"/>
</g>
<path class="st10" d="M503.4,228h-8.7c-1.6,0-2.9,1.3-2.9,2.9v0c0,1.6,1.3,2.9,2.9,2.9h8.7c1.6,0,2.9-1.3,2.9-2.9v0
	C506.3,229.3,505,228,503.4,228z"/>
<path class="st10" d="M4.1,351.9h31.1c1.6,0,2.9,1.3,2.9,2.9l0,0c0,1.6-1.3,2.9-2.9,2.9H4.1c-1.6,0-2.9-1.3-2.9-2.9l0,0
	C1.2,353.2,2.5,351.9,4.1,351.9z"/>
<path class="st10" d="M55,351.9h-8.7c-1.6,0-2.9,1.3-2.9,2.9l0,0c0,1.6,1.3,2.9,2.9,2.9H55c1.6,0,2.9-1.3,2.9-2.9l0,0
	C57.9,353.2,56.6,351.9,55,351.9z"/>
<path class="st10" d="M72.4,67.7h31.1c1.6,0,2.9,1.3,2.9,2.9l0,0c0,1.6-1.3,2.9-2.9,2.9H72.4c-1.6,0-2.9-1.3-2.9-2.9l0,0
	C69.5,69,70.8,67.7,72.4,67.7z"/>
<path class="st10" d="M123.2,67.7h-8.7c-1.6,0-2.9,1.3-2.9,2.9l0,0c0,1.6,1.3,2.9,2.9,2.9h8.7c1.6,0,2.9-1.3,2.9-2.9l0,0
	C126.1,69,124.8,67.7,123.2,67.7z"/>
<path class="st10" d="M58.2,128.5H28.7c-1.1,0-2.1-0.9-2.1-2.1l0,0c0-1.1,0.9-2.1,2.1-2.1h29.6c1.1,0,2.1,0.9,2.1,2.1l0,0
	C60.3,127.6,59.4,128.5,58.2,128.5z"/>
<path class="st10" d="M45.5,111.6v29.6c0,1.1-0.9,2.1-2.1,2.1h0c-1.1,0-2.1-0.9-2.1-2.1v-29.6c0-1.1,0.9-2.1,2.1-2.1h0
	C44.6,109.6,45.5,110.5,45.5,111.6z"/>
<path class="st10" d="M462.5,109.6H433c-1.1,0-2.1-0.9-2.1-2.1l0,0c0-1.1,0.9-2.1,2.1-2.1h29.6c1.1,0,2.1,0.9,2.1,2.1l0,0
	C464.6,108.6,463.7,109.6,462.5,109.6z"/>
<path class="st10" d="M449.8,92.7v29.6c0,1.1-0.9,2.1-2.1,2.1l0,0c-1.1,0-2.1-0.9-2.1-2.1V92.7c0-1.1,0.9-2.1,2.1-2.1l0,0
	C448.9,90.6,449.8,91.6,449.8,92.7z"/>
<path class="st10" d="M495.2,298.6h-20.7c-0.8,0-1.4-0.6-1.4-1.4l0,0c0-0.8,0.6-1.4,1.4-1.4h20.7c0.8,0,1.4,0.6,1.4,1.4l0,0
	C496.7,297.9,496,298.6,495.2,298.6z"/>
<path class="st10" d="M486.3,286.8v20.7c0,0.8-0.6,1.4-1.4,1.4l0,0c-0.8,0-1.4-0.6-1.4-1.4v-20.7c0-0.8,0.6-1.4,1.4-1.4l0,0
	C485.7,285.3,486.3,286,486.3,286.8z"/>
<path class="st11" d="M356.1,35.1h-20.7c-0.8,0-1.4-0.6-1.4-1.4v0c0-0.8,0.6-1.4,1.4-1.4h20.7c0.8,0,1.4,0.6,1.4,1.4v0
	C357.6,34.5,356.9,35.1,356.1,35.1z"/>
<path class="st11" d="M347.2,23.3v20.8c0,0.8-0.6,1.4-1.4,1.4l0,0c-0.8,0-1.4-0.6-1.4-1.4V23.3c0-0.8,0.6-1.4,1.4-1.4l0,0
	C346.5,21.9,347.2,22.5,347.2,23.3z"/>
<path class="st10" d="M30.5,216.4c0,8-6.5,14.4-14.4,14.4c-7.9,0-14.4-6.4-14.4-14.4c0-7.9,6.5-14.4,14.4-14.4
	C24.1,202,30.5,208.4,30.5,216.4z"/>
<path class="st11" d="M63.2,177c0,5-4,9-9,9c-4.9,0-9-4-9-9c0-5,4-9,9-9C59.2,168,63.2,172,63.2,177z"/>
<circle class="st11" cx="457.9" cy="272.9" r="4.5"/>
<path class="st10" d="M496.8,260.4c0,2.5-2,4.5-4.5,4.5c-2.5,0-4.6-2-4.6-4.5c0-2.5,2-4.6,4.6-4.6
	C494.7,255.9,496.8,257.9,496.8,260.4z"/>
<path class="st10" d="M374.5,86.6c0-6.7,5.4-12.1,12.1-12.1c6.7,0,12.1,5.4,12.1,12.1c0,6.7-5.4,12.1-12.1,12.1
	C379.9,98.7,374.5,93.2,374.5,86.6z"/>
<path class="st12" d="M190.3,33.7c0-6.7,5.4-12.1,12.1-12.1c6.7,0,12.1,5.4,12.1,12.1s-5.4,12.1-12.1,12.1
	C195.7,45.8,190.3,40.4,190.3,33.7z"/>
<path class="st10" d="M445,156.9c0-3.5,2.9-6.4,6.4-6.4c3.5,0,6.4,2.9,6.4,6.4c0,3.5-2.9,6.4-6.4,6.4
	C447.9,163.3,445,160.4,445,156.9z"/>
<path class="st10" d="M219.3,15.2c0-3.5,2.9-6.4,6.4-6.4c3.5,0,6.4,2.9,6.4,6.4c0,3.5-2.9,6.4-6.4,6.4
	C222.1,21.6,219.3,18.7,219.3,15.2z"/>
<path class="st13" d="M238.9,45.8c0-3.5,2.9-6.4,6.4-6.4c3.5,0,6.4,2.9,6.4,6.4c0,3.5-2.9,6.4-6.4,6.4
	C241.7,52.2,238.9,49.3,238.9,45.8z"/>
<polygon class="st12" points="26.6,266 29.5,275.4 38.9,278.4 29.5,281.3 26.6,290.7 23.7,281.3 14.3,278.4 23.3,275.4 "/>
<polygon class="st13" points="454.6,342.5 457.5,351.9 466.9,354.8 457.5,357.8 454.6,367.2 451.6,357.8 442.3,354.8 451.3,351.9 
	"/>
<polygon class="st10" points="164.4,0 168,11.6 179.6,15.2 168,18.8 164.4,30.4 160.7,18.8 149.2,15.2 160.3,11.6 "/>
<path class="st10" d="M256,437.2c-99.9,0-181.2-81.3-181.2-181.2c0-99.9,81.3-181.2,181.2-181.2c99.9,0,181.2,81.3,181.2,181.2
	C437.2,355.9,355.9,437.2,256,437.2z M256,89.1c-92,0-166.9,74.9-166.9,166.9S163.9,422.9,256,422.9c92,0,166.9-74.9,166.9-166.9
	S348,89.1,256,89.1z"/>
</svg>
