<?xml version="1.0" encoding="utf-8"?>
<!-- Generator: Adobe Illustrator 21.1.0, SVG Export Plug-In . SVG Version: 6.00 Build 0)  -->
<svg version="1.1" id="Layer_1" xmlns="http://www.w3.org/2000/svg" xmlns:xlink="http://www.w3.org/1999/xlink" x="0px" y="0px"
	 viewBox="0 0 512 512" style="enable-background:new 0 0 512 512;" xml:space="preserve">
<style type="text/css">
	.st0{fill:#D1485D;}
	.st1{fill:#C7374A;}
	.st2{fill:#FCC57F;}
	.st3{fill:#FFD8AA;}
	.st4{fill:#FFE6C8;}
	.st5{fill:#F4DBAD;}
	.st6{fill:#6D6E70;}
	.st7{fill:#FFFFFF;}
	.st8{fill:#F1F1F2;}
	.st9{fill:#939598;}
	.st10{fill:#808082;}
	.st11{fill:#848688;}
	.st12{fill:#F4E9CD;}
	.st13{fill:#BBBDBF;}
	.st14{fill:#808184;}
	.st15{fill:#EED8A3;}
	.st16{fill:#FFDD15;}
	.st17{fill:#8BC53F;}
	.st18{fill:#F6921E;}
</style>
<g>
	<path class="st0" d="M256,88.2c-92.5,0-167.5,75-167.5,167.5c0,92.5,75,167.5,167.5,167.5c1.4,0,2.7-0.1,4.1-0.1V88.3
		C258.8,88.2,257.4,88.2,256,88.2z"/>
	<path class="st1" d="M423.5,255.7c0-91.1-72.8-165.2-163.4-167.4v334.8C350.7,420.9,423.5,346.8,423.5,255.7z"/>
	<g>
		<polygon class="st2" points="288.7,296.5 288.7,285.9 231.3,285.9 231.3,324.9 		"/>
		<path class="st3" d="M231.3,244.4v83c0,15.6,14.4,22.6,28.7,22.2V244.4H231.3z"/>
		<path class="st2" d="M288.7,327.4v-83H260v105.2C274.4,349.2,288.7,341.4,288.7,327.4z"/>
		<path class="st4" d="M260,164.4c-121.5,0-72.3,160.5,0,160.5h0L260,164.4L260,164.4z"/>
		<path class="st5" d="M260,164.4v160.5C332.2,324.9,381.5,164.5,260,164.4z"/>
		<g>
			<path class="st6" d="M262,157.4c35.1,0,62.9,33,68.1,45.4c5.2,12.4,6.5,14.6,5.6,28c-0.9,13.3-14.7,22.9-15.9,8.4
				c-4.6-52.8-14-14-31.1-25.9c-4.1-2.8-11-8.5-28.8-15.8v-39.9C260.6,157.4,261.3,157.4,262,157.4z"/>
			<path class="st6" d="M338.7,226.4c-8.8,34.1-19.8,14.8-19.3,0.1c0.4-14.6-12.2-46.7-57.4-47.9c-0.7,0-1.4,0.1-2.1,0.1V130
				C321.8,130.9,347.4,192.6,338.7,226.4z"/>
		</g>
		<path class="st7" d="M258.8,339.8c-20.1-0.3-39.8,4.7-72.9,26.1c-8.7,5.7-15.9,16.2-22.3,29c26,16.2,56,27,88.9,27
			c2.5,0,5-0.2,7.5-0.3v-81.8C259.6,339.8,259.2,339.8,258.8,339.8z"/>
		<path class="st8" d="M330.2,367.1c-32.6-20.4-50.9-26.8-70.2-27.2v81.8c34.1-1.5,65.6-12.9,91.6-31.6
			C343.3,379.9,337.6,371.7,330.2,367.1z"/>
		<path class="st7" d="M259.1,387.2"/>
		<path class="st9" d="M204.6,354.8c-5.7,3.1-11.9,6.8-18.6,11.1c-8.7,5.7-15.9,16.2-22.3,29c25.5,18,51.1,25.3,81.9,28.1
			c2.5,0.2,11.9,0.8,14.4,0.7l0.1-25.1l-42.8-50.1C213.2,350.4,209,352.4,204.6,354.8z"/>
		<path class="st10" d="M226.5,190.6c-19.4,8.1-23,19.7-30.6,46.4c-3,10.5-8.6,4.6-10.9-4c-2.4-8.5-1.2-18.8,4-28.4
			c-0.9,1.6,42-45,71-47.2v39.9C237,193.2,233.2,187.8,226.5,190.6z"/>
		<path class="st11" d="M315.7,354.8c5.7,3.1,11.9,6.8,18.6,11.1c8.7,5.7,13.9,12.3,20.3,25.1c-25.5,18-49.4,29.2-80.2,32
			c-2.5,0.2-11.9,0.8-14.4,0.7l0.1-25.1l42.8-50.1C307,350.4,311.2,352.4,315.7,354.8z"/>
		<polygon class="st12" points="260,338.7 231.2,324.9 214,353.3 223.2,376.6 260,342.4 		"/>
		<polygon class="st13" points="245.7,355.7 253.3,361.3 245.7,385 260.2,398.7 260.2,342.4 		"/>
		<polygon class="st14" points="274.8,355.7 267.1,361.3 274.8,385 260.2,398.7 260.2,342.4 		"/>
		<path class="st11" d="M198,358.5l20.4,18.6l-16.4,2.8l36.6,42.4c0,0,14.9,1.9,21.5,1.5l0.2-25.1l-43-50.1c0,0-9.3,4.2-13.7,6.7
			C199,357.9,198,358.5,198,358.5z"/>
		<polygon class="st15" points="288.7,325.5 260,338.7 260,342.2 295.3,377.1 305.8,353.3 		"/>
		<path class="st6" d="M322.2,358.5l-20.4,18.6l16.4,2.8l-36.8,42.4c0,0-16.1,1.9-21.3,1.5l-0.1-25.1l43-50.1c0,0,9.3,4.2,13.7,6.7
			C321.2,357.9,322.2,358.5,322.2,358.5z"/>
		<path class="st10" d="M258.7,129.9L258.7,129.9C258.7,129.9,258.6,129.9,258.7,129.9c-0.1,0-0.2,0-0.2,0v0
			c-18.5,0-36.5,4.4-44.9,17.5c-2.5,3.8,0.4,10.1,0.4,10.1c-3.1-1.5-8.7-1-11.2,1.5c-22.2,22.8-25.2,59.4-19.9,70.8
			c8.8,18.8,16,16.9,17.3-3.8c1.3-20.3,20.4-46.4,59.7-47.3V130C259.5,129.9,259.1,129.9,258.7,129.9z"/>
		<path class="st4" d="M179.8,219.7c-4.4,1-6.2,10.1-3.9,20.3c2.3,10.2,7.7,17.7,12.1,16.8c4.4-1,6.2-10.1,3.9-20.3
			C189.6,226.2,184.2,218.7,179.8,219.7"/>
		<path class="st4" d="M337.9,219.7c4.4,1,6.2,10.1,3.9,20.3c-2.3,10.2-7.7,17.7-12.1,16.8c-4.4-1-6.2-10.1-3.9-20.3
			C328.1,226.2,333.5,218.7,337.9,219.7"/>
	</g>
</g>
<path class="st8" d="M261,466.2h-73.3l-0.7-0.5c-14.2-9.7-27.1-0.2-27.2-0.1l-0.7,0.5H91.9c-1.4,0-2.6-1.2-2.6-2.6s1.2-2.6,2.6-2.6
	h65.6c3.3-2.1,17-9.6,31.8,0H261c1.4,0,2.6,1.2,2.6,2.6S262.4,466.2,261,466.2z"/>
<path class="st8" d="M314.9,466.2h-44.6c-1.4,0-2.6-1.2-2.6-2.6s1.2-2.6,2.6-2.6h44.6c1.4,0,2.6,1.2,2.6,2.6
	S316.4,466.2,314.9,466.2z"/>
<path class="st8" d="M420.5,466.2h-72.2c-1.4,0-2.6-1.2-2.6-2.6s1.2-2.6,2.6-2.6h72.2c1.4,0,2.6,1.2,2.6,2.6S422,466.2,420.5,466.2z
	"/>
<path class="st8" d="M337.4,466.2h-15.1c-1.4,0-2.6-1.2-2.6-2.6s1.2-2.6,2.6-2.6h15.1c1.4,0,2.6,1.2,2.6,2.6
	S338.9,466.2,337.4,466.2z"/>
<path class="st8" d="M221.3,496.4h-76.3c-1.4,0-2.6-1.2-2.6-2.6c0-1.4,1.2-2.6,2.6-2.6h76.3c1.4,0,2.6,1.2,2.6,2.6
	C223.9,495.3,222.7,496.4,221.3,496.4z"/>
<path class="st8" d="M373.5,496.4H263.4c-1.4,0-2.6-1.2-2.6-2.6c0-1.4,1.2-2.6,2.6-2.6h110.1c1.4,0,2.6,1.2,2.6,2.6
	C376.1,495.3,374.9,496.4,373.5,496.4z"/>
<path class="st8" d="M248.1,496.4h-15.1c-1.4,0-2.6-1.2-2.6-2.6c0-1.4,1.2-2.6,2.6-2.6h15.1c1.4,0,2.6,1.2,2.6,2.6
	C250.7,495.3,249.6,496.4,248.1,496.4z"/>
<g>
	<path class="st8" d="M452.5,228h31.1c1.6,0,2.9,1.3,2.9,2.9v0c0,1.6-1.3,2.9-2.9,2.9h-31.1c-1.6,0-2.9-1.3-2.9-2.9v0
		C449.6,229.3,450.9,228,452.5,228z"/>
</g>
<path class="st8" d="M503.4,228h-8.7c-1.6,0-2.9,1.3-2.9,2.9v0c0,1.6,1.3,2.9,2.9,2.9h8.7c1.6,0,2.9-1.3,2.9-2.9v0
	C506.3,229.3,505,228,503.4,228z"/>
<path class="st8" d="M4.1,351.9h31.1c1.6,0,2.9,1.3,2.9,2.9l0,0c0,1.6-1.3,2.9-2.9,2.9H4.1c-1.6,0-2.9-1.3-2.9-2.9l0,0
	C1.2,353.2,2.5,351.9,4.1,351.9z"/>
<path class="st8" d="M55,351.9h-8.7c-1.6,0-2.9,1.3-2.9,2.9l0,0c0,1.6,1.3,2.9,2.9,2.9H55c1.6,0,2.9-1.3,2.9-2.9l0,0
	C57.9,353.2,56.6,351.9,55,351.9z"/>
<path class="st8" d="M72.4,67.7h31.1c1.6,0,2.9,1.3,2.9,2.9l0,0c0,1.6-1.3,2.9-2.9,2.9H72.4c-1.6,0-2.9-1.3-2.9-2.9l0,0
	C69.5,69,70.8,67.7,72.4,67.7z"/>
<path class="st8" d="M123.2,67.7h-8.7c-1.6,0-2.9,1.3-2.9,2.9l0,0c0,1.6,1.3,2.9,2.9,2.9h8.7c1.6,0,2.9-1.3,2.9-2.9l0,0
	C126.1,69,124.8,67.7,123.2,67.7z"/>
<path class="st8" d="M58.2,128.5H28.7c-1.1,0-2.1-0.9-2.1-2.1l0,0c0-1.1,0.9-2.1,2.1-2.1h29.6c1.1,0,2.1,0.9,2.1,2.1l0,0
	C60.3,127.6,59.4,128.5,58.2,128.5z"/>
<path class="st8" d="M45.5,111.6v29.6c0,1.1-0.9,2.1-2.1,2.1h0c-1.1,0-2.1-0.9-2.1-2.1v-29.6c0-1.1,0.9-2.1,2.1-2.1h0
	C44.6,109.6,45.5,110.5,45.5,111.6z"/>
<path class="st8" d="M462.5,109.6H433c-1.1,0-2.1-0.9-2.1-2.1l0,0c0-1.1,0.9-2.1,2.1-2.1h29.6c1.1,0,2.1,0.9,2.1,2.1l0,0
	C464.6,108.6,463.7,109.6,462.5,109.6z"/>
<path class="st8" d="M449.8,92.7v29.6c0,1.1-0.9,2.1-2.1,2.1l0,0c-1.1,0-2.1-0.9-2.1-2.1V92.7c0-1.1,0.9-2.1,2.1-2.1l0,0
	C448.9,90.6,449.8,91.6,449.8,92.7z"/>
<path class="st8" d="M495.2,298.6h-20.7c-0.8,0-1.4-0.6-1.4-1.4l0,0c0-0.8,0.6-1.4,1.4-1.4h20.7c0.8,0,1.4,0.6,1.4,1.4l0,0
	C496.7,297.9,496,298.6,495.2,298.6z"/>
<path class="st8" d="M486.3,286.8v20.7c0,0.8-0.6,1.4-1.4,1.4l0,0c-0.8,0-1.4-0.6-1.4-1.4v-20.7c0-0.8,0.6-1.4,1.4-1.4l0,0
	C485.7,285.3,486.3,286,486.3,286.8z"/>
<path class="st16" d="M356.1,35.1h-20.7c-0.8,0-1.4-0.6-1.4-1.4v0c0-0.8,0.6-1.4,1.4-1.4h20.7c0.8,0,1.4,0.6,1.4,1.4v0
	C357.6,34.5,356.9,35.1,356.1,35.1z"/>
<path class="st16" d="M347.2,23.3v20.8c0,0.8-0.6,1.4-1.4,1.4l0,0c-0.8,0-1.4-0.6-1.4-1.4V23.3c0-0.8,0.6-1.4,1.4-1.4l0,0
	C346.5,21.9,347.2,22.5,347.2,23.3z"/>
<path class="st8" d="M30.5,216.4c0,8-6.5,14.4-14.4,14.4c-7.9,0-14.4-6.4-14.4-14.4c0-7.9,6.5-14.4,14.4-14.4
	C24.1,202,30.5,208.4,30.5,216.4z"/>
<path class="st16" d="M63.2,177c0,5-4,9-9,9c-4.9,0-9-4-9-9c0-5,4-9,9-9C59.2,168,63.2,172,63.2,177z"/>
<circle class="st16" cx="457.9" cy="272.9" r="4.5"/>
<path class="st8" d="M496.8,260.4c0,2.5-2,4.5-4.5,4.5c-2.5,0-4.6-2-4.6-4.5c0-2.5,2-4.6,4.6-4.6
	C494.7,255.9,496.8,257.9,496.8,260.4z"/>
<path class="st8" d="M374.5,86.6c0-6.7,5.4-12.1,12.1-12.1c6.7,0,12.1,5.4,12.1,12.1c0,6.7-5.4,12.1-12.1,12.1
	C379.9,98.7,374.5,93.2,374.5,86.6z"/>
<path class="st17" d="M190.3,33.7c0-6.7,5.4-12.1,12.1-12.1c6.7,0,12.1,5.4,12.1,12.1s-5.4,12.1-12.1,12.1
	C195.7,45.8,190.3,40.4,190.3,33.7z"/>
<path class="st8" d="M445,156.9c0-3.5,2.9-6.4,6.4-6.4c3.5,0,6.4,2.9,6.4,6.4c0,3.5-2.9,6.4-6.4,6.4
	C447.9,163.3,445,160.4,445,156.9z"/>
<path class="st8" d="M219.3,15.2c0-3.5,2.9-6.4,6.4-6.4c3.5,0,6.4,2.9,6.4,6.4c0,3.5-2.9,6.4-6.4,6.4
	C222.1,21.6,219.3,18.7,219.3,15.2z"/>
<path class="st18" d="M238.9,45.8c0-3.5,2.9-6.4,6.4-6.4c3.5,0,6.4,2.9,6.4,6.4c0,3.5-2.9,6.4-6.4,6.4
	C241.7,52.2,238.9,49.3,238.9,45.8z"/>
<polygon class="st17" points="26.6,266 29.5,275.4 38.9,278.4 29.5,281.3 26.6,290.7 23.7,281.3 14.3,278.4 23.3,275.4 "/>
<polygon class="st18" points="454.6,342.5 457.5,351.9 466.9,354.8 457.5,357.8 454.6,367.2 451.6,357.8 442.3,354.8 451.3,351.9 
	"/>
<polygon class="st8" points="164.4,0 168,11.6 179.6,15.2 168,18.8 164.4,30.4 160.7,18.8 149.2,15.2 160.3,11.6 "/>
<path class="st8" d="M256,437.2c-99.9,0-181.2-81.3-181.2-181.2c0-99.9,81.3-181.2,181.2-181.2c99.9,0,181.2,81.3,181.2,181.2
	C437.2,355.9,355.9,437.2,256,437.2z M256,89.1c-92,0-166.9,74.9-166.9,166.9S163.9,422.9,256,422.9c92,0,166.9-74.9,166.9-166.9
	S348,89.1,256,89.1z"/>
</svg>
