<?xml version="1.0" encoding="utf-8"?>
<!-- Generator: Adobe Illustrator 21.1.0, SVG Export Plug-In . SVG Version: 6.00 Build 0)  -->
<svg version="1.1" id="Layer_1" xmlns="http://www.w3.org/2000/svg" xmlns:xlink="http://www.w3.org/1999/xlink" x="0px" y="0px"
	 viewBox="0 0 512 512" style="enable-background:new 0 0 512 512;" xml:space="preserve">
<style type="text/css">
	.st0{fill:#EDBC1F;}
	.st1{fill:#DAAE2A;}
	.st2{fill:#FCC57F;}
	.st3{fill:#FFD8AA;}
	.st4{fill:#FFE6C8;}
	.st5{fill:#F4DBAD;}
	.st6{fill:#475A92;}
	.st7{fill:#262261;}
	.st8{fill:#EDEDED;}
	.st9{fill:#DBDBDB;}
	.st10{fill:#5BC0A0;}
	.st11{fill:#66AD97;}
	.st12{fill:#FFFFFF;}
	.st13{fill:#F1F1F2;}
	.st14{fill:#FFDD15;}
	.st15{fill:#8BC53F;}
	.st16{fill:#F6921E;}
</style>
<g>
	<path class="st0" d="M256,88.4c-92.5,0-167.5,75-167.5,167.5c0,92.5,75,167.5,167.5,167.5h0L256,88.4L256,88.4z"/>
	<path class="st1" d="M423.5,255.9c0-92.5-75-167.5-167.5-167.5v335C348.5,423.4,423.5,348.4,423.5,255.9z"/>
	<g>
		<polygon class="st2" points="284.3,299 284.3,288.5 227.4,288.5 227.4,327.2 		"/>
		<path class="st3" d="M227.4,247.4v82.3c0,15.5,14.2,22.4,28.5,22V247.4H227.4z"/>
		<path class="st2" d="M284.3,329.6v-82.3h-28.4v104.3C270.1,351.2,284.3,343.5,284.3,329.6z"/>
		<path class="st4" d="M255.8,168.1c-120.5,0-71.6,159.1,0,159.1h0L255.8,168.1L255.8,168.1z"/>
		<path class="st5" d="M255.8,168.1v159.1C327.5,327.2,376.2,168.1,255.8,168.1z"/>
		<path class="st6" d="M253.8,161.1c-34.8,0-62.4,32.8-67.6,45c-5.2,12.3-6.5,14.5-5.5,27.7c0.9,13.2,13.8,22.6,15.8,8.3
			c2.5-17.7,13.9-39.2,30.9-51c4.1-2.8,16.2-15.3,28.5-8.8v-21.1C255.1,161.1,254.5,161.1,253.8,161.1z"/>
		<path class="st7" d="M274.9,186.9c19.2,8.1,36.9,26.7,44.4,53.2c3,10.4,8.5,4.5,10.9-4c2.3-8.5,1.2-18.7-3.9-28.1
			c0.8,1.6-41.6-44.6-70.4-46.8C255.8,161.2,268.2,184.1,274.9,186.9z"/>
		<path class="st6" d="M177.7,229.5c8.7,33.8,19.6,14.7,19.1,0.1c-0.4-14.5,12.1-46.3,56.9-47.5c0.7,0,1.4,0.1,2.1,0.1v-48.4
			C194.4,134.8,169.1,196,177.7,229.5z"/>
		<path class="st7" d="M315,229.2c1.3,20.5,8.4,22.4,17.2,3.7c8.7-18.6-12.6-98.9-74.9-99v0c0,0,0,0-0.1,0c0,0,0,0-0.1,0v0
			c-0.4,0-0.8,0-1.2,0v48.4C294.8,183.2,313.8,209.1,315,229.2z"/>
		<path class="st4" d="M176.3,222.9c-4.4,1-6.1,10-3.9,20.1c2.3,10.2,7.7,17.6,12,16.6c4.4-1,6.1-10,3.8-20.2
			C186,229.3,180.7,221.9,176.3,222.9"/>
		<path class="st4" d="M333,222.9c4.4,1,6.1,10,3.9,20.1c-2.3,10.2-7.7,17.6-12,16.6c-4.4-1-6.1-10-3.8-20.2
			C323.3,229.3,328.7,221.9,333,222.9"/>
		<g>
			<path class="st8" d="M254.6,341.9c-19.9-0.3-39.4,4.6-72.2,25.9c-8.7,5.6-14.6,13.6-20.9,26.3c24.2,15.8,54.3,29.2,86.9,29.2
				c2.5,0,5,0.1,7.5,0V342C255.4,342,255,342,254.6,341.9z"/>
			<path class="st9" d="M327,367.9c-32.3-20.3-52-25.4-71.1-25.9v81.4c25.8,1.7,67.1-9.4,92.9-28C343.1,385.2,334.3,372.4,327,367.9
				z"/>
			<path class="st10" d="M229.4,343.8l19.3,46.3l-6.8,33.2c4.7,0.2,6.7,0.3,12.8,0.1c0.4,0,0.9,0,1.3,0l-0.1-79.8
				C247.3,343.6,238.8,343.6,229.4,343.8z"/>
			<path class="st11" d="M260.6,390.1l19.3-46.3c-8.6-0.2-16.4-0.2-24.1-0.2v79.8c3.3,0.2,7.4-0.1,11.2-0.3L260.6,390.1z"/>
			<polygon class="st12" points="228.2,327.2 207.2,354 220.2,378.4 254.9,343.6 			"/>
			<polygon class="st8" points="282.9,327.2 303.9,354 290.9,378.4 256.2,343.6 			"/>
		</g>
	</g>
	<path class="st6" d="M222.2,149.3l8.1-4.6c0,0,6.3-14.9-8.1-15.2c0,0,29.5-0.5,26.5,9.9c-3,10.4-13.2,11-13.2,11L222.2,149.3z"/>
</g>
<path class="st13" d="M261,466.2h-73.3l-0.7-0.5c-14.2-9.7-27.1-0.2-27.2-0.1l-0.7,0.5H91.9c-1.4,0-2.6-1.2-2.6-2.6s1.2-2.6,2.6-2.6
	h65.6c3.3-2.1,17-9.6,31.8,0H261c1.4,0,2.6,1.2,2.6,2.6S262.4,466.2,261,466.2z"/>
<path class="st13" d="M314.9,466.2h-44.6c-1.4,0-2.6-1.2-2.6-2.6s1.2-2.6,2.6-2.6h44.6c1.4,0,2.6,1.2,2.6,2.6
	S316.4,466.2,314.9,466.2z"/>
<path class="st13" d="M420.5,466.2h-72.2c-1.4,0-2.6-1.2-2.6-2.6s1.2-2.6,2.6-2.6h72.2c1.4,0,2.6,1.2,2.6,2.6S422,466.2,420.5,466.2
	z"/>
<path class="st13" d="M337.4,466.2h-15.1c-1.4,0-2.6-1.2-2.6-2.6s1.2-2.6,2.6-2.6h15.1c1.4,0,2.6,1.2,2.6,2.6
	S338.9,466.2,337.4,466.2z"/>
<path class="st13" d="M221.3,496.4h-76.3c-1.4,0-2.6-1.2-2.6-2.6c0-1.4,1.2-2.6,2.6-2.6h76.3c1.4,0,2.6,1.2,2.6,2.6
	C223.9,495.3,222.7,496.4,221.3,496.4z"/>
<path class="st13" d="M373.5,496.4H263.4c-1.4,0-2.6-1.2-2.6-2.6c0-1.4,1.2-2.6,2.6-2.6h110.1c1.4,0,2.6,1.2,2.6,2.6
	C376.1,495.3,374.9,496.4,373.5,496.4z"/>
<path class="st13" d="M248.1,496.4h-15.1c-1.4,0-2.6-1.2-2.6-2.6c0-1.4,1.2-2.6,2.6-2.6h15.1c1.4,0,2.6,1.2,2.6,2.6
	C250.7,495.3,249.6,496.4,248.1,496.4z"/>
<g>
	<path class="st13" d="M452.5,228h31.1c1.6,0,2.9,1.3,2.9,2.9v0c0,1.6-1.3,2.9-2.9,2.9h-31.1c-1.6,0-2.9-1.3-2.9-2.9v0
		C449.6,229.3,450.9,228,452.5,228z"/>
</g>
<path class="st13" d="M503.4,228h-8.7c-1.6,0-2.9,1.3-2.9,2.9v0c0,1.6,1.3,2.9,2.9,2.9h8.7c1.6,0,2.9-1.3,2.9-2.9v0
	C506.3,229.3,505,228,503.4,228z"/>
<path class="st13" d="M4.1,351.9h31.1c1.6,0,2.9,1.3,2.9,2.9l0,0c0,1.6-1.3,2.9-2.9,2.9H4.1c-1.6,0-2.9-1.3-2.9-2.9l0,0
	C1.2,353.2,2.5,351.9,4.1,351.9z"/>
<path class="st13" d="M55,351.9h-8.7c-1.6,0-2.9,1.3-2.9,2.9l0,0c0,1.6,1.3,2.9,2.9,2.9H55c1.6,0,2.9-1.3,2.9-2.9l0,0
	C57.9,353.2,56.6,351.9,55,351.9z"/>
<path class="st13" d="M72.4,67.7h31.1c1.6,0,2.9,1.3,2.9,2.9l0,0c0,1.6-1.3,2.9-2.9,2.9H72.4c-1.6,0-2.9-1.3-2.9-2.9l0,0
	C69.5,69,70.8,67.7,72.4,67.7z"/>
<path class="st13" d="M123.2,67.7h-8.7c-1.6,0-2.9,1.3-2.9,2.9l0,0c0,1.6,1.3,2.9,2.9,2.9h8.7c1.6,0,2.9-1.3,2.9-2.9l0,0
	C126.1,69,124.8,67.7,123.2,67.7z"/>
<path class="st13" d="M58.2,128.5H28.7c-1.1,0-2.1-0.9-2.1-2.1l0,0c0-1.1,0.9-2.1,2.1-2.1h29.6c1.1,0,2.1,0.9,2.1,2.1l0,0
	C60.3,127.6,59.4,128.5,58.2,128.5z"/>
<path class="st13" d="M45.5,111.6v29.6c0,1.1-0.9,2.1-2.1,2.1h0c-1.1,0-2.1-0.9-2.1-2.1v-29.6c0-1.1,0.9-2.1,2.1-2.1h0
	C44.6,109.6,45.5,110.5,45.5,111.6z"/>
<path class="st13" d="M462.5,109.6H433c-1.1,0-2.1-0.9-2.1-2.1l0,0c0-1.1,0.9-2.1,2.1-2.1h29.6c1.1,0,2.1,0.9,2.1,2.1l0,0
	C464.6,108.6,463.7,109.6,462.5,109.6z"/>
<path class="st13" d="M449.8,92.7v29.6c0,1.1-0.9,2.1-2.1,2.1l0,0c-1.1,0-2.1-0.9-2.1-2.1V92.7c0-1.1,0.9-2.1,2.1-2.1l0,0
	C448.9,90.6,449.8,91.6,449.8,92.7z"/>
<path class="st13" d="M495.2,298.6h-20.7c-0.8,0-1.4-0.6-1.4-1.4l0,0c0-0.8,0.6-1.4,1.4-1.4h20.7c0.8,0,1.4,0.6,1.4,1.4l0,0
	C496.7,297.9,496,298.6,495.2,298.6z"/>
<path class="st13" d="M486.3,286.8v20.7c0,0.8-0.6,1.4-1.4,1.4l0,0c-0.8,0-1.4-0.6-1.4-1.4v-20.7c0-0.8,0.6-1.4,1.4-1.4l0,0
	C485.7,285.3,486.3,286,486.3,286.8z"/>
<path class="st14" d="M356.1,35.1h-20.7c-0.8,0-1.4-0.6-1.4-1.4v0c0-0.8,0.6-1.4,1.4-1.4h20.7c0.8,0,1.4,0.6,1.4,1.4v0
	C357.6,34.5,356.9,35.1,356.1,35.1z"/>
<path class="st14" d="M347.2,23.3v20.8c0,0.8-0.6,1.4-1.4,1.4l0,0c-0.8,0-1.4-0.6-1.4-1.4V23.3c0-0.8,0.6-1.4,1.4-1.4l0,0
	C346.5,21.9,347.2,22.5,347.2,23.3z"/>
<path class="st13" d="M30.5,216.4c0,8-6.5,14.4-14.4,14.4c-7.9,0-14.4-6.4-14.4-14.4c0-7.9,6.5-14.4,14.4-14.4
	C24.1,202,30.5,208.4,30.5,216.4z"/>
<path class="st14" d="M63.2,177c0,5-4,9-9,9c-4.9,0-9-4-9-9c0-5,4-9,9-9C59.2,168,63.2,172,63.2,177z"/>
<circle class="st14" cx="457.9" cy="272.9" r="4.5"/>
<path class="st13" d="M496.8,260.4c0,2.5-2,4.5-4.5,4.5c-2.5,0-4.6-2-4.6-4.5c0-2.5,2-4.6,4.6-4.6
	C494.7,255.9,496.8,257.9,496.8,260.4z"/>
<path class="st13" d="M374.5,86.6c0-6.7,5.4-12.1,12.1-12.1c6.7,0,12.1,5.4,12.1,12.1c0,6.7-5.4,12.1-12.1,12.1
	C379.9,98.7,374.5,93.2,374.5,86.6z"/>
<path class="st15" d="M190.3,33.7c0-6.7,5.4-12.1,12.1-12.1c6.7,0,12.1,5.4,12.1,12.1s-5.4,12.1-12.1,12.1
	C195.7,45.8,190.3,40.4,190.3,33.7z"/>
<path class="st13" d="M445,156.9c0-3.5,2.9-6.4,6.4-6.4c3.5,0,6.4,2.9,6.4,6.4c0,3.5-2.9,6.4-6.4,6.4
	C447.9,163.3,445,160.4,445,156.9z"/>
<path class="st13" d="M219.3,15.2c0-3.5,2.9-6.4,6.4-6.4c3.5,0,6.4,2.9,6.4,6.4c0,3.5-2.9,6.4-6.4,6.4
	C222.1,21.6,219.3,18.7,219.3,15.2z"/>
<path class="st16" d="M238.9,45.8c0-3.5,2.9-6.4,6.4-6.4c3.5,0,6.4,2.9,6.4,6.4c0,3.5-2.9,6.4-6.4,6.4
	C241.7,52.2,238.9,49.3,238.9,45.8z"/>
<polygon class="st15" points="26.6,266 29.5,275.4 38.9,278.4 29.5,281.3 26.6,290.7 23.7,281.3 14.3,278.4 23.3,275.4 "/>
<polygon class="st16" points="454.6,342.5 457.5,351.9 466.9,354.8 457.5,357.8 454.6,367.2 451.6,357.8 442.3,354.8 451.3,351.9 
	"/>
<polygon class="st13" points="164.4,0 168,11.6 179.6,15.2 168,18.8 164.4,30.4 160.7,18.8 149.2,15.2 160.3,11.6 "/>
<path class="st13" d="M256,437.2c-99.9,0-181.2-81.3-181.2-181.2c0-99.9,81.3-181.2,181.2-181.2c99.9,0,181.2,81.3,181.2,181.2
	C437.2,355.9,355.9,437.2,256,437.2z M256,89.1c-92,0-166.9,74.9-166.9,166.9S163.9,422.9,256,422.9c92,0,166.9-74.9,166.9-166.9
	S348,89.1,256,89.1z"/>
</svg>
