<?xml version="1.0" encoding="utf-8"?>
<!-- Generator: Adobe Illustrator 21.1.0, SVG Export Plug-In . SVG Version: 6.00 Build 0)  -->
<svg version="1.1" id="Layer_1" xmlns="http://www.w3.org/2000/svg" xmlns:xlink="http://www.w3.org/1999/xlink" x="0px" y="0px"
	 viewBox="0 0 512 512" style="enable-background:new 0 0 512 512;" xml:space="preserve">
<style type="text/css">
	.st0{fill:#2493C5;}
	.st1{fill:#0088BE;}
	.st2{fill:#FCC57F;}
	.st3{fill:#FFD8AA;}
	.st4{fill:#FFE6C8;}
	.st5{fill:#F4DBAD;}
	.st6{fill:#353537;}
	.st7{fill:#FFFFFF;}
	.st8{fill:#F1F1F2;}
	.st9{fill:#484859;}
	.st10{fill:#8AD6F7;}
	.st11{fill:#1B75BB;}
	.st12{fill:#231F20;}
	.st13{fill:#FFDD15;}
	.st14{fill:#8BC53F;}
	.st15{fill:#F6921E;}
</style>
<g>
	<path class="st0" d="M88,255.9c0,92.8,75.2,168,168,168v-336C163.2,87.9,88,163.1,88,255.9z"/>
	<path class="st1" d="M424,255.9c0-92.8-75.2-168-168-168v336C348.8,423.9,424,348.7,424,255.9z"/>
	<g>
		<polygon class="st2" points="287.5,297.2 287.5,286.6 230.4,286.6 230.4,325.5 		"/>
		<path class="st3" d="M230.4,245.3v82.6c0,15.5,14.3,22.5,28.6,22.1V245.3H230.4z"/>
		<path class="st2" d="M287.5,327.9v-82.6H259V350C273.2,349.6,287.5,341.8,287.5,327.9z"/>
		<path class="st4" d="M258.9,165.7c-120.9,0-71.9,159.7,0,159.7h0L258.9,165.7L258.9,165.7z"/>
		<path class="st5" d="M259,165.7v159.7C330.9,325.4,379.8,165.8,259,165.7z"/>
		<g>
			<path class="st6" d="M260.9,158.7c34.9,0,62.6,32.9,67.8,45.2c5.2,12.3,6.5,14.6,5.6,27.8c-0.9,13.2-14.6,22.8-15.8,8.4
				c-4.6-52.5-24.1-39.4-41.2-51.2c-4.1-2.8-13.7,2-18.5,9.7v-39.7C259.5,158.7,260.2,158.7,260.9,158.7z"/>
			<path class="st6" d="M337.2,227.4c-8.8,33.9-19.7,14.7-19.2,0.1c0.4-14.6-12.2-46.5-57.1-47.6c-0.7,0-1.4,0.1-2.1,0.1v-48.6
				C320.5,132.3,345.9,193.7,337.2,227.4z"/>
		</g>
		<path class="st7" d="M257.7,340.3c-20-0.3-39.6,4.6-72.5,26c-8.7,5.6-15.9,16.1-22.2,28.9c25.9,16.1,55.7,26.9,88.5,26.9
			c2.5,0,5-0.2,7.5-0.3v-81.4C258.6,340.3,258.2,340.3,257.7,340.3z"/>
		<path class="st8" d="M328.8,367.4c-32.4-20.3-50.7-26.6-69.8-27.1v81.4c34-1.5,65.3-12.9,91.2-31.5
			C341.8,380.2,336.2,372,328.8,367.4z"/>
		<path class="st7" d="M258,387.4"/>
		<path class="st9" d="M225.6,191.8c-19.3,8.1-22.9,19.6-30.5,46.2c-3,10.5-8.5,4.5-10.9-4c-2.4-8.5-1.2-18.7,4-28.2
			c-0.9,1.6,41.8-44.8,70.6-47v39.7C250.3,185.4,232.3,189,225.6,191.8z"/>
		<polygon class="st7" points="258.9,339.1 230.3,325.5 213.2,353.7 222.3,376.9 258.9,342.8 		"/>
		<polygon class="st8" points="287.5,326 258.9,339.1 258.9,342.6 294.1,377.4 304.6,353.7 		"/>
		<path class="st9" d="M257.7,131.4L257.7,131.4L257.7,131.4l-0.2,0v0c-18.4,0.1-36.3,4.4-44.7,17.4c-2.5,3.8,0.4,10,0.4,10
			c-3.1-1.4-8.6-1-11.1,1.5c-22.1,22.7-25.1,59.2-19.8,70.5c8.8,18.7,15.9,16.8,17.2-3.7c1.3-20.2,20.3-46.2,59.4-47.1v-48.6
			C258.5,131.4,258.1,131.4,257.7,131.4z"/>
		<path class="st4" d="M179.1,220.7c-4.4,1-6.1,10-3.9,20.2c2.3,10.2,7.7,17.7,12.1,16.7c4.4-1,6.1-10,3.9-20.2
			C188.9,227.2,183.5,219.7,179.1,220.7"/>
		<path class="st4" d="M336.5,220.7c4.4,1,6.1,10,3.9,20.2c-2.3,10.2-7.7,17.7-12.1,16.7c-4.4-1-6.1-10-3.9-20.2
			C326.7,227.2,332.1,219.7,336.5,220.7"/>
		<path class="st10" d="M203.8,355.2c-5.7,3.1-11.9,6.7-18.5,11.1c-8.7,5.6-15.9,16.1-22.2,28.9c25.4,17.9,51,26.1,81.7,28.9
			c2.5,0.2,12-0.1,14.4-0.2l0.1-25l-42.9-49.8C212.4,350.8,208.2,352.8,203.8,355.2z"/>
		<path class="st11" d="M314.3,355.2c5.7,3.1,11.8,6.7,18.5,11.1c8.7,5.6,14.5,14,20.9,26.8c-25.4,17.9-49.8,27.3-80.5,30.1
			c-2.5,0.2-11.8,0.8-14.3,0.7l0.1-25l42.6-49.8C305.8,350.8,309.9,352.8,314.3,355.2z"/>
		<polygon class="st12" points="235.2,332.6 259.1,346.4 235.2,360.2 		"/>
		<polygon class="st12" points="283.3,332.6 259.3,346.4 283.3,360.2 		"/>
	</g>
</g>
<path class="st8" d="M261,466.2h-73.3l-0.7-0.5c-14.2-9.7-27.1-0.2-27.2-0.1l-0.7,0.5H91.9c-1.4,0-2.6-1.2-2.6-2.6s1.2-2.6,2.6-2.6
	h65.6c3.3-2.1,17-9.6,31.8,0H261c1.4,0,2.6,1.2,2.6,2.6S262.4,466.2,261,466.2z"/>
<path class="st8" d="M314.9,466.2h-44.6c-1.4,0-2.6-1.2-2.6-2.6s1.2-2.6,2.6-2.6h44.6c1.4,0,2.6,1.2,2.6,2.6
	S316.4,466.2,314.9,466.2z"/>
<path class="st8" d="M420.5,466.2h-72.2c-1.4,0-2.6-1.2-2.6-2.6s1.2-2.6,2.6-2.6h72.2c1.4,0,2.6,1.2,2.6,2.6S422,466.2,420.5,466.2z
	"/>
<path class="st8" d="M337.4,466.2h-15.1c-1.4,0-2.6-1.2-2.6-2.6s1.2-2.6,2.6-2.6h15.1c1.4,0,2.6,1.2,2.6,2.6
	S338.9,466.2,337.4,466.2z"/>
<path class="st8" d="M221.3,496.4h-76.3c-1.4,0-2.6-1.2-2.6-2.6c0-1.4,1.2-2.6,2.6-2.6h76.3c1.4,0,2.6,1.2,2.6,2.6
	C223.9,495.3,222.7,496.4,221.3,496.4z"/>
<path class="st8" d="M373.5,496.4H263.4c-1.4,0-2.6-1.2-2.6-2.6c0-1.4,1.2-2.6,2.6-2.6h110.1c1.4,0,2.6,1.2,2.6,2.6
	C376.1,495.3,374.9,496.4,373.5,496.4z"/>
<path class="st8" d="M248.1,496.4h-15.1c-1.4,0-2.6-1.2-2.6-2.6c0-1.4,1.2-2.6,2.6-2.6h15.1c1.4,0,2.6,1.2,2.6,2.6
	C250.7,495.3,249.6,496.4,248.1,496.4z"/>
<g>
	<path class="st8" d="M452.5,228h31.1c1.6,0,2.9,1.3,2.9,2.9v0c0,1.6-1.3,2.9-2.9,2.9h-31.1c-1.6,0-2.9-1.3-2.9-2.9v0
		C449.6,229.3,450.9,228,452.5,228z"/>
</g>
<path class="st8" d="M503.4,228h-8.7c-1.6,0-2.9,1.3-2.9,2.9v0c0,1.6,1.3,2.9,2.9,2.9h8.7c1.6,0,2.9-1.3,2.9-2.9v0
	C506.3,229.3,505,228,503.4,228z"/>
<path class="st8" d="M4.1,351.9h31.1c1.6,0,2.9,1.3,2.9,2.9l0,0c0,1.6-1.3,2.9-2.9,2.9H4.1c-1.6,0-2.9-1.3-2.9-2.9l0,0
	C1.2,353.2,2.5,351.9,4.1,351.9z"/>
<path class="st8" d="M55,351.9h-8.7c-1.6,0-2.9,1.3-2.9,2.9l0,0c0,1.6,1.3,2.9,2.9,2.9H55c1.6,0,2.9-1.3,2.9-2.9l0,0
	C57.9,353.2,56.6,351.9,55,351.9z"/>
<path class="st8" d="M72.4,67.7h31.1c1.6,0,2.9,1.3,2.9,2.9l0,0c0,1.6-1.3,2.9-2.9,2.9H72.4c-1.6,0-2.9-1.3-2.9-2.9l0,0
	C69.5,69,70.8,67.7,72.4,67.7z"/>
<path class="st8" d="M123.2,67.7h-8.7c-1.6,0-2.9,1.3-2.9,2.9l0,0c0,1.6,1.3,2.9,2.9,2.9h8.7c1.6,0,2.9-1.3,2.9-2.9l0,0
	C126.1,69,124.8,67.7,123.2,67.7z"/>
<path class="st8" d="M58.2,128.5H28.7c-1.1,0-2.1-0.9-2.1-2.1l0,0c0-1.1,0.9-2.1,2.1-2.1h29.6c1.1,0,2.1,0.9,2.1,2.1l0,0
	C60.3,127.6,59.4,128.5,58.2,128.5z"/>
<path class="st8" d="M45.5,111.6v29.6c0,1.1-0.9,2.1-2.1,2.1h0c-1.1,0-2.1-0.9-2.1-2.1v-29.6c0-1.1,0.9-2.1,2.1-2.1h0
	C44.6,109.6,45.5,110.5,45.5,111.6z"/>
<path class="st8" d="M462.5,109.6H433c-1.1,0-2.1-0.9-2.1-2.1l0,0c0-1.1,0.9-2.1,2.1-2.1h29.6c1.1,0,2.1,0.9,2.1,2.1l0,0
	C464.6,108.6,463.7,109.6,462.5,109.6z"/>
<path class="st8" d="M449.8,92.7v29.6c0,1.1-0.9,2.1-2.1,2.1l0,0c-1.1,0-2.1-0.9-2.1-2.1V92.7c0-1.1,0.9-2.1,2.1-2.1l0,0
	C448.9,90.6,449.8,91.6,449.8,92.7z"/>
<path class="st8" d="M495.2,298.6h-20.7c-0.8,0-1.4-0.6-1.4-1.4l0,0c0-0.8,0.6-1.4,1.4-1.4h20.7c0.8,0,1.4,0.6,1.4,1.4l0,0
	C496.7,297.9,496,298.6,495.2,298.6z"/>
<path class="st8" d="M486.3,286.8v20.7c0,0.8-0.6,1.4-1.4,1.4l0,0c-0.8,0-1.4-0.6-1.4-1.4v-20.7c0-0.8,0.6-1.4,1.4-1.4l0,0
	C485.7,285.3,486.3,286,486.3,286.8z"/>
<path class="st13" d="M356.1,35.1h-20.7c-0.8,0-1.4-0.6-1.4-1.4v0c0-0.8,0.6-1.4,1.4-1.4h20.7c0.8,0,1.4,0.6,1.4,1.4v0
	C357.6,34.5,356.9,35.1,356.1,35.1z"/>
<path class="st13" d="M347.2,23.3v20.8c0,0.8-0.6,1.4-1.4,1.4l0,0c-0.8,0-1.4-0.6-1.4-1.4V23.3c0-0.8,0.6-1.4,1.4-1.4l0,0
	C346.5,21.9,347.2,22.5,347.2,23.3z"/>
<path class="st8" d="M30.5,216.4c0,8-6.5,14.4-14.4,14.4c-7.9,0-14.4-6.4-14.4-14.4c0-7.9,6.5-14.4,14.4-14.4
	C24.1,202,30.5,208.4,30.5,216.4z"/>
<path class="st13" d="M63.2,177c0,5-4,9-9,9c-4.9,0-9-4-9-9c0-5,4-9,9-9C59.2,168,63.2,172,63.2,177z"/>
<circle class="st13" cx="457.9" cy="272.9" r="4.5"/>
<path class="st8" d="M496.8,260.4c0,2.5-2,4.5-4.5,4.5c-2.5,0-4.6-2-4.6-4.5c0-2.5,2-4.6,4.6-4.6
	C494.7,255.9,496.8,257.9,496.8,260.4z"/>
<path class="st8" d="M374.5,86.6c0-6.7,5.4-12.1,12.1-12.1c6.7,0,12.1,5.4,12.1,12.1c0,6.7-5.4,12.1-12.1,12.1
	C379.9,98.7,374.5,93.2,374.5,86.6z"/>
<path class="st14" d="M190.3,33.7c0-6.7,5.4-12.1,12.1-12.1c6.7,0,12.1,5.4,12.1,12.1s-5.4,12.1-12.1,12.1
	C195.7,45.8,190.3,40.4,190.3,33.7z"/>
<path class="st8" d="M445,156.9c0-3.5,2.9-6.4,6.4-6.4c3.5,0,6.4,2.9,6.4,6.4c0,3.5-2.9,6.4-6.4,6.4
	C447.9,163.3,445,160.4,445,156.9z"/>
<path class="st8" d="M219.3,15.2c0-3.5,2.9-6.4,6.4-6.4c3.5,0,6.4,2.9,6.4,6.4c0,3.5-2.9,6.4-6.4,6.4
	C222.1,21.6,219.3,18.7,219.3,15.2z"/>
<path class="st15" d="M238.9,45.8c0-3.5,2.9-6.4,6.4-6.4c3.5,0,6.4,2.9,6.4,6.4c0,3.5-2.9,6.4-6.4,6.4
	C241.7,52.2,238.9,49.3,238.9,45.8z"/>
<polygon class="st14" points="26.6,266 29.5,275.4 38.9,278.4 29.5,281.3 26.6,290.7 23.7,281.3 14.3,278.4 23.3,275.4 "/>
<polygon class="st15" points="454.6,342.5 457.5,351.9 466.9,354.8 457.5,357.8 454.6,367.2 451.6,357.8 442.3,354.8 451.3,351.9 
	"/>
<polygon class="st8" points="164.4,0 168,11.6 179.6,15.2 168,18.8 164.4,30.4 160.7,18.8 149.2,15.2 160.3,11.6 "/>
<path class="st8" d="M256,437.2c-99.9,0-181.2-81.3-181.2-181.2c0-99.9,81.3-181.2,181.2-181.2c99.9,0,181.2,81.3,181.2,181.2
	C437.2,355.9,355.9,437.2,256,437.2z M256,89.1c-92,0-166.9,74.9-166.9,166.9S163.9,422.9,256,422.9c92,0,166.9-74.9,166.9-166.9
	S348,89.1,256,89.1z"/>
</svg>
