<?xml version="1.0" encoding="utf-8"?>
<!-- Generator: Adobe Illustrator 21.1.0, SVG Export Plug-In . SVG Version: 6.00 Build 0)  -->
<svg version="1.1" id="Layer_1" xmlns="http://www.w3.org/2000/svg" xmlns:xlink="http://www.w3.org/1999/xlink" x="0px" y="0px"
	 viewBox="0 0 512 512" style="enable-background:new 0 0 512 512;" xml:space="preserve">
<style type="text/css">
	.st0{fill:#8D73AB;}
	.st1{fill:#8067A5;}
	.st2{fill:#FCC57F;}
	.st3{fill:#FFD8AA;}
	.st4{fill:#FFE6C8;}
	.st5{fill:#F4DBAD;}
	.st6{fill:#E5A85A;}
	.st7{fill:#FFFFFF;}
	.st8{fill:#F1F1F2;}
	.st9{fill:#D6AA28;}
	.st10{fill:#F4E9CD;}
	.st11{fill:#BB902E;}
	.st12{fill:#EED8A3;}
	.st13{fill:#8A5D3B;}
	.st14{fill:#FBB762;}
	.st15{fill:#FFDD15;}
	.st16{fill:#8BC53F;}
	.st17{fill:#F6921E;}
</style>
<g>
	<g>
		<path class="st0" d="M88,256c0,92.3,74.4,167.2,166.6,168V88C162.4,88.8,88,163.7,88,256z"/>
		<path class="st1" d="M424,256c0-92.8-75.2-168-168-168c-0.5,0-1,0-1.4,0V424c0.5,0,1,0,1.4,0C348.8,424,424,348.8,424,256z"/>
	</g>
	<g>
		<polygon class="st2" points="283.2,295 283.2,284.5 226.1,284.5 226.1,323.3 		"/>
		<path class="st3" d="M226.1,243.2v82.6c0,15.5,14.3,22.5,28.6,22.1V243.2H226.1z"/>
		<path class="st2" d="M283.2,325.8v-82.6h-28.5v104.7C269,347.4,283.2,339.7,283.2,325.8z"/>
		<path class="st4" d="M254.7,163.6c-120.9,0-71.9,159.7,0,159.7h0L254.7,163.6L254.7,163.6z"/>
		<path class="st5" d="M254.7,163.6v159.7C326.6,323.3,375.5,163.6,254.7,163.6z"/>
		<g>
			<path class="st6" d="M256.7,156.6c34.9,0,62.6,32.9,67.8,45.2c5.2,12.3,6.5,14.6,5.6,27.8c-0.9,13.2-13.8,22.7-15.8,8.3
				c-2.5-17.8-14-39.4-31-51.2c-4.1-2.8-16.3,3.1-28.6,9.7v-39.7C255.3,156.6,256,156.6,256.7,156.6z"/>
			<path class="st6" d="M333,225.3c-8.8,33.9-19.7,14.7-19.2,0.1c0.4-14.6-12.2-46.5-57.1-47.6c-0.7,0-1.4,0.1-2.1,0.1v-48.6
				C316.2,130.2,341.7,191.6,333,225.3z"/>
		</g>
		<path class="st7" d="M253.5,338.1c-20-0.3-39.6,4.6-72.5,26c-8.7,5.6-15.9,16.1-22.2,28.9c25.9,16.1,55.7,26.9,88.5,26.9
			c2.5,0,5-0.2,7.5-0.3v-81.4C254.3,338.1,253.9,338.1,253.5,338.1z"/>
		<path class="st8" d="M324.5,365.2c-32.4-20.3-50.7-26.6-69.8-27.1v81.4c33.9-1.5,65.3-12.9,91.1-31.5
			C337.6,378,331.9,369.8,324.5,365.2z"/>
		<path class="st7" d="M253.8,385.3"/>
		<path class="st9" d="M199.5,353c-5.7,3.1-11.8,6.7-18.5,11.1c-8.7,5.6-15.9,16.1-22.2,28.9c25.4,17.9,51,27.5,81.7,30.3
			c2.5,0.2,11.8,0.8,14.3,0.7v-27.2l-42.6-49.8C208.1,348.7,204,350.6,199.5,353z"/>
		<polygon class="st10" points="226,323.3 204.9,350.2 218,374.7 253.8,338.2 		"/>
		<path class="st11" d="M326.1,364.1c-11.2-7.1-20.9-12.2-29.5-16l-41.7,48.7l-0.2-0.1V424c34,0,69.8-10.3,95.6-28.9
			C344.7,384.7,334.5,369.4,326.1,364.1z"/>
		<polygon class="st12" points="283.2,323.8 303,350.7 289.8,375.2 254.7,338.7 		"/>
		<circle class="st13" cx="254.7" cy="362.8" r="5.3"/>
		<circle class="st13" cx="254.7" cy="378" r="5.3"/>
		<g>
			<g>
				<path class="st14" d="M235.3,193.4c-19.3,8.1-36.9,15.9-44.4,42.5c-3,10.5-8.5,4.5-10.9-4c-2.4-8.5-1.2-18.7,4-28.2
					c-0.9,1.6,41.8-44.8,70.6-47v39.7c-11.8,6.3-1.1,11.3-6,11.4C241.8,207.9,242,190.6,235.3,193.4z"/>
				<path class="st14" d="M195.2,224.9c-1.3,20.5-8.4,22.4-17.2,3.7c-8.8-18.7,12.7-99.2,75.2-99.4v0h0.1c0,0,0.1,0,0.1,0v0
					c0.4,0,0.8,0,1.2,0v48.6C215.5,178.8,196.5,204.8,195.2,224.9z"/>
			</g>
			<path class="st14" d="M249.3,130.7c0,0-6.6,6.3-28.4,3.3c-21.8-3-23.1-10.2-23.1-10.2s3,13.2,16.2,27.6c13.2,14.3,25.4-5,25.4-5
				l5.5-8L249.3,130.7z"/>
		</g>
		<path class="st4" d="M174.8,218.6c-4.4,1-6.1,10-3.9,20.2c2.3,10.2,7.7,17.7,12.1,16.7c4.4-1,6.1-10,3.9-20.2
			C184.6,225.1,179.2,217.6,174.8,218.6"/>
		<path class="st4" d="M332.2,218.6c4.4,1,6.1,10,3.9,20.2c-2.3,10.2-7.7,17.7-12.1,16.7c-4.4-1-6.1-10-3.9-20.2
			C322.4,225.1,327.8,217.6,332.2,218.6"/>
	</g>
	<g>
		<path class="st0" d="M88,256c0,92.3,74.4,167.2,166.6,168V88C162.4,88.8,88,163.7,88,256z"/>
		<path class="st1" d="M424,256c0-92.8-75.2-168-168-168c-0.5,0-1,0-1.4,0V424c0.5,0,1,0,1.4,0C348.8,424,424,348.8,424,256z"/>
	</g>
	<g>
		<polygon class="st2" points="283.2,295 283.2,284.5 226.1,284.5 226.1,323.3 		"/>
		<path class="st3" d="M226.1,243.2v82.6c0,15.5,14.3,22.5,28.6,22.1V243.2H226.1z"/>
		<path class="st2" d="M283.2,325.8v-82.6h-28.5v104.7C269,347.4,283.2,339.7,283.2,325.8z"/>
		<path class="st4" d="M254.7,163.6c-120.9,0-71.9,159.7,0,159.7h0L254.7,163.6L254.7,163.6z"/>
		<path class="st5" d="M254.7,163.6v159.7C326.6,323.3,375.5,163.6,254.7,163.6z"/>
		<g>
			<path class="st6" d="M256.7,156.6c34.9,0,62.6,32.9,67.8,45.2c5.2,12.3,6.5,14.6,5.6,27.8c-0.9,13.2-13.8,22.7-15.8,8.3
				c-2.5-17.8-14-39.4-31-51.2c-4.1-2.8-16.3,3.1-28.6,9.7v-39.7C255.3,156.6,256,156.6,256.7,156.6z"/>
			<path class="st6" d="M333,225.3c-8.8,33.9-19.7,14.7-19.2,0.1c0.4-14.6-12.2-46.5-57.1-47.6c-0.7,0-1.4,0.1-2.1,0.1v-48.6
				C316.2,130.2,341.7,191.6,333,225.3z"/>
		</g>
		<path class="st7" d="M253.5,338.1c-20-0.3-39.6,4.6-72.5,26c-8.7,5.6-15.9,16.1-22.2,28.9c25.9,16.1,55.7,26.9,88.5,26.9
			c2.5,0,5-0.2,7.5-0.3v-81.4C254.3,338.1,253.9,338.1,253.5,338.1z"/>
		<path class="st8" d="M324.5,365.2c-32.4-20.3-50.7-26.6-69.8-27.1v81.4c33.9-1.5,65.3-12.9,91.1-31.5
			C337.6,378,331.9,369.8,324.5,365.2z"/>
		<path class="st7" d="M253.8,385.3"/>
		<path class="st9" d="M199.5,353c-5.7,3.1-11.8,6.7-18.5,11.1c-8.7,5.6-15.9,16.1-22.2,28.9c25.4,17.9,51,27.5,81.7,30.3
			c2.5,0.2,11.8,0.8,14.3,0.7v-27.2l-42.6-49.8C208.1,348.7,204,350.6,199.5,353z"/>
		<polygon class="st10" points="226,323.3 204.9,350.2 218,374.7 253.8,338.2 		"/>
		<path class="st11" d="M326.1,364.1c-11.2-7.1-20.9-12.2-29.5-16l-41.7,48.7l-0.2-0.1V424c34,0,69.8-10.3,95.6-28.9
			C344.7,384.7,334.5,369.4,326.1,364.1z"/>
		<polygon class="st12" points="283.2,323.8 303,350.7 289.8,375.2 254.7,338.7 		"/>
		<circle class="st13" cx="254.7" cy="362.8" r="5.3"/>
		<circle class="st13" cx="254.7" cy="378" r="5.3"/>
		<g>
			<g>
				<path class="st14" d="M235.3,193.4c-19.3,8.1-36.9,15.9-44.4,42.5c-3,10.5-8.5,4.5-10.9-4c-2.4-8.5-1.2-18.7,4-28.2
					c-0.9,1.6,41.8-44.8,70.6-47v39.7c-11.8,6.3-1.1,11.3-6,11.4C241.8,207.9,242,190.6,235.3,193.4z"/>
				<path class="st14" d="M195.2,224.9c-1.3,20.5-8.4,22.4-17.2,3.7c-8.8-18.7,12.7-99.2,75.2-99.4v0h0.1c0,0,0.1,0,0.1,0v0
					c0.4,0,0.8,0,1.2,0v48.6C215.5,178.8,196.5,204.8,195.2,224.9z"/>
			</g>
			<path class="st14" d="M249.3,130.7c0,0-6.6,6.3-28.4,3.3c-21.8-3-23.1-10.2-23.1-10.2s3,13.2,16.2,27.6c13.2,14.3,25.4-5,25.4-5
				l5.5-8L249.3,130.7z"/>
		</g>
		<path class="st4" d="M174.8,218.6c-4.4,1-6.1,10-3.9,20.2c2.3,10.2,7.7,17.7,12.1,16.7c4.4-1,6.1-10,3.9-20.2
			C184.6,225.1,179.2,217.6,174.8,218.6"/>
		<path class="st4" d="M332.2,218.6c4.4,1,6.1,10,3.9,20.2c-2.3,10.2-7.7,17.7-12.1,16.7c-4.4-1-6.1-10-3.9-20.2
			C322.4,225.1,327.8,217.6,332.2,218.6"/>
	</g>
</g>
<path class="st8" d="M261,466.2h-73.3l-0.7-0.5c-14.2-9.7-27.1-0.2-27.2-0.1l-0.7,0.5H91.9c-1.4,0-2.6-1.2-2.6-2.6s1.2-2.6,2.6-2.6
	h65.6c3.3-2.1,17-9.6,31.8,0H261c1.4,0,2.6,1.2,2.6,2.6S262.4,466.2,261,466.2z"/>
<path class="st8" d="M314.9,466.2h-44.6c-1.4,0-2.6-1.2-2.6-2.6s1.2-2.6,2.6-2.6h44.6c1.4,0,2.6,1.2,2.6,2.6
	S316.4,466.2,314.9,466.2z"/>
<path class="st8" d="M420.5,466.2h-72.2c-1.4,0-2.6-1.2-2.6-2.6s1.2-2.6,2.6-2.6h72.2c1.4,0,2.6,1.2,2.6,2.6S422,466.2,420.5,466.2z
	"/>
<path class="st8" d="M337.4,466.2h-15.1c-1.4,0-2.6-1.2-2.6-2.6s1.2-2.6,2.6-2.6h15.1c1.4,0,2.6,1.2,2.6,2.6
	S338.9,466.2,337.4,466.2z"/>
<path class="st8" d="M221.3,496.4h-76.3c-1.4,0-2.6-1.2-2.6-2.6c0-1.4,1.2-2.6,2.6-2.6h76.3c1.4,0,2.6,1.2,2.6,2.6
	C223.9,495.3,222.7,496.4,221.3,496.4z"/>
<path class="st8" d="M373.5,496.4H263.4c-1.4,0-2.6-1.2-2.6-2.6c0-1.4,1.2-2.6,2.6-2.6h110.1c1.4,0,2.6,1.2,2.6,2.6
	C376.1,495.3,374.9,496.4,373.5,496.4z"/>
<path class="st8" d="M248.1,496.4h-15.1c-1.4,0-2.6-1.2-2.6-2.6c0-1.4,1.2-2.6,2.6-2.6h15.1c1.4,0,2.6,1.2,2.6,2.6
	C250.7,495.3,249.6,496.4,248.1,496.4z"/>
<g>
	<path class="st8" d="M452.5,228h31.1c1.6,0,2.9,1.3,2.9,2.9v0c0,1.6-1.3,2.9-2.9,2.9h-31.1c-1.6,0-2.9-1.3-2.9-2.9v0
		C449.6,229.3,450.9,228,452.5,228z"/>
</g>
<path class="st8" d="M503.4,228h-8.7c-1.6,0-2.9,1.3-2.9,2.9v0c0,1.6,1.3,2.9,2.9,2.9h8.7c1.6,0,2.9-1.3,2.9-2.9v0
	C506.3,229.3,505,228,503.4,228z"/>
<path class="st8" d="M4.1,351.9h31.1c1.6,0,2.9,1.3,2.9,2.9l0,0c0,1.6-1.3,2.9-2.9,2.9H4.1c-1.6,0-2.9-1.3-2.9-2.9l0,0
	C1.2,353.2,2.5,351.9,4.1,351.9z"/>
<path class="st8" d="M55,351.9h-8.7c-1.6,0-2.9,1.3-2.9,2.9l0,0c0,1.6,1.3,2.9,2.9,2.9H55c1.6,0,2.9-1.3,2.9-2.9l0,0
	C57.9,353.2,56.6,351.9,55,351.9z"/>
<path class="st8" d="M72.4,67.7h31.1c1.6,0,2.9,1.3,2.9,2.9l0,0c0,1.6-1.3,2.9-2.9,2.9H72.4c-1.6,0-2.9-1.3-2.9-2.9l0,0
	C69.5,69,70.8,67.7,72.4,67.7z"/>
<path class="st8" d="M123.2,67.7h-8.7c-1.6,0-2.9,1.3-2.9,2.9l0,0c0,1.6,1.3,2.9,2.9,2.9h8.7c1.6,0,2.9-1.3,2.9-2.9l0,0
	C126.1,69,124.8,67.7,123.2,67.7z"/>
<path class="st8" d="M58.2,128.5H28.7c-1.1,0-2.1-0.9-2.1-2.1l0,0c0-1.1,0.9-2.1,2.1-2.1h29.6c1.1,0,2.1,0.9,2.1,2.1l0,0
	C60.3,127.6,59.4,128.5,58.2,128.5z"/>
<path class="st8" d="M45.5,111.6v29.6c0,1.1-0.9,2.1-2.1,2.1h0c-1.1,0-2.1-0.9-2.1-2.1v-29.6c0-1.1,0.9-2.1,2.1-2.1h0
	C44.6,109.6,45.5,110.5,45.5,111.6z"/>
<path class="st8" d="M462.5,109.6H433c-1.1,0-2.1-0.9-2.1-2.1l0,0c0-1.1,0.9-2.1,2.1-2.1h29.6c1.1,0,2.1,0.9,2.1,2.1l0,0
	C464.6,108.6,463.7,109.6,462.5,109.6z"/>
<path class="st8" d="M449.8,92.7v29.6c0,1.1-0.9,2.1-2.1,2.1l0,0c-1.1,0-2.1-0.9-2.1-2.1V92.7c0-1.1,0.9-2.1,2.1-2.1l0,0
	C448.9,90.6,449.8,91.6,449.8,92.7z"/>
<path class="st8" d="M495.2,298.6h-20.7c-0.8,0-1.4-0.6-1.4-1.4l0,0c0-0.8,0.6-1.4,1.4-1.4h20.7c0.8,0,1.4,0.6,1.4,1.4l0,0
	C496.7,297.9,496,298.6,495.2,298.6z"/>
<path class="st8" d="M486.3,286.8v20.7c0,0.8-0.6,1.4-1.4,1.4l0,0c-0.8,0-1.4-0.6-1.4-1.4v-20.7c0-0.8,0.6-1.4,1.4-1.4l0,0
	C485.7,285.3,486.3,286,486.3,286.8z"/>
<path class="st15" d="M356.1,35.1h-20.7c-0.8,0-1.4-0.6-1.4-1.4v0c0-0.8,0.6-1.4,1.4-1.4h20.7c0.8,0,1.4,0.6,1.4,1.4v0
	C357.6,34.5,356.9,35.1,356.1,35.1z"/>
<path class="st15" d="M347.2,23.3v20.8c0,0.8-0.6,1.4-1.4,1.4l0,0c-0.8,0-1.4-0.6-1.4-1.4V23.3c0-0.8,0.6-1.4,1.4-1.4l0,0
	C346.5,21.9,347.2,22.5,347.2,23.3z"/>
<path class="st8" d="M30.5,216.4c0,8-6.5,14.4-14.4,14.4c-7.9,0-14.4-6.4-14.4-14.4c0-7.9,6.5-14.4,14.4-14.4
	C24.1,202,30.5,208.4,30.5,216.4z"/>
<path class="st15" d="M63.2,177c0,5-4,9-9,9c-4.9,0-9-4-9-9c0-5,4-9,9-9C59.2,168,63.2,172,63.2,177z"/>
<circle class="st15" cx="457.9" cy="272.9" r="4.5"/>
<path class="st8" d="M496.8,260.4c0,2.5-2,4.5-4.5,4.5c-2.5,0-4.6-2-4.6-4.5c0-2.5,2-4.6,4.6-4.6
	C494.7,255.9,496.8,257.9,496.8,260.4z"/>
<path class="st8" d="M374.5,86.6c0-6.7,5.4-12.1,12.1-12.1c6.7,0,12.1,5.4,12.1,12.1c0,6.7-5.4,12.1-12.1,12.1
	C379.9,98.7,374.5,93.2,374.5,86.6z"/>
<path class="st16" d="M190.3,33.7c0-6.7,5.4-12.1,12.1-12.1c6.7,0,12.1,5.4,12.1,12.1s-5.4,12.1-12.1,12.1
	C195.7,45.8,190.3,40.4,190.3,33.7z"/>
<path class="st8" d="M445,156.9c0-3.5,2.9-6.4,6.4-6.4c3.5,0,6.4,2.9,6.4,6.4c0,3.5-2.9,6.4-6.4,6.4
	C447.9,163.3,445,160.4,445,156.9z"/>
<path class="st8" d="M219.3,15.2c0-3.5,2.9-6.4,6.4-6.4c3.5,0,6.4,2.9,6.4,6.4c0,3.5-2.9,6.4-6.4,6.4
	C222.1,21.6,219.3,18.7,219.3,15.2z"/>
<path class="st17" d="M238.9,45.8c0-3.5,2.9-6.4,6.4-6.4c3.5,0,6.4,2.9,6.4,6.4c0,3.5-2.9,6.4-6.4,6.4
	C241.7,52.2,238.9,49.3,238.9,45.8z"/>
<polygon class="st16" points="26.6,266 29.5,275.4 38.9,278.4 29.5,281.3 26.6,290.7 23.7,281.3 14.3,278.4 23.3,275.4 "/>
<polygon class="st17" points="454.6,342.5 457.5,351.9 466.9,354.8 457.5,357.8 454.6,367.2 451.6,357.8 442.3,354.8 451.3,351.9 
	"/>
<polygon class="st8" points="164.4,0 168,11.6 179.6,15.2 168,18.8 164.4,30.4 160.7,18.8 149.2,15.2 160.3,11.6 "/>
<path class="st8" d="M256,437.2c-99.9,0-181.2-81.3-181.2-181.2c0-99.9,81.3-181.2,181.2-181.2c99.9,0,181.2,81.3,181.2,181.2
	C437.2,355.9,355.9,437.2,256,437.2z M256,89.1c-92,0-166.9,74.9-166.9,166.9S163.9,422.9,256,422.9c92,0,166.9-74.9,166.9-166.9
	S348,89.1,256,89.1z"/>
</svg>
