<?xml version="1.0" encoding="utf-8"?>
<!-- Generator: Adobe Illustrator 21.1.0, SVG Export Plug-In . SVG Version: 6.00 Build 0)  -->
<svg version="1.1" id="Layer_1" xmlns="http://www.w3.org/2000/svg" xmlns:xlink="http://www.w3.org/1999/xlink" x="0px" y="0px"
	 viewBox="0 0 512 512" style="enable-background:new 0 0 512 512;" xml:space="preserve">
<style type="text/css">
	.st0{fill:#2695A3;}
	.st1{fill:#2C808F;}
	.st2{fill:#FF4612;}
	.st3{fill:#BF350E;}
	.st4{fill:#FCC57F;}
	.st5{fill:#FFD8AA;}
	.st6{fill:#FFE6C8;}
	.st7{fill:#F4DBAD;}
	.st8{fill:#FFFFFF;}
	.st9{fill:#B485BB;}
	.st10{fill:#7D7083;}
	.st11{fill:#F1F1F2;}
	.st12{fill:#FFDD15;}
	.st13{fill:#8BC53F;}
	.st14{fill:#F6921E;}
</style>
<g>
	<path class="st0" d="M256,88c-92.8,0-168,75.2-168,168c0,92.8,75.2,168,168,168h0L256,88L256,88z"/>
	<path class="st1" d="M424,256c0-92.8-75.2-168-168-168v336C348.8,424,424,348.8,424,256z"/>
	<g>
		<g>
			<path class="st2" d="M256,150.3c-41.7,0.2-75.5,34.1-75.5,75.8v106.7c0,41.8,33.8,75.7,75.5,75.8V150.3z"/>
			<path class="st3" d="M256,150.3v258.4c41.6-0.4,75.1-34.2,75.1-75.8V226.1C331.2,184.5,297.6,150.7,256,150.3z"/>
		</g>
		<polygon class="st4" points="280.8,304.2 280.8,295.1 231.7,295.1 231.7,328.5 		"/>
		<path class="st5" d="M231.9,281.9v45.8c0,0-5.7,7.2-7.3,12c-2,5.9,1,17,1,17l-9.9,27.9c3.2,8.9,31.2,17.2,41.3,16.9V281.9H231.9z"
			/>
		<path class="st4" d="M298.4,347.1l-13.7-15.2c0,0-1.3-4.2-3.3-6.7v-70.8h-25.2v150.1c12.2-0.3,36.9,4.4,37.6-6.8l10.6-39.4
			L298.4,347.1z"/>
		<path class="st6" d="M257,323.3V201.7c-19.8,0-34.3,4.5-44.4,11.7C170.2,243.8,207.2,323.1,257,323.3z"/>
		<path class="st7" d="M256.2,201.7c-0.1,0-0.1,0-0.2,0v121.7c0.1,0,0.1,0,0.2,0C318,323.3,360.2,201.7,256.2,201.7z"/>
		<path class="st7" d="M324.1,240.3c3.8,0.8,5.3,8.6,3.3,17.4c-2,8.8-6.6,15.2-10.4,14.3c-3.8-0.8-5.3-8.6-3.3-17.4
			C315.6,245.9,320.3,239.5,324.1,240.3"/>
		<path class="st6" d="M188.5,238.5c-3.8,0.9-5.3,8.6-3.3,17.4c1.9,8.8,6.6,15.2,10.4,14.3c3.8-0.8,5.3-8.6,3.3-17.4
			C197,244.1,192.3,237.7,188.5,238.5"/>
		<path class="st8" d="M231.8,327.7c0,0-1.3,19.7,24.4,19.7c25.6,0,25.1-22.2,25.1-22.2l9.2,17.2l-0.9,27.2c0,0-15.9,8.1-17.2,8.1
			c-1.4,0-30-4.4-30-4.4l-9.1-7.4l-9.8-12.5l2-13.8L231.8,327.7z"/>
		<g>
			<path class="st9" d="M228.8,338.6c0-5.2,0.6-6.7,3-10.9l-16.1,18.2c-6.6,3.2-13.8,7.3-21.9,12.5c-9.6,6.2-21.1,25.2-27.1,39.3
				c24.5,17.3,60.3,27,90.3,26.2v-56.7C241.4,367.1,228.8,354.3,228.8,338.6z"/>
			<path class="st10" d="M318.7,358.4c-7.5-4.7-14.1-8.4-20.2-11.4l-7.2-10.1l-10-11.8c1.6,3.6,4.5,9.2,4.5,13.4
				c0,15.9-12.8,28.7-28.5,28.7c-0.1,0-0.2,0-0.3,0v56.7c0.1,0,0.2,0,0.3,0c32.3,0,63.6-9.7,87.9-26
				C339.2,383.3,328.7,364.7,318.7,358.4z"/>
		</g>
		<path class="st2" d="M256,201.6c0,0-30.7,55.6-62.1,34.2c-31.4-21.3,44.2-43,44.2-43l17.9,4.1V201.6z"/>
		<path class="st3" d="M256,201.7c0,0,32.7,55.5,64.2,34.1c31.5-21.4-44.3-43.1-44.3-43.1L256,197V201.7z"/>
	</g>
</g>
<path class="st11" d="M261,466.2h-73.3l-0.7-0.5c-14.2-9.7-27.1-0.2-27.2-0.1l-0.7,0.5H91.9c-1.4,0-2.6-1.2-2.6-2.6s1.2-2.6,2.6-2.6
	h65.6c3.3-2.1,17-9.6,31.8,0H261c1.4,0,2.6,1.2,2.6,2.6S262.4,466.2,261,466.2z"/>
<path class="st11" d="M314.9,466.2h-44.6c-1.4,0-2.6-1.2-2.6-2.6s1.2-2.6,2.6-2.6h44.6c1.4,0,2.6,1.2,2.6,2.6
	S316.4,466.2,314.9,466.2z"/>
<path class="st11" d="M420.5,466.2h-72.2c-1.4,0-2.6-1.2-2.6-2.6s1.2-2.6,2.6-2.6h72.2c1.4,0,2.6,1.2,2.6,2.6S422,466.2,420.5,466.2
	z"/>
<path class="st11" d="M337.4,466.2h-15.1c-1.4,0-2.6-1.2-2.6-2.6s1.2-2.6,2.6-2.6h15.1c1.4,0,2.6,1.2,2.6,2.6
	S338.9,466.2,337.4,466.2z"/>
<path class="st11" d="M221.3,496.4h-76.3c-1.4,0-2.6-1.2-2.6-2.6c0-1.4,1.2-2.6,2.6-2.6h76.3c1.4,0,2.6,1.2,2.6,2.6
	C223.9,495.3,222.7,496.4,221.3,496.4z"/>
<path class="st11" d="M373.5,496.4H263.4c-1.4,0-2.6-1.2-2.6-2.6c0-1.4,1.2-2.6,2.6-2.6h110.1c1.4,0,2.6,1.2,2.6,2.6
	C376.1,495.3,374.9,496.4,373.5,496.4z"/>
<path class="st11" d="M248.1,496.4h-15.1c-1.4,0-2.6-1.2-2.6-2.6c0-1.4,1.2-2.6,2.6-2.6h15.1c1.4,0,2.6,1.2,2.6,2.6
	C250.7,495.3,249.6,496.4,248.1,496.4z"/>
<g>
	<path class="st11" d="M452.5,228h31.1c1.6,0,2.9,1.3,2.9,2.9v0c0,1.6-1.3,2.9-2.9,2.9h-31.1c-1.6,0-2.9-1.3-2.9-2.9v0
		C449.6,229.3,450.9,228,452.5,228z"/>
</g>
<path class="st11" d="M503.4,228h-8.7c-1.6,0-2.9,1.3-2.9,2.9v0c0,1.6,1.3,2.9,2.9,2.9h8.7c1.6,0,2.9-1.3,2.9-2.9v0
	C506.3,229.3,505,228,503.4,228z"/>
<path class="st11" d="M4.1,351.9h31.1c1.6,0,2.9,1.3,2.9,2.9l0,0c0,1.6-1.3,2.9-2.9,2.9H4.1c-1.6,0-2.9-1.3-2.9-2.9l0,0
	C1.2,353.2,2.5,351.9,4.1,351.9z"/>
<path class="st11" d="M55,351.9h-8.7c-1.6,0-2.9,1.3-2.9,2.9l0,0c0,1.6,1.3,2.9,2.9,2.9H55c1.6,0,2.9-1.3,2.9-2.9l0,0
	C57.9,353.2,56.6,351.9,55,351.9z"/>
<path class="st11" d="M72.4,67.7h31.1c1.6,0,2.9,1.3,2.9,2.9l0,0c0,1.6-1.3,2.9-2.9,2.9H72.4c-1.6,0-2.9-1.3-2.9-2.9l0,0
	C69.5,69,70.8,67.7,72.4,67.7z"/>
<path class="st11" d="M123.2,67.7h-8.7c-1.6,0-2.9,1.3-2.9,2.9l0,0c0,1.6,1.3,2.9,2.9,2.9h8.7c1.6,0,2.9-1.3,2.9-2.9l0,0
	C126.1,69,124.8,67.7,123.2,67.7z"/>
<path class="st11" d="M58.2,128.5H28.7c-1.1,0-2.1-0.9-2.1-2.1l0,0c0-1.1,0.9-2.1,2.1-2.1h29.6c1.1,0,2.1,0.9,2.1,2.1l0,0
	C60.3,127.6,59.4,128.5,58.2,128.5z"/>
<path class="st11" d="M45.5,111.6v29.6c0,1.1-0.9,2.1-2.1,2.1h0c-1.1,0-2.1-0.9-2.1-2.1v-29.6c0-1.1,0.9-2.1,2.1-2.1h0
	C44.6,109.6,45.5,110.5,45.5,111.6z"/>
<path class="st11" d="M462.5,109.6H433c-1.1,0-2.1-0.9-2.1-2.1l0,0c0-1.1,0.9-2.1,2.1-2.1h29.6c1.1,0,2.1,0.9,2.1,2.1l0,0
	C464.6,108.6,463.7,109.6,462.5,109.6z"/>
<path class="st11" d="M449.8,92.7v29.6c0,1.1-0.9,2.1-2.1,2.1l0,0c-1.1,0-2.1-0.9-2.1-2.1V92.7c0-1.1,0.9-2.1,2.1-2.1l0,0
	C448.9,90.6,449.8,91.6,449.8,92.7z"/>
<path class="st11" d="M495.2,298.6h-20.7c-0.8,0-1.4-0.6-1.4-1.4l0,0c0-0.8,0.6-1.4,1.4-1.4h20.7c0.8,0,1.4,0.6,1.4,1.4l0,0
	C496.7,297.9,496,298.6,495.2,298.6z"/>
<path class="st11" d="M486.3,286.8v20.7c0,0.8-0.6,1.4-1.4,1.4l0,0c-0.8,0-1.4-0.6-1.4-1.4v-20.7c0-0.8,0.6-1.4,1.4-1.4l0,0
	C485.7,285.3,486.3,286,486.3,286.8z"/>
<path class="st12" d="M356.1,35.1h-20.7c-0.8,0-1.4-0.6-1.4-1.4v0c0-0.8,0.6-1.4,1.4-1.4h20.7c0.8,0,1.4,0.6,1.4,1.4v0
	C357.6,34.5,356.9,35.1,356.1,35.1z"/>
<path class="st12" d="M347.2,23.3v20.8c0,0.8-0.6,1.4-1.4,1.4l0,0c-0.8,0-1.4-0.6-1.4-1.4V23.3c0-0.8,0.6-1.4,1.4-1.4l0,0
	C346.5,21.9,347.2,22.5,347.2,23.3z"/>
<path class="st11" d="M30.5,216.4c0,8-6.5,14.4-14.4,14.4c-7.9,0-14.4-6.4-14.4-14.4c0-7.9,6.5-14.4,14.4-14.4
	C24.1,202,30.5,208.4,30.5,216.4z"/>
<path class="st12" d="M63.2,177c0,5-4,9-9,9c-4.9,0-9-4-9-9c0-5,4-9,9-9C59.2,168,63.2,172,63.2,177z"/>
<circle class="st12" cx="457.9" cy="272.9" r="4.5"/>
<path class="st11" d="M496.8,260.4c0,2.5-2,4.5-4.5,4.5c-2.5,0-4.6-2-4.6-4.5c0-2.5,2-4.6,4.6-4.6
	C494.7,255.9,496.8,257.9,496.8,260.4z"/>
<path class="st11" d="M374.5,86.6c0-6.7,5.4-12.1,12.1-12.1c6.7,0,12.1,5.4,12.1,12.1c0,6.7-5.4,12.1-12.1,12.1
	C379.9,98.7,374.5,93.2,374.5,86.6z"/>
<path class="st13" d="M190.3,33.7c0-6.7,5.4-12.1,12.1-12.1c6.7,0,12.1,5.4,12.1,12.1s-5.4,12.1-12.1,12.1
	C195.7,45.8,190.3,40.4,190.3,33.7z"/>
<path class="st11" d="M445,156.9c0-3.5,2.9-6.4,6.4-6.4c3.5,0,6.4,2.9,6.4,6.4c0,3.5-2.9,6.4-6.4,6.4
	C447.9,163.3,445,160.4,445,156.9z"/>
<path class="st11" d="M219.3,15.2c0-3.5,2.9-6.4,6.4-6.4c3.5,0,6.4,2.9,6.4,6.4c0,3.5-2.9,6.4-6.4,6.4
	C222.1,21.6,219.3,18.7,219.3,15.2z"/>
<path class="st14" d="M238.9,45.8c0-3.5,2.9-6.4,6.4-6.4c3.5,0,6.4,2.9,6.4,6.4c0,3.5-2.9,6.4-6.4,6.4
	C241.7,52.2,238.9,49.3,238.9,45.8z"/>
<polygon class="st13" points="26.6,266 29.5,275.4 38.9,278.4 29.5,281.3 26.6,290.7 23.7,281.3 14.3,278.4 23.3,275.4 "/>
<polygon class="st14" points="454.6,342.5 457.5,351.9 466.9,354.8 457.5,357.8 454.6,367.2 451.6,357.8 442.3,354.8 451.3,351.9 
	"/>
<polygon class="st11" points="164.4,0 168,11.6 179.6,15.2 168,18.8 164.4,30.4 160.7,18.8 149.2,15.2 160.3,11.6 "/>
<path class="st11" d="M256,437.2c-99.9,0-181.2-81.3-181.2-181.2c0-99.9,81.3-181.2,181.2-181.2c99.9,0,181.2,81.3,181.2,181.2
	C437.2,355.9,355.9,437.2,256,437.2z M256,89.1c-92,0-166.9,74.9-166.9,166.9S163.9,422.9,256,422.9c92,0,166.9-74.9,166.9-166.9
	S348,89.1,256,89.1z"/>
</svg>
