<?xml version="1.0" encoding="utf-8"?>
<!-- Generator: Adobe Illustrator 21.1.0, SVG Export Plug-In . SVG Version: 6.00 Build 0)  -->
<svg version="1.1" id="Layer_1" xmlns="http://www.w3.org/2000/svg" xmlns:xlink="http://www.w3.org/1999/xlink" x="0px" y="0px"
	 viewBox="0 0 512 512" style="enable-background:new 0 0 512 512;" xml:space="preserve">
<style type="text/css">
	.st0{fill:#8D73AB;}
	.st1{fill:#8067A5;}
	.st2{fill:#FCC57F;}
	.st3{fill:#FFD8AA;}
	.st4{fill:#FFE6C8;}
	.st5{fill:#F4DBAD;}
	.st6{fill:#E09B4A;}
	.st7{fill:#FFFFFF;}
	.st8{fill:#F1F1F2;}
	.st9{fill:#F4E9CD;}
	.st10{fill:#EED8A3;}
	.st11{fill:#F3B98B;}
	.st12{fill:#2B388F;}
	.st13{fill:#262261;}
	.st14{fill:#FFDD15;}
	.st15{fill:#8BC53F;}
	.st16{fill:#F6921E;}
</style>
<g>
	<path class="st0" d="M256,88c-92.8,0-168,75.2-168,168c0,92.8,75.2,168,168,168h0L256,88L256,88z"/>
	<path class="st1" d="M424,256c0-92.8-75.2-168-168-168v336C348.8,424,424,348.8,424,256z"/>
	<g>
		<polygon class="st2" points="281.2,310.7 281.2,301.5 231.1,301.5 231.1,335.6 		"/>
		<path class="st3" d="M231.1,265.2v72.5c0,13.7,12.6,19.8,25.1,19.4v-91.9H231.1z"/>
		<path class="st2" d="M281.2,337.7v-72.5h-25v91.9C268.7,356.8,281.2,350,281.2,337.7z"/>
		<path class="st4" d="M256.2,195.3c-106.2,0-63.2,140.3,0,140.3h0L256.2,195.3L256.2,195.3z"/>
		<path class="st5" d="M256.2,195.3v140.3C319.3,335.5,362.3,195.3,256.2,195.3z"/>
		<path class="st6" d="M257.9,189.1c30.7,0,55,28.9,59.6,39.7c4.6,10.8,5.7,12.8,4.9,24.4c-0.8,11.6-12.1,19.9-13.9,7.3
			c-2.3-15.6-12.3-34.6-27.3-45c-3.6-2.5-14.3,2.8-25.1,8.5v-34.9C256.7,189.1,257.3,189.1,257.9,189.1z"/>
		<path class="st6" d="M324.9,249.5c-7.7,29.8-17.3,12.9-16.9,0.1c0.4-12.8-10.7-40.8-50.2-41.8c-0.6,0-1.2,0.1-1.8,0.1v-42.7
			C310.2,166,332.6,219.9,324.9,249.5z"/>
		<path class="st7" d="M255.1,348.6c-17.6-0.2-34.8,4.1-63.7,22.8c-7.6,4.9-13.9,14.1-19.5,25.4c22.7,14.2,49,23.6,77.7,23.6
			c2.2,0,4.4-0.2,6.6-0.2v-71.5C255.8,348.6,255.5,348.6,255.1,348.6z"/>
		<path class="st8" d="M317.5,372.4C289,354.6,273,349,256.2,348.6v71.5c29.8-1.3,57.3-11.3,80.1-27.7
			C329,383.7,324,376.5,317.5,372.4z"/>
		<path class="st7" d="M255.4,390"/>
		<polygon class="st9" points="231,335.6 217.1,358.6 224,380.7 256.2,348.6 		"/>
		<polygon class="st10" points="281.2,336.1 294.7,360.6 287,381.2 256.2,348.6 		"/>
		<g>
			<path class="st11" d="M239.1,221.5c-16.9,7.1-32.4,14-39,37.3c-2.6,9.2-7.5,4-9.6-3.5c-2.1-7.5-1-16.5,3.5-24.8
				c-0.8,1.4,36.7-39.3,62.1-41.3v34.9C245.7,229.6,245,219,239.1,221.5z"/>
			<path class="st11" d="M203.9,249.2c-1.1,18-7.4,19.7-15.1,3.3c-7.7-16.4,11.1-87.2,66.1-87.3v0h0.1c0,0,0.1,0,0.1,0l0,0
				c0.4,0,0.7,0,1.1,0v42.7C221.7,208.6,205,231.4,203.9,249.2z"/>
		</g>
		<path class="st4" d="M186,243.6c-3.9,0.9-5.4,8.8-3.4,17.8c2,9,6.8,15.5,10.6,14.7c3.9-0.9,5.4-8.8,3.4-17.8
			C194.6,249.3,189.9,242.7,186,243.6"/>
		<path class="st4" d="M324.3,243.6c3.9,0.9,5.4,8.8,3.4,17.8c-2,9-6.8,15.5-10.6,14.7c-3.9-0.9-5.4-8.8-3.4-17.8
			C315.7,249.3,320.4,242.7,324.3,243.6"/>
		<path class="st12" d="M207.7,361.7c-5,2.7-10.4,5.9-16.3,9.7c-7.6,4.9-16.4,17-22,28.2c23.5,14.8,47.1,22.5,74.9,24.1
			c2.2,0.1,9.7,0.4,11.9,0.3v-23.9l-37.4-43.7C215.3,357.9,211.6,359.6,207.7,361.7z"/>
		<path class="st13" d="M318.9,371.4c-9.8-6.2-18.3-10.7-25.9-14.1l-36.6,42.7l-0.2,0v24c29.9,0,58.2-5.6,86.4-23.1
			C337.6,391.8,326.3,376.1,318.9,371.4z"/>
	</g>
</g>
<path class="st8" d="M261,466.2h-73.3l-0.7-0.5c-14.2-9.7-27.1-0.2-27.2-0.1l-0.7,0.5H91.9c-1.4,0-2.6-1.2-2.6-2.6s1.2-2.6,2.6-2.6
	h65.6c3.3-2.1,17-9.6,31.8,0H261c1.4,0,2.6,1.2,2.6,2.6S262.4,466.2,261,466.2z"/>
<path class="st8" d="M314.9,466.2h-44.6c-1.4,0-2.6-1.2-2.6-2.6s1.2-2.6,2.6-2.6h44.6c1.4,0,2.6,1.2,2.6,2.6
	S316.4,466.2,314.9,466.2z"/>
<path class="st8" d="M420.5,466.2h-72.2c-1.4,0-2.6-1.2-2.6-2.6s1.2-2.6,2.6-2.6h72.2c1.4,0,2.6,1.2,2.6,2.6S422,466.2,420.5,466.2z
	"/>
<path class="st8" d="M337.4,466.2h-15.1c-1.4,0-2.6-1.2-2.6-2.6s1.2-2.6,2.6-2.6h15.1c1.4,0,2.6,1.2,2.6,2.6
	S338.9,466.2,337.4,466.2z"/>
<path class="st8" d="M221.3,496.4h-76.3c-1.4,0-2.6-1.2-2.6-2.6c0-1.4,1.2-2.6,2.6-2.6h76.3c1.4,0,2.6,1.2,2.6,2.6
	C223.9,495.3,222.7,496.4,221.3,496.4z"/>
<path class="st8" d="M373.5,496.4H263.4c-1.4,0-2.6-1.2-2.6-2.6c0-1.4,1.2-2.6,2.6-2.6h110.1c1.4,0,2.6,1.2,2.6,2.6
	C376.1,495.3,374.9,496.4,373.5,496.4z"/>
<path class="st8" d="M248.1,496.4h-15.1c-1.4,0-2.6-1.2-2.6-2.6c0-1.4,1.2-2.6,2.6-2.6h15.1c1.4,0,2.6,1.2,2.6,2.6
	C250.7,495.3,249.6,496.4,248.1,496.4z"/>
<g>
	<path class="st8" d="M452.5,228h31.1c1.6,0,2.9,1.3,2.9,2.9v0c0,1.6-1.3,2.9-2.9,2.9h-31.1c-1.6,0-2.9-1.3-2.9-2.9v0
		C449.6,229.3,450.9,228,452.5,228z"/>
</g>
<path class="st8" d="M503.4,228h-8.7c-1.6,0-2.9,1.3-2.9,2.9v0c0,1.6,1.3,2.9,2.9,2.9h8.7c1.6,0,2.9-1.3,2.9-2.9v0
	C506.3,229.3,505,228,503.4,228z"/>
<path class="st8" d="M4.1,351.9h31.1c1.6,0,2.9,1.3,2.9,2.9l0,0c0,1.6-1.3,2.9-2.9,2.9H4.1c-1.6,0-2.9-1.3-2.9-2.9l0,0
	C1.2,353.2,2.5,351.9,4.1,351.9z"/>
<path class="st8" d="M55,351.9h-8.7c-1.6,0-2.9,1.3-2.9,2.9l0,0c0,1.6,1.3,2.9,2.9,2.9H55c1.6,0,2.9-1.3,2.9-2.9l0,0
	C57.9,353.2,56.6,351.9,55,351.9z"/>
<path class="st8" d="M72.4,67.7h31.1c1.6,0,2.9,1.3,2.9,2.9l0,0c0,1.6-1.3,2.9-2.9,2.9H72.4c-1.6,0-2.9-1.3-2.9-2.9l0,0
	C69.5,69,70.8,67.7,72.4,67.7z"/>
<path class="st8" d="M123.2,67.7h-8.7c-1.6,0-2.9,1.3-2.9,2.9l0,0c0,1.6,1.3,2.9,2.9,2.9h8.7c1.6,0,2.9-1.3,2.9-2.9l0,0
	C126.1,69,124.8,67.7,123.2,67.7z"/>
<path class="st8" d="M58.2,128.5H28.7c-1.1,0-2.1-0.9-2.1-2.1l0,0c0-1.1,0.9-2.1,2.1-2.1h29.6c1.1,0,2.1,0.9,2.1,2.1l0,0
	C60.3,127.6,59.4,128.5,58.2,128.5z"/>
<path class="st8" d="M45.5,111.6v29.6c0,1.1-0.9,2.1-2.1,2.1h0c-1.1,0-2.1-0.9-2.1-2.1v-29.6c0-1.1,0.9-2.1,2.1-2.1h0
	C44.6,109.6,45.5,110.5,45.5,111.6z"/>
<path class="st8" d="M462.5,109.6H433c-1.1,0-2.1-0.9-2.1-2.1l0,0c0-1.1,0.9-2.1,2.1-2.1h29.6c1.1,0,2.1,0.9,2.1,2.1l0,0
	C464.6,108.6,463.7,109.6,462.5,109.6z"/>
<path class="st8" d="M449.8,92.7v29.6c0,1.1-0.9,2.1-2.1,2.1l0,0c-1.1,0-2.1-0.9-2.1-2.1V92.7c0-1.1,0.9-2.1,2.1-2.1l0,0
	C448.9,90.6,449.8,91.6,449.8,92.7z"/>
<path class="st8" d="M495.2,298.6h-20.7c-0.8,0-1.4-0.6-1.4-1.4l0,0c0-0.8,0.6-1.4,1.4-1.4h20.7c0.8,0,1.4,0.6,1.4,1.4l0,0
	C496.7,297.9,496,298.6,495.2,298.6z"/>
<path class="st8" d="M486.3,286.8v20.7c0,0.8-0.6,1.4-1.4,1.4l0,0c-0.8,0-1.4-0.6-1.4-1.4v-20.7c0-0.8,0.6-1.4,1.4-1.4l0,0
	C485.7,285.3,486.3,286,486.3,286.8z"/>
<path class="st14" d="M356.1,35.1h-20.7c-0.8,0-1.4-0.6-1.4-1.4v0c0-0.8,0.6-1.4,1.4-1.4h20.7c0.8,0,1.4,0.6,1.4,1.4v0
	C357.6,34.5,356.9,35.1,356.1,35.1z"/>
<path class="st14" d="M347.2,23.3v20.8c0,0.8-0.6,1.4-1.4,1.4l0,0c-0.8,0-1.4-0.6-1.4-1.4V23.3c0-0.8,0.6-1.4,1.4-1.4l0,0
	C346.5,21.9,347.2,22.5,347.2,23.3z"/>
<path class="st8" d="M30.5,216.4c0,8-6.5,14.4-14.4,14.4c-7.9,0-14.4-6.4-14.4-14.4c0-7.9,6.5-14.4,14.4-14.4
	C24.1,202,30.5,208.4,30.5,216.4z"/>
<path class="st14" d="M63.2,177c0,5-4,9-9,9c-4.9,0-9-4-9-9c0-5,4-9,9-9C59.2,168,63.2,172,63.2,177z"/>
<circle class="st14" cx="457.9" cy="272.9" r="4.5"/>
<path class="st8" d="M496.8,260.4c0,2.5-2,4.5-4.5,4.5c-2.5,0-4.6-2-4.6-4.5c0-2.5,2-4.6,4.6-4.6
	C494.7,255.9,496.8,257.9,496.8,260.4z"/>
<path class="st8" d="M374.5,86.6c0-6.7,5.4-12.1,12.1-12.1c6.7,0,12.1,5.4,12.1,12.1c0,6.7-5.4,12.1-12.1,12.1
	C379.9,98.7,374.5,93.2,374.5,86.6z"/>
<path class="st15" d="M190.3,33.7c0-6.7,5.4-12.1,12.1-12.1c6.7,0,12.1,5.4,12.1,12.1s-5.4,12.1-12.1,12.1
	C195.7,45.8,190.3,40.4,190.3,33.7z"/>
<path class="st8" d="M445,156.9c0-3.5,2.9-6.4,6.4-6.4c3.5,0,6.4,2.9,6.4,6.4c0,3.5-2.9,6.4-6.4,6.4
	C447.9,163.3,445,160.4,445,156.9z"/>
<path class="st8" d="M219.3,15.2c0-3.5,2.9-6.4,6.4-6.4c3.5,0,6.4,2.9,6.4,6.4c0,3.5-2.9,6.4-6.4,6.4
	C222.1,21.6,219.3,18.7,219.3,15.2z"/>
<path class="st16" d="M238.9,45.8c0-3.5,2.9-6.4,6.4-6.4c3.5,0,6.4,2.9,6.4,6.4c0,3.5-2.9,6.4-6.4,6.4
	C241.7,52.2,238.9,49.3,238.9,45.8z"/>
<polygon class="st15" points="26.6,266 29.5,275.4 38.9,278.4 29.5,281.3 26.6,290.7 23.7,281.3 14.3,278.4 23.3,275.4 "/>
<polygon class="st16" points="454.6,342.5 457.5,351.9 466.9,354.8 457.5,357.8 454.6,367.2 451.6,357.8 442.3,354.8 451.3,351.9 
	"/>
<polygon class="st8" points="164.4,0 168,11.6 179.6,15.2 168,18.8 164.4,30.4 160.7,18.8 149.2,15.2 160.3,11.6 "/>
<path class="st8" d="M256,437.2c-99.9,0-181.2-81.3-181.2-181.2c0-99.9,81.3-181.2,181.2-181.2c99.9,0,181.2,81.3,181.2,181.2
	C437.2,355.9,355.9,437.2,256,437.2z M256,89.1c-92,0-166.9,74.9-166.9,166.9S163.9,422.9,256,422.9c92,0,166.9-74.9,166.9-166.9
	S348,89.1,256,89.1z"/>
</svg>
