<?xml version="1.0" encoding="utf-8"?>
<!-- Generator: Adobe Illustrator 21.1.0, SVG Export Plug-In . SVG Version: 6.00 Build 0)  -->
<svg version="1.1" id="Layer_1" xmlns="http://www.w3.org/2000/svg" xmlns:xlink="http://www.w3.org/1999/xlink" x="0px" y="0px"
	 viewBox="0 0 512 512" style="enable-background:new 0 0 512 512;" xml:space="preserve">
<style type="text/css">
	.st0{fill:#2493C5;}
	.st1{fill:#0088BE;}
	.st2{fill:#231F20;}
	.st3{fill:#FFD8AA;}
	.st4{fill:#FCC57F;}
	.st5{fill:#FFE6C8;}
	.st6{fill:#F4DBAD;}
	.st7{fill:#F6921E;}
	.st8{fill:#CA2027;}
	.st9{fill:#F1F1F2;}
	.st10{fill:#FFDD15;}
	.st11{fill:#8BC53F;}
</style>
<g>
	<path class="st0" d="M256,88c-92.8,0-168,75.2-168,168s75.2,168,168,168c1.2,0,2.3-0.1,3.4-0.2V88.2C258.3,88.1,257.2,88,256,88z"
		/>
	<path class="st1" d="M424,256c0-91.6-73.4-166-164.6-167.8v335.7C350.6,422,424,347.6,424,256z"/>
	<g>
		<path class="st2" d="M187.7,233.3c5.1,28.9,0.3,66.3-14,77.2c-6.1,6.8,4.3,11.7,29.8,1.1c13.7-5.7,7.8,13.3,31.7,0.9
			c49.6-25.9,9-124.6-37.7-74.7"/>
		<path class="st2" d="M332.9,221.4c-5.1,28.9-2.9,77.3,11.4,88.2c6.1,6.8-14.4,18.3-36.9,3.7c-11.7-7.6-0.8,10.7-24.6-1.7
			c-49.6-25.9-9-124.6,37.7-74.7"/>
		<path class="st3" d="M232.5,265.7v78.7c0,14.7,13.5,21.4,27,21.1l0.7-99.7H232.5z"/>
		<path class="st4" d="M287.8,348.1V235.2h-27.4l-0.9,130.2C273.1,365.1,287.8,361.5,287.8,348.1z"/>
		<path class="st5" d="M259.6,311.5V159.5C144.9,159.7,191.3,311.2,259.6,311.5z"/>
		<path class="st6" d="M259.8,159.4c-0.1,0-0.1,0-0.2,0v152.1c0.1,0,0.2,0,0.2,0C328.3,311.6,375,159.4,259.8,159.4z"/>
		<path class="st2" d="M185.1,218.2c8.4,32.3,18.7,14,18.3,0.1c-0.4-13.9,11.6-44.2,54.4-45.4c0.6,0,1.1,0.1,1.7,0.1v-46.2
			C201,127.8,176.9,186.1,185.1,218.2z"/>
		<path class="st2" d="M316.4,217.8c1.3,19.6,8.1,21.4,16.4,3.6c8.3-17.8-12.1-94.6-71.7-94.7v0h-0.1c-0.1,0-0.1,0-0.1,0v0
			c-0.5,0-0.9,0-1.4,0.1V173C297,173.8,315.2,198.6,316.4,217.8z"/>
		<path class="st2" d="M257.8,152.7c-33.3,0-59.7,31.3-64.6,43.1c-5,11.7-6.2,13.9-5.3,26.5c0.9,12.6,13.1,21.6,15.1,8
			c2.5-16.9,13.3-37.5,29.6-48.8c7.6-5.3-26.3,29.2-16.7,29.4c4.2,0.1,26.8-15.4,43.7-25.4v-32.7C259,152.8,258.4,152.7,257.8,152.7
			z"/>
		<path class="st2" d="M278,177.4c18.4,7.7,35.3,25.6,42.5,50.9c2.9,9.9,8.1,4.3,10.4-3.8c2.3-8.1,1.1-17.9-3.8-26.9
			c0.9,1.5-40-42.9-67.5-44.8v32.7C268.5,180.2,275.8,176.5,278,177.4z"/>
		<path class="st5" d="M333.8,211.8c4.2,0.9,5.8,9.6,3.7,19.3c-2.2,9.7-7.3,16.8-11.5,15.9c-4.2-0.9-5.8-9.6-3.7-19.3
			C324.5,218,329.6,210.9,333.8,211.8"/>
		<path class="st5" d="M183.7,211.8c-4.2,0.9-5.8,9.6-3.7,19.3c2.1,9.7,7.3,16.8,11.5,15.9c4.2-0.9,5.8-9.6,3.7-19.3
			C193.1,218,187.9,210.9,183.7,211.8"/>
		<path class="st3" d="M232.3,315.5c0,0-6.9,8.8-8.7,14c-2.2,6.5,1.1,18.9,1.1,18.9l11.9,3.9l4.7-3.5l2.3-11.5L232.3,315.5z"/>
		<path class="st4" d="M274.2,317.3l2.4,27.5l7.4,4.4h13.2v-9.3l-5.9-21.2c0,0-1-1.1-2-2.5c-0.4-0.5-1.4-1.8-1.4-1.8
			c-1.2-1.2-2.4-2.1-3.9-2.1C280.2,312.3,274.2,317.3,274.2,317.3z"/>
		<path class="st7" d="M228.3,328.5c0-5.7,0.7-7.5,3.4-12.1l-17.9,20.2c-7.2,3.5-15.2,8-24.2,13.9c-10.6,6.9-22.7,28-29.4,43.6
			c31.8,22.5,64.3,30,99.4,29.8v-63.6C242.3,360,228.3,345.9,228.3,328.5z"/>
		<path class="st8" d="M327.9,350.4c-8.3-5.2-22-13.3-22-13.3l-8.3-10.5l-9.8-12.3c1.7,4,3.8,9.5,3.8,14.1
			c0,17.5-14.2,31.8-31.6,31.8c-0.1,0-0.2,0-0.4,0V423c0.1,0-0.3,0.9-0.2,0.9c35.8,0,68.9-13.9,95.8-32
			C348.5,375.7,339,357.4,327.9,350.4z"/>
	</g>
</g>
<path class="st9" d="M261,466.2h-73.3l-0.7-0.5c-14.2-9.7-27.1-0.2-27.2-0.1l-0.7,0.5H91.9c-1.4,0-2.6-1.2-2.6-2.6s1.2-2.6,2.6-2.6
	h65.6c3.3-2.1,17-9.6,31.8,0H261c1.4,0,2.6,1.2,2.6,2.6S262.4,466.2,261,466.2z"/>
<path class="st9" d="M314.9,466.2h-44.6c-1.4,0-2.6-1.2-2.6-2.6s1.2-2.6,2.6-2.6h44.6c1.4,0,2.6,1.2,2.6,2.6
	S316.4,466.2,314.9,466.2z"/>
<path class="st9" d="M420.5,466.2h-72.2c-1.4,0-2.6-1.2-2.6-2.6s1.2-2.6,2.6-2.6h72.2c1.4,0,2.6,1.2,2.6,2.6S422,466.2,420.5,466.2z
	"/>
<path class="st9" d="M337.4,466.2h-15.1c-1.4,0-2.6-1.2-2.6-2.6s1.2-2.6,2.6-2.6h15.1c1.4,0,2.6,1.2,2.6,2.6
	S338.9,466.2,337.4,466.2z"/>
<path class="st9" d="M221.3,496.4h-76.3c-1.4,0-2.6-1.2-2.6-2.6c0-1.4,1.2-2.6,2.6-2.6h76.3c1.4,0,2.6,1.2,2.6,2.6
	C223.9,495.3,222.7,496.4,221.3,496.4z"/>
<path class="st9" d="M373.5,496.4H263.4c-1.4,0-2.6-1.2-2.6-2.6c0-1.4,1.2-2.6,2.6-2.6h110.1c1.4,0,2.6,1.2,2.6,2.6
	C376.1,495.3,374.9,496.4,373.5,496.4z"/>
<path class="st9" d="M248.1,496.4h-15.1c-1.4,0-2.6-1.2-2.6-2.6c0-1.4,1.2-2.6,2.6-2.6h15.1c1.4,0,2.6,1.2,2.6,2.6
	C250.7,495.3,249.6,496.4,248.1,496.4z"/>
<g>
	<path class="st9" d="M452.5,228h31.1c1.6,0,2.9,1.3,2.9,2.9v0c0,1.6-1.3,2.9-2.9,2.9h-31.1c-1.6,0-2.9-1.3-2.9-2.9v0
		C449.6,229.3,450.9,228,452.5,228z"/>
</g>
<path class="st9" d="M503.4,228h-8.7c-1.6,0-2.9,1.3-2.9,2.9v0c0,1.6,1.3,2.9,2.9,2.9h8.7c1.6,0,2.9-1.3,2.9-2.9v0
	C506.3,229.3,505,228,503.4,228z"/>
<path class="st9" d="M4.1,351.9h31.1c1.6,0,2.9,1.3,2.9,2.9l0,0c0,1.6-1.3,2.9-2.9,2.9H4.1c-1.6,0-2.9-1.3-2.9-2.9l0,0
	C1.2,353.2,2.5,351.9,4.1,351.9z"/>
<path class="st9" d="M55,351.9h-8.7c-1.6,0-2.9,1.3-2.9,2.9l0,0c0,1.6,1.3,2.9,2.9,2.9H55c1.6,0,2.9-1.3,2.9-2.9l0,0
	C57.9,353.2,56.6,351.9,55,351.9z"/>
<path class="st9" d="M72.4,67.7h31.1c1.6,0,2.9,1.3,2.9,2.9l0,0c0,1.6-1.3,2.9-2.9,2.9H72.4c-1.6,0-2.9-1.3-2.9-2.9l0,0
	C69.5,69,70.8,67.7,72.4,67.7z"/>
<path class="st9" d="M123.2,67.7h-8.7c-1.6,0-2.9,1.3-2.9,2.9l0,0c0,1.6,1.3,2.9,2.9,2.9h8.7c1.6,0,2.9-1.3,2.9-2.9l0,0
	C126.1,69,124.8,67.7,123.2,67.7z"/>
<path class="st9" d="M58.2,128.5H28.7c-1.1,0-2.1-0.9-2.1-2.1l0,0c0-1.1,0.9-2.1,2.1-2.1h29.6c1.1,0,2.1,0.9,2.1,2.1l0,0
	C60.3,127.6,59.4,128.5,58.2,128.5z"/>
<path class="st9" d="M45.5,111.6v29.6c0,1.1-0.9,2.1-2.1,2.1h0c-1.1,0-2.1-0.9-2.1-2.1v-29.6c0-1.1,0.9-2.1,2.1-2.1h0
	C44.6,109.6,45.5,110.5,45.5,111.6z"/>
<path class="st9" d="M462.5,109.6H433c-1.1,0-2.1-0.9-2.1-2.1l0,0c0-1.1,0.9-2.1,2.1-2.1h29.6c1.1,0,2.1,0.9,2.1,2.1l0,0
	C464.6,108.6,463.7,109.6,462.5,109.6z"/>
<path class="st9" d="M449.8,92.7v29.6c0,1.1-0.9,2.1-2.1,2.1l0,0c-1.1,0-2.1-0.9-2.1-2.1V92.7c0-1.1,0.9-2.1,2.1-2.1l0,0
	C448.9,90.6,449.8,91.6,449.8,92.7z"/>
<path class="st9" d="M495.2,298.6h-20.7c-0.8,0-1.4-0.6-1.4-1.4l0,0c0-0.8,0.6-1.4,1.4-1.4h20.7c0.8,0,1.4,0.6,1.4,1.4l0,0
	C496.7,297.9,496,298.6,495.2,298.6z"/>
<path class="st9" d="M486.3,286.8v20.7c0,0.8-0.6,1.4-1.4,1.4l0,0c-0.8,0-1.4-0.6-1.4-1.4v-20.7c0-0.8,0.6-1.4,1.4-1.4l0,0
	C485.7,285.3,486.3,286,486.3,286.8z"/>
<path class="st10" d="M356.1,35.1h-20.7c-0.8,0-1.4-0.6-1.4-1.4v0c0-0.8,0.6-1.4,1.4-1.4h20.7c0.8,0,1.4,0.6,1.4,1.4v0
	C357.6,34.5,356.9,35.1,356.1,35.1z"/>
<path class="st10" d="M347.2,23.3v20.8c0,0.8-0.6,1.4-1.4,1.4l0,0c-0.8,0-1.4-0.6-1.4-1.4V23.3c0-0.8,0.6-1.4,1.4-1.4l0,0
	C346.5,21.9,347.2,22.5,347.2,23.3z"/>
<path class="st9" d="M30.5,216.4c0,8-6.5,14.4-14.4,14.4c-7.9,0-14.4-6.4-14.4-14.4c0-7.9,6.5-14.4,14.4-14.4
	C24.1,202,30.5,208.4,30.5,216.4z"/>
<path class="st10" d="M63.2,177c0,5-4,9-9,9c-4.9,0-9-4-9-9c0-5,4-9,9-9C59.2,168,63.2,172,63.2,177z"/>
<circle class="st10" cx="457.9" cy="272.9" r="4.5"/>
<path class="st9" d="M496.8,260.4c0,2.5-2,4.5-4.5,4.5c-2.5,0-4.6-2-4.6-4.5c0-2.5,2-4.6,4.6-4.6
	C494.7,255.9,496.8,257.9,496.8,260.4z"/>
<path class="st9" d="M374.5,86.6c0-6.7,5.4-12.1,12.1-12.1c6.7,0,12.1,5.4,12.1,12.1c0,6.7-5.4,12.1-12.1,12.1
	C379.9,98.7,374.5,93.2,374.5,86.6z"/>
<path class="st11" d="M190.3,33.7c0-6.7,5.4-12.1,12.1-12.1c6.7,0,12.1,5.4,12.1,12.1s-5.4,12.1-12.1,12.1
	C195.7,45.8,190.3,40.4,190.3,33.7z"/>
<path class="st9" d="M445,156.9c0-3.5,2.9-6.4,6.4-6.4c3.5,0,6.4,2.9,6.4,6.4c0,3.5-2.9,6.4-6.4,6.4
	C447.9,163.3,445,160.4,445,156.9z"/>
<path class="st9" d="M219.3,15.2c0-3.5,2.9-6.4,6.4-6.4c3.5,0,6.4,2.9,6.4,6.4c0,3.5-2.9,6.4-6.4,6.4
	C222.1,21.6,219.3,18.7,219.3,15.2z"/>
<path class="st7" d="M238.9,45.8c0-3.5,2.9-6.4,6.4-6.4c3.5,0,6.4,2.9,6.4,6.4c0,3.5-2.9,6.4-6.4,6.4
	C241.7,52.2,238.9,49.3,238.9,45.8z"/>
<polygon class="st11" points="26.6,266 29.5,275.4 38.9,278.4 29.5,281.3 26.6,290.7 23.7,281.3 14.3,278.4 23.3,275.4 "/>
<polygon class="st7" points="454.6,342.5 457.5,351.9 466.9,354.8 457.5,357.8 454.6,367.2 451.6,357.8 442.3,354.8 451.3,351.9 "/>
<polygon class="st9" points="164.4,0 168,11.6 179.6,15.2 168,18.8 164.4,30.4 160.7,18.8 149.2,15.2 160.3,11.6 "/>
<path class="st9" d="M256,437.2c-99.9,0-181.2-81.3-181.2-181.2c0-99.9,81.3-181.2,181.2-181.2c99.9,0,181.2,81.3,181.2,181.2
	C437.2,355.9,355.9,437.2,256,437.2z M256,89.1c-92,0-166.9,74.9-166.9,166.9S163.9,422.9,256,422.9c92,0,166.9-74.9,166.9-166.9
	S348,89.1,256,89.1z"/>
</svg>
