<?xml version="1.0" encoding="utf-8"?>
<!-- Generator: Adobe Illustrator 21.1.0, SVG Export Plug-In . SVG Version: 6.00 Build 0)  -->
<svg version="1.1" id="Layer_1" xmlns="http://www.w3.org/2000/svg" xmlns:xlink="http://www.w3.org/1999/xlink" x="0px" y="0px"
	 viewBox="0 0 512 512" style="enable-background:new 0 0 512 512;" xml:space="preserve">
<style type="text/css">
	.st0{fill:#2695A3;}
	.st1{fill:#378B95;}
	.st2{fill:#FCC57F;}
	.st3{fill:#FFD8AA;}
	.st4{fill:#FFE6C8;}
	.st5{fill:#F4DBAD;}
	.st6{fill:#1B75BB;}
	.st7{fill:#FFFFFF;}
	.st8{fill:#F1F1F2;}
	.st9{fill:#F6921E;}
	.st10{fill:#F4E9CD;}
	.st11{fill:#F05A28;}
	.st12{fill:#EED8A3;}
	.st13{fill:#25A9E0;}
	.st14{fill:#FFDD15;}
	.st15{fill:#8BC53F;}
</style>
<g>
	<g>
		<path class="st0" d="M88,256c0,92.5,74.8,167.6,167.2,168V88C162.8,88.5,88,163.5,88,256z"/>
		<path class="st1" d="M424,256c0-92.8-75.2-168-168-168c-0.3,0-0.5,0-0.8,0v336c0.3,0,0.5,0,0.8,0C348.8,424,424,348.8,424,256z"/>
	</g>
	<g>
		<polygon class="st2" points="280.9,307.9 280.9,298.4 229.5,298.4 229.5,333.4 		"/>
		<path class="st3" d="M229.5,261.3v74.3c0,14,12.9,20.3,25.7,19.9v-94.2H229.5z"/>
		<path class="st2" d="M280.9,335.6v-74.3h-25.7v94.2C268.1,355.1,280.9,348.1,280.9,335.6z"/>
		<path class="st4" d="M255.3,189.7c-108.8,0-64.7,143.7,0,143.7h0L255.3,189.7L255.3,189.7z"/>
		<path class="st5" d="M255.3,189.7v143.7C320,333.3,364,189.7,255.3,189.7z"/>
		<g>
			<path class="st6" d="M257,183.3c31.4,0,56.3,29.6,61,40.7c4.7,11.1,5.9,13.1,5,25c-0.8,11.9-12.4,20.4-14.2,7.5
				c-2.3-16-12.6-35.4-27.9-46.1c-3.7-2.5-14.7,2.8-25.7,8.7v-35.7C255.8,183.4,256.4,183.3,257,183.3z"/>
			<path class="st6" d="M325.7,245.1c-7.9,30.5-17.7,13.2-17.3,0.1c0.4-13.1-11-41.8-51.4-42.9c-0.7,0-1.3,0.1-1.9,0.1v-43.7
				C310.7,159.6,333.5,214.8,325.7,245.1z"/>
		</g>
		<path class="st7" d="M254.2,346.7c-18-0.2-35.6,4.2-65.2,23.4c-7.8,5.1-14.3,14.5-20,26c23.3,14.5,50.2,24.2,79.6,24.2
			c2.3,0,4.5-0.2,6.7-0.3v-73.3C254.9,346.7,254.5,346.7,254.2,346.7z"/>
		<path class="st8" d="M318.1,371.1c-29.2-18.3-45.6-24-62.8-24.4V420c30.5-1.3,58.7-11.6,82-28.3
			C329.8,382.7,324.8,375.3,318.1,371.1z"/>
		<path class="st7" d="M254.4,389.1"/>
		<path class="st9" d="M205.6,360.1c-5.1,2.8-10.7,6.1-16.7,10c-7.8,5.1-16.8,16.4-22.5,27.9c24,15.1,47.5,23.8,76,25.3
			c2.3,0.1,10.6,0.7,12.9,0.6v-24.5l-38.4-44.8C213.3,356.2,209.6,358,205.6,360.1z"/>
		<polygon class="st10" points="229.5,333.4 210.5,357.6 222.3,379.6 255.3,346.7 		"/>
		<path class="st11" d="M319.5,370.1c-10.1-6.4-18.8-11-26.6-14.4l-37.5,43.8l-0.2-0.1V424c30.6,0,59.6-6.7,88.5-24.6
			C338.7,390.1,327.1,374.9,319.5,370.1z"/>
		<polygon class="st12" points="280.9,333.9 298.7,358.1 286.9,380.1 255.3,346.7 		"/>
		<g>
			<g>
				<path class="st13" d="M237.8,216.5c-17.3,7.3-33.2,14.3-40,38.2c-2.7,9.4-7.7,4.1-9.8-3.6c-2.1-7.7-1.1-16.9,3.6-25.4
					c-0.8,1.5,37.6-40.3,63.6-42.3l-0.1,35.7C244.5,224.8,243.9,213.9,237.8,216.5z"/>
				<path class="st13" d="M201.7,244.8c-1.2,18.5-7.6,20.2-15.5,3.4c-7.9-16.8,11.4-89.3,67.7-89.5h0.2c0.4,0,0.7,0,1.1,0v43.7
					C220,203.3,202.9,226.7,201.7,244.8z"/>
			</g>
		</g>
		<path class="st4" d="M183.4,239.1c-4,0.9-5.5,9-3.5,18.2c2,9.2,6.9,15.9,10.9,15c4-0.9,5.5-9,3.5-18.2
			C192.2,245,187.4,238.2,183.4,239.1z"/>
		<path class="st4" d="M325,239.1c4,0.9,5.5,9,3.5,18.2c-2.1,9.2-6.9,15.9-10.9,15c-4-0.9-5.5-9-3.5-18.2
			C316.2,245,321.1,238.2,325,239.1z"/>
	</g>
</g>
<path class="st8" d="M261,466.2h-73.3l-0.7-0.5c-14.2-9.7-27.1-0.2-27.2-0.1l-0.7,0.5H91.9c-1.4,0-2.6-1.2-2.6-2.6s1.2-2.6,2.6-2.6
	h65.6c3.3-2.1,17-9.6,31.8,0H261c1.4,0,2.6,1.2,2.6,2.6S262.4,466.2,261,466.2z"/>
<path class="st8" d="M314.9,466.2h-44.6c-1.4,0-2.6-1.2-2.6-2.6s1.2-2.6,2.6-2.6h44.6c1.4,0,2.6,1.2,2.6,2.6
	S316.4,466.2,314.9,466.2z"/>
<path class="st8" d="M420.5,466.2h-72.2c-1.4,0-2.6-1.2-2.6-2.6s1.2-2.6,2.6-2.6h72.2c1.4,0,2.6,1.2,2.6,2.6S422,466.2,420.5,466.2z
	"/>
<path class="st8" d="M337.4,466.2h-15.1c-1.4,0-2.6-1.2-2.6-2.6s1.2-2.6,2.6-2.6h15.1c1.4,0,2.6,1.2,2.6,2.6
	S338.9,466.2,337.4,466.2z"/>
<path class="st8" d="M221.3,496.4h-76.3c-1.4,0-2.6-1.2-2.6-2.6c0-1.4,1.2-2.6,2.6-2.6h76.3c1.4,0,2.6,1.2,2.6,2.6
	C223.9,495.3,222.7,496.4,221.3,496.4z"/>
<path class="st8" d="M373.5,496.4H263.4c-1.4,0-2.6-1.2-2.6-2.6c0-1.4,1.2-2.6,2.6-2.6h110.1c1.4,0,2.6,1.2,2.6,2.6
	C376.1,495.3,374.9,496.4,373.5,496.4z"/>
<path class="st8" d="M248.1,496.4h-15.1c-1.4,0-2.6-1.2-2.6-2.6c0-1.4,1.2-2.6,2.6-2.6h15.1c1.4,0,2.6,1.2,2.6,2.6
	C250.7,495.3,249.6,496.4,248.1,496.4z"/>
<g>
	<path class="st8" d="M452.5,228h31.1c1.6,0,2.9,1.3,2.9,2.9v0c0,1.6-1.3,2.9-2.9,2.9h-31.1c-1.6,0-2.9-1.3-2.9-2.9v0
		C449.6,229.3,450.9,228,452.5,228z"/>
</g>
<path class="st8" d="M503.4,228h-8.7c-1.6,0-2.9,1.3-2.9,2.9v0c0,1.6,1.3,2.9,2.9,2.9h8.7c1.6,0,2.9-1.3,2.9-2.9v0
	C506.3,229.3,505,228,503.4,228z"/>
<path class="st8" d="M4.1,351.9h31.1c1.6,0,2.9,1.3,2.9,2.9l0,0c0,1.6-1.3,2.9-2.9,2.9H4.1c-1.6,0-2.9-1.3-2.9-2.9l0,0
	C1.2,353.2,2.5,351.9,4.1,351.9z"/>
<path class="st8" d="M55,351.9h-8.7c-1.6,0-2.9,1.3-2.9,2.9l0,0c0,1.6,1.3,2.9,2.9,2.9H55c1.6,0,2.9-1.3,2.9-2.9l0,0
	C57.9,353.2,56.6,351.9,55,351.9z"/>
<path class="st8" d="M72.4,67.7h31.1c1.6,0,2.9,1.3,2.9,2.9l0,0c0,1.6-1.3,2.9-2.9,2.9H72.4c-1.6,0-2.9-1.3-2.9-2.9l0,0
	C69.5,69,70.8,67.7,72.4,67.7z"/>
<path class="st8" d="M123.2,67.7h-8.7c-1.6,0-2.9,1.3-2.9,2.9l0,0c0,1.6,1.3,2.9,2.9,2.9h8.7c1.6,0,2.9-1.3,2.9-2.9l0,0
	C126.1,69,124.8,67.7,123.2,67.7z"/>
<path class="st8" d="M58.2,128.5H28.7c-1.1,0-2.1-0.9-2.1-2.1l0,0c0-1.1,0.9-2.1,2.1-2.1h29.6c1.1,0,2.1,0.9,2.1,2.1l0,0
	C60.3,127.6,59.4,128.5,58.2,128.5z"/>
<path class="st8" d="M45.5,111.6v29.6c0,1.1-0.9,2.1-2.1,2.1h0c-1.1,0-2.1-0.9-2.1-2.1v-29.6c0-1.1,0.9-2.1,2.1-2.1h0
	C44.6,109.6,45.5,110.5,45.5,111.6z"/>
<path class="st8" d="M462.5,109.6H433c-1.1,0-2.1-0.9-2.1-2.1l0,0c0-1.1,0.9-2.1,2.1-2.1h29.6c1.1,0,2.1,0.9,2.1,2.1l0,0
	C464.6,108.6,463.7,109.6,462.5,109.6z"/>
<path class="st8" d="M449.8,92.7v29.6c0,1.1-0.9,2.1-2.1,2.1l0,0c-1.1,0-2.1-0.9-2.1-2.1V92.7c0-1.1,0.9-2.1,2.1-2.1l0,0
	C448.9,90.6,449.8,91.6,449.8,92.7z"/>
<path class="st8" d="M495.2,298.6h-20.7c-0.8,0-1.4-0.6-1.4-1.4l0,0c0-0.8,0.6-1.4,1.4-1.4h20.7c0.8,0,1.4,0.6,1.4,1.4l0,0
	C496.7,297.9,496,298.6,495.2,298.6z"/>
<path class="st8" d="M486.3,286.8v20.7c0,0.8-0.6,1.4-1.4,1.4l0,0c-0.8,0-1.4-0.6-1.4-1.4v-20.7c0-0.8,0.6-1.4,1.4-1.4l0,0
	C485.7,285.3,486.3,286,486.3,286.8z"/>
<path class="st14" d="M356.1,35.1h-20.7c-0.8,0-1.4-0.6-1.4-1.4v0c0-0.8,0.6-1.4,1.4-1.4h20.7c0.8,0,1.4,0.6,1.4,1.4v0
	C357.6,34.5,356.9,35.1,356.1,35.1z"/>
<path class="st14" d="M347.2,23.3v20.8c0,0.8-0.6,1.4-1.4,1.4l0,0c-0.8,0-1.4-0.6-1.4-1.4V23.3c0-0.8,0.6-1.4,1.4-1.4l0,0
	C346.5,21.9,347.2,22.5,347.2,23.3z"/>
<path class="st8" d="M30.5,216.4c0,8-6.5,14.4-14.4,14.4c-7.9,0-14.4-6.4-14.4-14.4c0-7.9,6.5-14.4,14.4-14.4
	C24.1,202,30.5,208.4,30.5,216.4z"/>
<path class="st14" d="M63.2,177c0,5-4,9-9,9c-4.9,0-9-4-9-9c0-5,4-9,9-9C59.2,168,63.2,172,63.2,177z"/>
<circle class="st14" cx="457.9" cy="272.9" r="4.5"/>
<path class="st8" d="M496.8,260.4c0,2.5-2,4.5-4.5,4.5c-2.5,0-4.6-2-4.6-4.5c0-2.5,2-4.6,4.6-4.6
	C494.7,255.9,496.8,257.9,496.8,260.4z"/>
<path class="st8" d="M374.5,86.6c0-6.7,5.4-12.1,12.1-12.1c6.7,0,12.1,5.4,12.1,12.1c0,6.7-5.4,12.1-12.1,12.1
	C379.9,98.7,374.5,93.2,374.5,86.6z"/>
<path class="st15" d="M190.3,33.7c0-6.7,5.4-12.1,12.1-12.1c6.7,0,12.1,5.4,12.1,12.1s-5.4,12.1-12.1,12.1
	C195.7,45.8,190.3,40.4,190.3,33.7z"/>
<path class="st8" d="M445,156.9c0-3.5,2.9-6.4,6.4-6.4c3.5,0,6.4,2.9,6.4,6.4c0,3.5-2.9,6.4-6.4,6.4
	C447.9,163.3,445,160.4,445,156.9z"/>
<path class="st8" d="M219.3,15.2c0-3.5,2.9-6.4,6.4-6.4c3.5,0,6.4,2.9,6.4,6.4c0,3.5-2.9,6.4-6.4,6.4
	C222.1,21.6,219.3,18.7,219.3,15.2z"/>
<path class="st9" d="M238.9,45.8c0-3.5,2.9-6.4,6.4-6.4c3.5,0,6.4,2.9,6.4,6.4c0,3.5-2.9,6.4-6.4,6.4
	C241.7,52.2,238.9,49.3,238.9,45.8z"/>
<polygon class="st15" points="26.6,266 29.5,275.4 38.9,278.4 29.5,281.3 26.6,290.7 23.7,281.3 14.3,278.4 23.3,275.4 "/>
<polygon class="st9" points="454.6,342.5 457.5,351.9 466.9,354.8 457.5,357.8 454.6,367.2 451.6,357.8 442.3,354.8 451.3,351.9 "/>
<polygon class="st8" points="164.4,0 168,11.6 179.6,15.2 168,18.8 164.4,30.4 160.7,18.8 149.2,15.2 160.3,11.6 "/>
<path class="st8" d="M256,437.2c-99.9,0-181.2-81.3-181.2-181.2c0-99.9,81.3-181.2,181.2-181.2c99.9,0,181.2,81.3,181.2,181.2
	C437.2,355.9,355.9,437.2,256,437.2z M256,89.1c-92,0-166.9,74.9-166.9,166.9S163.9,422.9,256,422.9c92,0,166.9-74.9,166.9-166.9
	S348,89.1,256,89.1z"/>
</svg>
