<?xml version="1.0" encoding="utf-8"?>
<!-- Generator: Adobe Illustrator 21.1.0, SVG Export Plug-In . SVG Version: 6.00 Build 0)  -->
<svg version="1.1" id="Layer_1" xmlns="http://www.w3.org/2000/svg" xmlns:xlink="http://www.w3.org/1999/xlink" x="0px" y="0px"
	 viewBox="0 0 512 512" style="enable-background:new 0 0 512 512;" xml:space="preserve">
<style type="text/css">
	.st0{fill:#EDBC1F;}
	.st1{fill:#DAAE2A;}
	.st2{fill:#754C28;}
	.st3{fill:#FCC57F;}
	.st4{fill:#FFD8AA;}
	.st5{fill:#2695A3;}
	.st6{fill:#218889;}
	.st7{fill:#FFE6C8;}
	.st8{fill:#F4DBAD;}
	.st9{fill:#D6DE23;stroke:#FFFFFF;stroke-width:0.75;stroke-miterlimit:10;}
	.st10{fill:#FFFFFF;}
	.st11{fill:#F1F1F2;}
	.st12{fill:#FFDD15;}
	.st13{fill:#8BC53F;}
	.st14{fill:#F6921E;}
</style>
<g>
	<path class="st0" d="M88,255.9c0,92.8,75.2,168,168,168v-336C163.2,87.9,88,163.2,88,255.9z"/>
	<path class="st1" d="M424,255.9c0-92.8-75.2-168-168-168h0v336h0C348.8,423.9,424,348.7,424,255.9z"/>
	<g>
		<path class="st2" d="M332.1,332c0,42.3-34.3,76.6-76.6,76.6l0,0c-42.3,0-76.6-34.3-76.6-76.6V224.2c0-42.3,34.3-76.6,76.6-76.6
			l0,0c42.3,0,76.6,34.3,76.6,76.6V332z"/>
		<polygon class="st3" points="280.3,303.1 280.3,293.9 230.9,293.9 230.9,327.7 		"/>
		<path class="st4" d="M230.9,280.6v46.2c0,0-5.8,7.3-7.4,12.1c-2,5.9,1,17.2,1,17.2l-10,28.2c3.2,9,31.5,17.4,41.8,17.1V280.6
			H230.9z"/>
		<path class="st3" d="M298.1,346.4l-13.1-17.6c0,0-1.7-2.8-3.8-4.5v-71.5h-25v151.6c12.1-0.3,36.5,4.4,37.3-6.9l10.6-39.8
			L298.1,346.4z"/>
		<path class="st5" d="M227.8,337.8c0-5.2,0.6-6.8,3.1-11l-16.3,18.4c-6.6,3.2-13.9,7.3-22.1,12.7c-9.7,6.3-20.2,24.9-26.3,39.1
			c24.7,17.5,59.7,27,90.2,27v-57.3C240.5,366.6,227.8,353.7,227.8,337.8z"/>
		<path class="st6" d="M318.6,357.9c-7.5-4.7-13.9-9.1-20.1-12.1l0,0l-7.6-9.6l-7.6-10.1c1.6,3.6,2.1,7.6,2.1,11.8
			c0,16-12.9,29-28.8,29c-0.1,0-0.2,0-0.3,0v57.3c0.1,0,0.2,0,0.3,0c32.6,0,64.8-8.6,89.3-25.1C339.8,384.3,328.7,364.2,318.6,357.9
			z"/>
		<path class="st7" d="M256.3,322.4V199.5c-20,0-34.7,4.6-44.8,11.8C168.5,242.1,205.9,322.2,256.3,322.4z"/>
		<path class="st8" d="M256.5,199.5c-0.1,0-0.1,0-0.2,0v122.9c0.1,0,0.1,0,0.2,0C318.9,322.4,361.6,199.5,256.5,199.5z"/>
		<path class="st8" d="M324,238.6c3.8,0.8,5.3,8.7,3.4,17.6c-2,8.9-6.7,15.3-10.5,14.5c-3.8-0.8-5.3-8.7-3.4-17.6
			C315.5,244.2,320.2,237.7,324,238.6"/>
		<path class="st7" d="M187.1,236.7c-3.8,0.9-5.3,8.7-3.3,17.6c2,8.9,6.7,15.3,10.5,14.5c3.8-0.8,5.3-8.7,3.4-17.6
			C195.6,242.4,190.9,235.9,187.1,236.7"/>
		<path class="st9" d="M197.8,270.7c0,4-3.2,7.2-7.2,7.2l0,0c-4,0-7.2-3.2-7.2-7.2l0,0c0-4,3.2-7.2,7.2-7.2l0,0
			C194.6,263.5,197.8,266.8,197.8,270.7L197.8,270.7z"/>
		<path class="st9" d="M327,270.7c0,4-3.2,7.2-7.2,7.2l0,0c-4,0-7.2-3.2-7.2-7.2l0,0c0-4,3.2-7.2,7.2-7.2l0,0
			C323.8,263.5,327,266.8,327,270.7L327,270.7z"/>
		<path class="st10" d="M221.7,348.5c0,2.5-2.1,4.6-4.6,4.6l0,0c-2.5,0-4.6-2.1-4.6-4.6l0,0c0-2.6,2.1-4.6,4.6-4.6l0,0
			C219.6,343.9,221.7,346,221.7,348.5L221.7,348.5z"/>
		<path class="st10" d="M227.7,359.2c0,2.5-2.1,4.6-4.6,4.6l0,0c-2.5,0-4.6-2.1-4.6-4.6l0,0c0-2.5,2.1-4.6,4.6-4.6l0,0
			C225.6,354.5,227.7,356.6,227.7,359.2L227.7,359.2z"/>
		<path class="st10" d="M236.2,369.4c0,2.6-2.1,4.6-4.6,4.6l0,0c-2.5,0-4.6-2.1-4.6-4.6l0,0c0-2.5,2.1-4.6,4.6-4.6l0,0
			C234.1,364.8,236.2,366.9,236.2,369.4L236.2,369.4z"/>
		<path class="st10" d="M247.5,375.1c0,2.6-2.1,4.6-4.6,4.6l0,0c-2.5,0-4.6-2.1-4.6-4.6l0,0c0-2.5,2.1-4.6,4.6-4.6l0,0
			C245.4,370.4,247.5,372.5,247.5,375.1L247.5,375.1z"/>
		<path class="st10" d="M267,370.1c2.5,0,4.6,2.1,4.6,4.6l0,0c0,2.5-2.1,4.6-4.6,4.6l0,0c-2.6,0-4.6-2.1-4.6-4.6l0,0
			C262.4,372.2,264.5,370.1,267,370.1L267,370.1z"/>
		<path class="st10" d="M277.6,364.1c2.5,0,4.6,2.1,4.6,4.6l0,0c0,2.5-2.1,4.6-4.6,4.6l0,0c-2.5,0-4.6-2.1-4.6-4.6l0,0
			C273,366.1,275.1,364.1,277.6,364.1L277.6,364.1z"/>
		<path class="st10" d="M287.9,355.5c2.5,0,4.6,2.1,4.6,4.6l0,0c0,2.5-2.1,4.6-4.6,4.6l0,0c-2.5,0-4.6-2.1-4.6-4.6l0,0
			C283.3,357.6,285.4,355.5,287.9,355.5L287.9,355.5z"/>
		<path class="st10" d="M293.5,344.3c2.5,0,4.6,2.1,4.6,4.6l0,0c0,2.5-2,4.6-4.6,4.6l0,0c-2.6,0-4.6-2.1-4.6-4.6l0,0
			C288.9,346.3,291,344.3,293.5,344.3L293.5,344.3z"/>
		<path class="st10" d="M260.1,376.9c0,2.5-2.1,4.6-4.6,4.6l0,0c-2.5,0-4.6-2.1-4.6-4.6l0,0c0-2.6,2.1-4.6,4.6-4.6l0,0
			C258,372.2,260.1,374.3,260.1,376.9L260.1,376.9z"/>
	</g>
</g>
<path class="st11" d="M261,466.2h-73.3l-0.7-0.5c-14.2-9.7-27.1-0.2-27.2-0.1l-0.7,0.5H91.9c-1.4,0-2.6-1.2-2.6-2.6s1.2-2.6,2.6-2.6
	h65.6c3.3-2.1,17-9.6,31.8,0H261c1.4,0,2.6,1.2,2.6,2.6S262.4,466.2,261,466.2z"/>
<path class="st11" d="M314.9,466.2h-44.6c-1.4,0-2.6-1.2-2.6-2.6s1.2-2.6,2.6-2.6h44.6c1.4,0,2.6,1.2,2.6,2.6
	S316.4,466.2,314.9,466.2z"/>
<path class="st11" d="M420.5,466.2h-72.2c-1.4,0-2.6-1.2-2.6-2.6s1.2-2.6,2.6-2.6h72.2c1.4,0,2.6,1.2,2.6,2.6S422,466.2,420.5,466.2
	z"/>
<path class="st11" d="M337.4,466.2h-15.1c-1.4,0-2.6-1.2-2.6-2.6s1.2-2.6,2.6-2.6h15.1c1.4,0,2.6,1.2,2.6,2.6
	S338.9,466.2,337.4,466.2z"/>
<path class="st11" d="M221.3,496.4h-76.3c-1.4,0-2.6-1.2-2.6-2.6c0-1.4,1.2-2.6,2.6-2.6h76.3c1.4,0,2.6,1.2,2.6,2.6
	C223.9,495.3,222.7,496.4,221.3,496.4z"/>
<path class="st11" d="M373.5,496.4H263.4c-1.4,0-2.6-1.2-2.6-2.6c0-1.4,1.2-2.6,2.6-2.6h110.1c1.4,0,2.6,1.2,2.6,2.6
	C376.1,495.3,374.9,496.4,373.5,496.4z"/>
<path class="st11" d="M248.1,496.4h-15.1c-1.4,0-2.6-1.2-2.6-2.6c0-1.4,1.2-2.6,2.6-2.6h15.1c1.4,0,2.6,1.2,2.6,2.6
	C250.7,495.3,249.6,496.4,248.1,496.4z"/>
<g>
	<path class="st11" d="M452.5,228h31.1c1.6,0,2.9,1.3,2.9,2.9v0c0,1.6-1.3,2.9-2.9,2.9h-31.1c-1.6,0-2.9-1.3-2.9-2.9v0
		C449.6,229.3,450.9,228,452.5,228z"/>
</g>
<path class="st11" d="M503.4,228h-8.7c-1.6,0-2.9,1.3-2.9,2.9v0c0,1.6,1.3,2.9,2.9,2.9h8.7c1.6,0,2.9-1.3,2.9-2.9v0
	C506.3,229.3,505,228,503.4,228z"/>
<path class="st11" d="M4.1,351.9h31.1c1.6,0,2.9,1.3,2.9,2.9l0,0c0,1.6-1.3,2.9-2.9,2.9H4.1c-1.6,0-2.9-1.3-2.9-2.9l0,0
	C1.2,353.2,2.5,351.9,4.1,351.9z"/>
<path class="st11" d="M55,351.9h-8.7c-1.6,0-2.9,1.3-2.9,2.9l0,0c0,1.6,1.3,2.9,2.9,2.9H55c1.6,0,2.9-1.3,2.9-2.9l0,0
	C57.9,353.2,56.6,351.9,55,351.9z"/>
<path class="st11" d="M72.4,67.7h31.1c1.6,0,2.9,1.3,2.9,2.9l0,0c0,1.6-1.3,2.9-2.9,2.9H72.4c-1.6,0-2.9-1.3-2.9-2.9l0,0
	C69.5,69,70.8,67.7,72.4,67.7z"/>
<path class="st11" d="M123.2,67.7h-8.7c-1.6,0-2.9,1.3-2.9,2.9l0,0c0,1.6,1.3,2.9,2.9,2.9h8.7c1.6,0,2.9-1.3,2.9-2.9l0,0
	C126.1,69,124.8,67.7,123.2,67.7z"/>
<path class="st11" d="M58.2,128.5H28.7c-1.1,0-2.1-0.9-2.1-2.1l0,0c0-1.1,0.9-2.1,2.1-2.1h29.6c1.1,0,2.1,0.9,2.1,2.1l0,0
	C60.3,127.6,59.4,128.5,58.2,128.5z"/>
<path class="st11" d="M45.5,111.6v29.6c0,1.1-0.9,2.1-2.1,2.1h0c-1.1,0-2.1-0.9-2.1-2.1v-29.6c0-1.1,0.9-2.1,2.1-2.1h0
	C44.6,109.6,45.5,110.5,45.5,111.6z"/>
<path class="st11" d="M462.5,109.6H433c-1.1,0-2.1-0.9-2.1-2.1l0,0c0-1.1,0.9-2.1,2.1-2.1h29.6c1.1,0,2.1,0.9,2.1,2.1l0,0
	C464.6,108.6,463.7,109.6,462.5,109.6z"/>
<path class="st11" d="M449.8,92.7v29.6c0,1.1-0.9,2.1-2.1,2.1l0,0c-1.1,0-2.1-0.9-2.1-2.1V92.7c0-1.1,0.9-2.1,2.1-2.1l0,0
	C448.9,90.6,449.8,91.6,449.8,92.7z"/>
<path class="st11" d="M495.2,298.6h-20.7c-0.8,0-1.4-0.6-1.4-1.4l0,0c0-0.8,0.6-1.4,1.4-1.4h20.7c0.8,0,1.4,0.6,1.4,1.4l0,0
	C496.7,297.9,496,298.6,495.2,298.6z"/>
<path class="st11" d="M486.3,286.8v20.7c0,0.8-0.6,1.4-1.4,1.4l0,0c-0.8,0-1.4-0.6-1.4-1.4v-20.7c0-0.8,0.6-1.4,1.4-1.4l0,0
	C485.7,285.3,486.3,286,486.3,286.8z"/>
<path class="st12" d="M356.1,35.1h-20.7c-0.8,0-1.4-0.6-1.4-1.4v0c0-0.8,0.6-1.4,1.4-1.4h20.7c0.8,0,1.4,0.6,1.4,1.4v0
	C357.6,34.5,356.9,35.1,356.1,35.1z"/>
<path class="st12" d="M347.2,23.3v20.8c0,0.8-0.6,1.4-1.4,1.4l0,0c-0.8,0-1.4-0.6-1.4-1.4V23.3c0-0.8,0.6-1.4,1.4-1.4l0,0
	C346.5,21.9,347.2,22.5,347.2,23.3z"/>
<path class="st11" d="M30.5,216.4c0,8-6.5,14.4-14.4,14.4c-7.9,0-14.4-6.4-14.4-14.4c0-7.9,6.5-14.4,14.4-14.4
	C24.1,202,30.5,208.4,30.5,216.4z"/>
<path class="st12" d="M63.2,177c0,5-4,9-9,9c-4.9,0-9-4-9-9c0-5,4-9,9-9C59.2,168,63.2,172,63.2,177z"/>
<circle class="st12" cx="457.9" cy="272.9" r="4.5"/>
<path class="st11" d="M496.8,260.4c0,2.5-2,4.5-4.5,4.5c-2.5,0-4.6-2-4.6-4.5c0-2.5,2-4.6,4.6-4.6
	C494.7,255.9,496.8,257.9,496.8,260.4z"/>
<path class="st11" d="M374.5,86.6c0-6.7,5.4-12.1,12.1-12.1c6.7,0,12.1,5.4,12.1,12.1c0,6.7-5.4,12.1-12.1,12.1
	C379.9,98.7,374.5,93.2,374.5,86.6z"/>
<path class="st13" d="M190.3,33.7c0-6.7,5.4-12.1,12.1-12.1c6.7,0,12.1,5.4,12.1,12.1s-5.4,12.1-12.1,12.1
	C195.7,45.8,190.3,40.4,190.3,33.7z"/>
<path class="st11" d="M445,156.9c0-3.5,2.9-6.4,6.4-6.4c3.5,0,6.4,2.9,6.4,6.4c0,3.5-2.9,6.4-6.4,6.4
	C447.9,163.3,445,160.4,445,156.9z"/>
<path class="st11" d="M219.3,15.2c0-3.5,2.9-6.4,6.4-6.4c3.5,0,6.4,2.9,6.4,6.4c0,3.5-2.9,6.4-6.4,6.4
	C222.1,21.6,219.3,18.7,219.3,15.2z"/>
<path class="st14" d="M238.9,45.8c0-3.5,2.9-6.4,6.4-6.4c3.5,0,6.4,2.9,6.4,6.4c0,3.5-2.9,6.4-6.4,6.4
	C241.7,52.2,238.9,49.3,238.9,45.8z"/>
<polygon class="st13" points="26.6,266 29.5,275.4 38.9,278.4 29.5,281.3 26.6,290.7 23.7,281.3 14.3,278.4 23.3,275.4 "/>
<polygon class="st14" points="454.6,342.5 457.5,351.9 466.9,354.8 457.5,357.8 454.6,367.2 451.6,357.8 442.3,354.8 451.3,351.9 
	"/>
<polygon class="st11" points="164.4,0 168,11.6 179.6,15.2 168,18.8 164.4,30.4 160.7,18.8 149.2,15.2 160.3,11.6 "/>
<path class="st11" d="M256,437.2c-99.9,0-181.2-81.3-181.2-181.2c0-99.9,81.3-181.2,181.2-181.2c99.9,0,181.2,81.3,181.2,181.2
	C437.2,355.9,355.9,437.2,256,437.2z M256,89.1c-92,0-166.9,74.9-166.9,166.9S163.9,422.9,256,422.9c92,0,166.9-74.9,166.9-166.9
	S348,89.1,256,89.1z"/>
</svg>
