<?xml version="1.0" encoding="utf-8"?>
<!-- Generator: Adobe Illustrator 21.1.0, SVG Export Plug-In . SVG Version: 6.00 Build 0)  -->
<svg version="1.1" id="Layer_1" xmlns="http://www.w3.org/2000/svg" xmlns:xlink="http://www.w3.org/1999/xlink" x="0px" y="0px"
	 viewBox="0 0 512 512" style="enable-background:new 0 0 512 512;" xml:space="preserve">
<style type="text/css">
	.st0{fill:#8D73AB;}
	.st1{fill:#8067A5;}
	.st2{fill:#FCC57F;}
	.st3{fill:#FFD8AA;}
	.st4{fill:#FFE6C8;}
	.st5{fill:#F4DBAD;}
	.st6{fill:#353537;}
	.st7{fill:#FFFFFF;}
	.st8{fill:#F1F1F2;}
	.st9{fill:#484859;}
	.st10{fill:#FFDD15;}
	.st11{fill:#8BC53F;}
	.st12{fill:#F6921E;}
</style>
<g>
	<path class="st0" d="M88,256c0,92.8,75.2,168,168,168V88C163.2,88,88,163.2,88,256z"/>
	<path class="st1" d="M424,256c0-92.8-75.2-168-168-168v336C348.8,424,424,348.8,424,256z"/>
	<g>
		<polygon class="st2" points="285.1,297 285.1,286.5 228,286.5 228,325.3 		"/>
		<path class="st3" d="M228,245.2v82.6c0,15.5,14.3,22.5,28.6,22.1V245.2H228z"/>
		<path class="st2" d="M285.1,327.8v-82.6h-28.5v104.7C270.9,349.5,285.1,341.7,285.1,327.8z"/>
		<path class="st4" d="M256.6,165.6c-120.9,0-71.9,159.7,0,159.7h0L256.6,165.6L256.6,165.6z"/>
		<path class="st5" d="M256.6,165.6v159.7C328.5,325.3,377.5,165.6,256.6,165.6z"/>
		<path class="st6" d="M258.5,158.6c34.9,0,62.6,32.9,67.8,45.2c5.2,12.3,6.5,14.6,5.6,27.8c-0.9,13.2-14.6,22.8-15.8,8.3
			c-4.6-52.5-24.1-39.4-41.2-51.2c-4.1-2.8-13.7,2-18.5,9.7v-39.7C257.1,158.6,257.9,158.6,258.5,158.6z"/>
		<path class="st7" d="M255.4,340.1c-20-0.3-39.6,4.6-72.5,26c-8.7,5.6-15.9,16.1-22.2,28.9c25.9,16.1,55.7,26.9,88.5,26.9
			c2.5,0,5-0.2,7.5-0.3v-81.4C256.2,340.2,255.8,340.1,255.4,340.1z"/>
		<path class="st8" d="M326.4,367.3c-32.4-20.3-50.7-26.6-69.8-27.1v81.4c34-1.5,65.3-12.9,91.2-31.5
			C339.5,380.1,333.8,371.9,326.4,367.3z"/>
		<path class="st7" d="M255.7,387.3"/>
		<path class="st9" d="M223.2,191.7c-19.3,8.1-22.9,19.6-30.5,46.2c-3,10.5-8.5,4.5-10.9-4c-2.4-8.5-1.2-18.7,4-28.2
			c-0.9,1.6,41.8-44.8,70.6-47v39.7C247.9,185.3,229.9,188.9,223.2,191.7z"/>
		<polygon class="st7" points="256.6,339 227.9,325.3 210.8,353.5 219.9,376.7 256.6,342.7 		"/>
		<polygon class="st8" points="285.1,325.9 256.6,339 256.6,342.5 291.7,377.3 302.2,353.5 		"/>
		<path class="st9" d="M255.3,131.2L255.3,131.2l-0.1,0h-0.1v0c-18.4,0.1-38.3,8.2-57.7,24.1c-24.5,20.1-22.9,64-17.6,75.3
			c8.8,18.7,15.9,16.8,17.2-3.7c1.3-20.2,20.3-46.2,59.4-47.1v-48.6C256.1,131.3,255.7,131.2,255.3,131.2z"/>
		<path class="st4" d="M176.7,220.6c-4.4,1-6.1,10-3.9,20.2c2.3,10.2,7.7,17.7,12.1,16.7c4.4-1,6.1-10,3.9-20.2
			C186.5,227.1,181.1,219.6,176.7,220.6"/>
		<path class="st9" d="M201.4,355c-5.7,3.1-11.9,6.7-18.5,11.1c-8.7,5.6-15.9,16.1-22.2,28.9c25.4,17.9,51,26.1,81.7,28.9
			c2.5,0.2,12-0.1,14.4-0.2l0.1-25L214,349C210,350.7,205.9,352.6,201.4,355z"/>
		<path class="st6" d="M312,355c5.7,3.1,11.8,6.7,18.5,11.1c8.7,5.6,14.5,15.4,20.9,28.2c-25.3,17.9-49.8,25.9-80.4,28.7
			c-2.5,0.2-11.8,0.8-14.3,0.7l0.1-25l42.6-49.8C303.4,350.7,307.5,352.6,312,355z"/>
		<path class="st6" d="M311.5,156.4c-5.3-1.5-8.1-0.7-8.1-0.7c0.7-6,2.6-10-6-15.7c-9.8-6.5-26.7-8.5-40.9-8.7v48.6
			c0.7,0,1.4-0.1,2.1-0.1c44.9,1.2,57.5,33.1,57.1,47.6c-0.4,14.6,10.5,33.8,19.2-0.1C340.6,205,342.7,165.4,311.5,156.4z"/>
		<path class="st4" d="M334.1,220.6c4.4,1,6.1,10,3.9,20.2c-2.3,10.2-7.7,17.7-12.1,16.7c-4.4-1-6.1-10-3.9-20.2
			C324.3,227.1,329.7,219.6,334.1,220.6"/>
	</g>
</g>
<path class="st8" d="M261,466.2h-73.3l-0.7-0.5c-14.2-9.7-27.1-0.2-27.2-0.1l-0.7,0.5H91.9c-1.4,0-2.6-1.2-2.6-2.6s1.2-2.6,2.6-2.6
	h65.6c3.3-2.1,17-9.6,31.8,0H261c1.4,0,2.6,1.2,2.6,2.6S262.4,466.2,261,466.2z"/>
<path class="st8" d="M314.9,466.2h-44.6c-1.4,0-2.6-1.2-2.6-2.6s1.2-2.6,2.6-2.6h44.6c1.4,0,2.6,1.2,2.6,2.6
	S316.4,466.2,314.9,466.2z"/>
<path class="st8" d="M420.5,466.2h-72.2c-1.4,0-2.6-1.2-2.6-2.6s1.2-2.6,2.6-2.6h72.2c1.4,0,2.6,1.2,2.6,2.6S422,466.2,420.5,466.2z
	"/>
<path class="st8" d="M337.4,466.2h-15.1c-1.4,0-2.6-1.2-2.6-2.6s1.2-2.6,2.6-2.6h15.1c1.4,0,2.6,1.2,2.6,2.6
	S338.9,466.2,337.4,466.2z"/>
<path class="st8" d="M221.3,496.4h-76.3c-1.4,0-2.6-1.2-2.6-2.6c0-1.4,1.2-2.6,2.6-2.6h76.3c1.4,0,2.6,1.2,2.6,2.6
	C223.9,495.3,222.7,496.4,221.3,496.4z"/>
<path class="st8" d="M373.5,496.4H263.4c-1.4,0-2.6-1.2-2.6-2.6c0-1.4,1.2-2.6,2.6-2.6h110.1c1.4,0,2.6,1.2,2.6,2.6
	C376.1,495.3,374.9,496.4,373.5,496.4z"/>
<path class="st8" d="M248.1,496.4h-15.1c-1.4,0-2.6-1.2-2.6-2.6c0-1.4,1.2-2.6,2.6-2.6h15.1c1.4,0,2.6,1.2,2.6,2.6
	C250.7,495.3,249.6,496.4,248.1,496.4z"/>
<g>
	<path class="st8" d="M452.5,228h31.1c1.6,0,2.9,1.3,2.9,2.9v0c0,1.6-1.3,2.9-2.9,2.9h-31.1c-1.6,0-2.9-1.3-2.9-2.9v0
		C449.6,229.3,450.9,228,452.5,228z"/>
</g>
<path class="st8" d="M503.4,228h-8.7c-1.6,0-2.9,1.3-2.9,2.9v0c0,1.6,1.3,2.9,2.9,2.9h8.7c1.6,0,2.9-1.3,2.9-2.9v0
	C506.3,229.3,505,228,503.4,228z"/>
<path class="st8" d="M4.1,351.9h31.1c1.6,0,2.9,1.3,2.9,2.9l0,0c0,1.6-1.3,2.9-2.9,2.9H4.1c-1.6,0-2.9-1.3-2.9-2.9l0,0
	C1.2,353.2,2.5,351.9,4.1,351.9z"/>
<path class="st8" d="M55,351.9h-8.7c-1.6,0-2.9,1.3-2.9,2.9l0,0c0,1.6,1.3,2.9,2.9,2.9H55c1.6,0,2.9-1.3,2.9-2.9l0,0
	C57.9,353.2,56.6,351.9,55,351.9z"/>
<path class="st8" d="M72.4,67.7h31.1c1.6,0,2.9,1.3,2.9,2.9l0,0c0,1.6-1.3,2.9-2.9,2.9H72.4c-1.6,0-2.9-1.3-2.9-2.9l0,0
	C69.5,69,70.8,67.7,72.4,67.7z"/>
<path class="st8" d="M123.2,67.7h-8.7c-1.6,0-2.9,1.3-2.9,2.9l0,0c0,1.6,1.3,2.9,2.9,2.9h8.7c1.6,0,2.9-1.3,2.9-2.9l0,0
	C126.1,69,124.8,67.7,123.2,67.7z"/>
<path class="st8" d="M58.2,128.5H28.7c-1.1,0-2.1-0.9-2.1-2.1l0,0c0-1.1,0.9-2.1,2.1-2.1h29.6c1.1,0,2.1,0.9,2.1,2.1l0,0
	C60.3,127.6,59.4,128.5,58.2,128.5z"/>
<path class="st8" d="M45.5,111.6v29.6c0,1.1-0.9,2.1-2.1,2.1h0c-1.1,0-2.1-0.9-2.1-2.1v-29.6c0-1.1,0.9-2.1,2.1-2.1h0
	C44.6,109.6,45.5,110.5,45.5,111.6z"/>
<path class="st8" d="M462.5,109.6H433c-1.1,0-2.1-0.9-2.1-2.1l0,0c0-1.1,0.9-2.1,2.1-2.1h29.6c1.1,0,2.1,0.9,2.1,2.1l0,0
	C464.6,108.6,463.7,109.6,462.5,109.6z"/>
<path class="st8" d="M449.8,92.7v29.6c0,1.1-0.9,2.1-2.1,2.1l0,0c-1.1,0-2.1-0.9-2.1-2.1V92.7c0-1.1,0.9-2.1,2.1-2.1l0,0
	C448.9,90.6,449.8,91.6,449.8,92.7z"/>
<path class="st8" d="M495.2,298.6h-20.7c-0.8,0-1.4-0.6-1.4-1.4l0,0c0-0.8,0.6-1.4,1.4-1.4h20.7c0.8,0,1.4,0.6,1.4,1.4l0,0
	C496.7,297.9,496,298.6,495.2,298.6z"/>
<path class="st8" d="M486.3,286.8v20.7c0,0.8-0.6,1.4-1.4,1.4l0,0c-0.8,0-1.4-0.6-1.4-1.4v-20.7c0-0.8,0.6-1.4,1.4-1.4l0,0
	C485.7,285.3,486.3,286,486.3,286.8z"/>
<path class="st10" d="M356.1,35.1h-20.7c-0.8,0-1.4-0.6-1.4-1.4v0c0-0.8,0.6-1.4,1.4-1.4h20.7c0.8,0,1.4,0.6,1.4,1.4v0
	C357.6,34.5,356.9,35.1,356.1,35.1z"/>
<path class="st10" d="M347.2,23.3v20.8c0,0.8-0.6,1.4-1.4,1.4l0,0c-0.8,0-1.4-0.6-1.4-1.4V23.3c0-0.8,0.6-1.4,1.4-1.4l0,0
	C346.5,21.9,347.2,22.5,347.2,23.3z"/>
<path class="st8" d="M30.5,216.4c0,8-6.5,14.4-14.4,14.4c-7.9,0-14.4-6.4-14.4-14.4c0-7.9,6.5-14.4,14.4-14.4
	C24.1,202,30.5,208.4,30.5,216.4z"/>
<path class="st10" d="M63.2,177c0,5-4,9-9,9c-4.9,0-9-4-9-9c0-5,4-9,9-9C59.2,168,63.2,172,63.2,177z"/>
<circle class="st10" cx="457.9" cy="272.9" r="4.5"/>
<path class="st8" d="M496.8,260.4c0,2.5-2,4.5-4.5,4.5c-2.5,0-4.6-2-4.6-4.5c0-2.5,2-4.6,4.6-4.6
	C494.7,255.9,496.8,257.9,496.8,260.4z"/>
<path class="st8" d="M374.5,86.6c0-6.7,5.4-12.1,12.1-12.1c6.7,0,12.1,5.4,12.1,12.1c0,6.7-5.4,12.1-12.1,12.1
	C379.9,98.7,374.5,93.2,374.5,86.6z"/>
<path class="st11" d="M190.3,33.7c0-6.7,5.4-12.1,12.1-12.1c6.7,0,12.1,5.4,12.1,12.1s-5.4,12.1-12.1,12.1
	C195.7,45.8,190.3,40.4,190.3,33.7z"/>
<path class="st8" d="M445,156.9c0-3.5,2.9-6.4,6.4-6.4c3.5,0,6.4,2.9,6.4,6.4c0,3.5-2.9,6.4-6.4,6.4
	C447.9,163.3,445,160.4,445,156.9z"/>
<path class="st8" d="M219.3,15.2c0-3.5,2.9-6.4,6.4-6.4c3.5,0,6.4,2.9,6.4,6.4c0,3.5-2.9,6.4-6.4,6.4
	C222.1,21.6,219.3,18.7,219.3,15.2z"/>
<path class="st12" d="M238.9,45.8c0-3.5,2.9-6.4,6.4-6.4c3.5,0,6.4,2.9,6.4,6.4c0,3.5-2.9,6.4-6.4,6.4
	C241.7,52.2,238.9,49.3,238.9,45.8z"/>
<polygon class="st11" points="26.6,266 29.5,275.4 38.9,278.4 29.5,281.3 26.6,290.7 23.7,281.3 14.3,278.4 23.3,275.4 "/>
<polygon class="st12" points="454.6,342.5 457.5,351.9 466.9,354.8 457.5,357.8 454.6,367.2 451.6,357.8 442.3,354.8 451.3,351.9 
	"/>
<polygon class="st8" points="164.4,0 168,11.6 179.6,15.2 168,18.8 164.4,30.4 160.7,18.8 149.2,15.2 160.3,11.6 "/>
<path class="st8" d="M256,437.2c-99.9,0-181.2-81.3-181.2-181.2c0-99.9,81.3-181.2,181.2-181.2c99.9,0,181.2,81.3,181.2,181.2
	C437.2,355.9,355.9,437.2,256,437.2z M256,89.1c-92,0-166.9,74.9-166.9,166.9S163.9,422.9,256,422.9c92,0,166.9-74.9,166.9-166.9
	S348,89.1,256,89.1z"/>
</svg>
