<?xml version="1.0" encoding="utf-8"?>
<!-- Generator: Adobe Illustrator 21.1.0, SVG Export Plug-In . SVG Version: 6.00 Build 0)  -->
<svg version="1.1" id="Layer_1" xmlns="http://www.w3.org/2000/svg" xmlns:xlink="http://www.w3.org/1999/xlink" x="0px" y="0px"
	 viewBox="0 0 512 512" style="enable-background:new 0 0 512 512;" xml:space="preserve">
<style type="text/css">
	.st0{fill:#B3CD72;}
	.st1{fill:#91C167;}
	.st2{fill:#FFD8AA;}
	.st3{fill:#FCC57F;}
	.st4{fill:#475A92;}
	.st5{fill:#262261;}
	.st6{fill:#1B75BB;}
	.st7{fill:#2B388F;}
	.st8{fill:#FFE6C8;}
	.st9{fill:#F4DBAD;}
	.st10{fill:#353537;}
	.st11{fill:#F1F1F2;}
	.st12{fill:#FFDD15;}
	.st13{fill:#8BC53F;}
	.st14{fill:#F6921E;}
</style>
<g>
	<path class="st0" d="M256,87.5c-92.8,0-168,75.2-168,168c0,92.8,75.2,168,168,168c0.5,0,0.9-0.1,1.3-0.1V87.6
		C256.9,87.6,256.5,87.5,256,87.5z"/>
	<path class="st1" d="M424,255.5c0-92.3-74.5-167.2-166.7-167.9v335.9C349.5,422.7,424,347.8,424,255.5z"/>
	<g>
		<path class="st2" d="M233.6,284.8v45c0,0-5.6,7.1-7.2,11.8c-2,5.8,1,16.8,1,16.8l7.2,2.4c3.1,8.8,13.8,12.9,23.8,12.7l0.2-88.5
			H233.6z"/>
		<path class="st3" d="M291.7,350.7l-5.6-16.5c0,0-2-4.4-3.4-6.9v-69.6h-24.3v115.6c11.8-0.3,23.6-3.3,24.3-14.4h9V350.7z"/>
		<path class="st4" d="M230.6,340.6c0-5.1,0.6-6.6,3-10.8l-15.9,17.9c-6.4,3.1-13.5,7.1-21.5,12.3c-9.4,6.1-21.6,25.1-27.6,39
			c26.5,16.4,60.3,25.9,89.7,25.5v-55.7C243,368.6,230.6,356,230.6,340.6z"/>
		<polygon class="st3" points="281.7,306.7 281.7,297.8 233.4,297.8 233.4,330.7 		"/>
		<path class="st5" d="M319,360.1c-7.3-4.6-13.9-8.2-19.9-11.2l-16.4-21.5c1.6,3.5,4.1,9.1,4.1,13.2c0,15.6-12.6,28.2-28.1,28.2
			c-0.1,0-0.2,0-0.3,0v55.7c0.1,0,0.2,0,0.3,0c31.7,0,61.8-10.4,85.7-26.5C338.4,383.6,328.8,366.2,319,360.1z"/>
		<path class="st4" d="M233.6,329.8l24.8,0.9v42.7l-16.2,4.8l-12.3-4.8c0,0-1.5-11.7-1.3-12.4c0.2-0.8,0-23.3,0-23.3L233.6,329.8z"
			/>
		<path class="st5" d="M284,329.8l-25.6,0.9v42.7l16.2,4.8l12.3-4.8c0,0,1.5-11.7,1.3-12.4c-0.2-0.8,0-23.3,0-23.3L284,329.8z"/>
		<path class="st6" d="M221.4,317.3c-1.5,0-2.7,0.7-2.7,1.6v23.5c0,0.9,1.2,1.6,2.7,1.6h37.2v-26.7H221.4z"/>
		<path class="st7" d="M298.1,342.4v-23.5c0-0.9-1.2-1.6-2.7-1.6h-36.8V344h36.8C296.8,344,298.1,343.3,298.1,342.4z"/>
		<path class="st8" d="M258.4,325.6v-135C156.5,190.7,197.7,325.2,258.4,325.6z"/>
		<path class="st9" d="M258.5,190.5c-0.1,0-0.1,0-0.2,0v135c0.1,0,0.1,0,0.2,0C319.3,325.6,360.8,190.5,258.5,190.5z"/>
		<path class="st10" d="M197.9,268.2c0,0-14.9-27.4-6.9-60.4c7.9-33,17.8-43.7,32.2-46.7c14.3-3,22.6-4.6,22.6-4.6
			s16.9-5.1,24.7-3.1c0,0,41,8.9,41,17.7c0,8.8,22.8,26.1,19.4,51.9c-3.4,25.8-13.5,45.2-13.5,45.2s0.3-21.8-0.8-36.6
			c-1.1-14.8-13-31.8-21.5-31.8c-8.6,0-40.8,6.5-40.8,6.5s0.1-9.3-6-10.5c-14.4-2.9-27.5,5-27.5,5s-8,5.4-15,22.2
			C198,241.5,197.9,268.2,197.9,268.2z"/>
		<path class="st9" d="M324.2,237c3.7,0.8,5.2,8.5,3.3,17.1c-1.9,8.6-6.5,14.9-10.2,14.1c-3.7-0.8-5.2-8.5-3.3-17.1
			C316,242.5,320.5,236.2,324.2,237"/>
		<path class="st8" d="M191,237c-3.7,0.8-5.2,8.5-3.3,17.1c1.9,8.6,6.5,14.9,10.2,14.1c3.7-0.8,5.2-8.5,3.3-17.1
			C199.3,242.5,194.7,236.2,191,237"/>
		<polygon class="st10" points="218.8,186.4 248.8,205.1 229.6,183.1 		"/>
	</g>
</g>
<path class="st11" d="M261,466.2h-73.3l-0.7-0.5c-14.2-9.7-27.1-0.2-27.2-0.1l-0.7,0.5H91.9c-1.4,0-2.6-1.2-2.6-2.6s1.2-2.6,2.6-2.6
	h65.6c3.3-2.1,17-9.6,31.8,0H261c1.4,0,2.6,1.2,2.6,2.6S262.4,466.2,261,466.2z"/>
<path class="st11" d="M314.9,466.2h-44.6c-1.4,0-2.6-1.2-2.6-2.6s1.2-2.6,2.6-2.6h44.6c1.4,0,2.6,1.2,2.6,2.6
	S316.4,466.2,314.9,466.2z"/>
<path class="st11" d="M420.5,466.2h-72.2c-1.4,0-2.6-1.2-2.6-2.6s1.2-2.6,2.6-2.6h72.2c1.4,0,2.6,1.2,2.6,2.6S422,466.2,420.5,466.2
	z"/>
<path class="st11" d="M337.4,466.2h-15.1c-1.4,0-2.6-1.2-2.6-2.6s1.2-2.6,2.6-2.6h15.1c1.4,0,2.6,1.2,2.6,2.6
	S338.9,466.2,337.4,466.2z"/>
<path class="st11" d="M221.3,496.4h-76.3c-1.4,0-2.6-1.2-2.6-2.6c0-1.4,1.2-2.6,2.6-2.6h76.3c1.4,0,2.6,1.2,2.6,2.6
	C223.9,495.3,222.7,496.4,221.3,496.4z"/>
<path class="st11" d="M373.5,496.4H263.4c-1.4,0-2.6-1.2-2.6-2.6c0-1.4,1.2-2.6,2.6-2.6h110.1c1.4,0,2.6,1.2,2.6,2.6
	C376.1,495.3,374.9,496.4,373.5,496.4z"/>
<path class="st11" d="M248.1,496.4h-15.1c-1.4,0-2.6-1.2-2.6-2.6c0-1.4,1.2-2.6,2.6-2.6h15.1c1.4,0,2.6,1.2,2.6,2.6
	C250.7,495.3,249.6,496.4,248.1,496.4z"/>
<g>
	<path class="st11" d="M452.5,228h31.1c1.6,0,2.9,1.3,2.9,2.9v0c0,1.6-1.3,2.9-2.9,2.9h-31.1c-1.6,0-2.9-1.3-2.9-2.9v0
		C449.6,229.3,450.9,228,452.5,228z"/>
</g>
<path class="st11" d="M503.4,228h-8.7c-1.6,0-2.9,1.3-2.9,2.9v0c0,1.6,1.3,2.9,2.9,2.9h8.7c1.6,0,2.9-1.3,2.9-2.9v0
	C506.3,229.3,505,228,503.4,228z"/>
<path class="st11" d="M4.1,351.9h31.1c1.6,0,2.9,1.3,2.9,2.9l0,0c0,1.6-1.3,2.9-2.9,2.9H4.1c-1.6,0-2.9-1.3-2.9-2.9l0,0
	C1.2,353.2,2.5,351.9,4.1,351.9z"/>
<path class="st11" d="M55,351.9h-8.7c-1.6,0-2.9,1.3-2.9,2.9l0,0c0,1.6,1.3,2.9,2.9,2.9H55c1.6,0,2.9-1.3,2.9-2.9l0,0
	C57.9,353.2,56.6,351.9,55,351.9z"/>
<path class="st11" d="M72.4,67.7h31.1c1.6,0,2.9,1.3,2.9,2.9l0,0c0,1.6-1.3,2.9-2.9,2.9H72.4c-1.6,0-2.9-1.3-2.9-2.9l0,0
	C69.5,69,70.8,67.7,72.4,67.7z"/>
<path class="st11" d="M123.2,67.7h-8.7c-1.6,0-2.9,1.3-2.9,2.9l0,0c0,1.6,1.3,2.9,2.9,2.9h8.7c1.6,0,2.9-1.3,2.9-2.9l0,0
	C126.1,69,124.8,67.7,123.2,67.7z"/>
<path class="st11" d="M58.2,128.5H28.7c-1.1,0-2.1-0.9-2.1-2.1l0,0c0-1.1,0.9-2.1,2.1-2.1h29.6c1.1,0,2.1,0.9,2.1,2.1l0,0
	C60.3,127.6,59.4,128.5,58.2,128.5z"/>
<path class="st11" d="M45.5,111.6v29.6c0,1.1-0.9,2.1-2.1,2.1h0c-1.1,0-2.1-0.9-2.1-2.1v-29.6c0-1.1,0.9-2.1,2.1-2.1h0
	C44.6,109.6,45.5,110.5,45.5,111.6z"/>
<path class="st11" d="M462.5,109.6H433c-1.1,0-2.1-0.9-2.1-2.1l0,0c0-1.1,0.9-2.1,2.1-2.1h29.6c1.1,0,2.1,0.9,2.1,2.1l0,0
	C464.6,108.6,463.7,109.6,462.5,109.6z"/>
<path class="st11" d="M449.8,92.7v29.6c0,1.1-0.9,2.1-2.1,2.1l0,0c-1.1,0-2.1-0.9-2.1-2.1V92.7c0-1.1,0.9-2.1,2.1-2.1l0,0
	C448.9,90.6,449.8,91.6,449.8,92.7z"/>
<path class="st11" d="M495.2,298.6h-20.7c-0.8,0-1.4-0.6-1.4-1.4l0,0c0-0.8,0.6-1.4,1.4-1.4h20.7c0.8,0,1.4,0.6,1.4,1.4l0,0
	C496.7,297.9,496,298.6,495.2,298.6z"/>
<path class="st11" d="M486.3,286.8v20.7c0,0.8-0.6,1.4-1.4,1.4l0,0c-0.8,0-1.4-0.6-1.4-1.4v-20.7c0-0.8,0.6-1.4,1.4-1.4l0,0
	C485.7,285.3,486.3,286,486.3,286.8z"/>
<path class="st12" d="M356.1,35.1h-20.7c-0.8,0-1.4-0.6-1.4-1.4v0c0-0.8,0.6-1.4,1.4-1.4h20.7c0.8,0,1.4,0.6,1.4,1.4v0
	C357.6,34.5,356.9,35.1,356.1,35.1z"/>
<path class="st12" d="M347.2,23.3v20.8c0,0.8-0.6,1.4-1.4,1.4l0,0c-0.8,0-1.4-0.6-1.4-1.4V23.3c0-0.8,0.6-1.4,1.4-1.4l0,0
	C346.5,21.9,347.2,22.5,347.2,23.3z"/>
<path class="st11" d="M30.5,216.4c0,8-6.5,14.4-14.4,14.4c-7.9,0-14.4-6.4-14.4-14.4c0-7.9,6.5-14.4,14.4-14.4
	C24.1,202,30.5,208.4,30.5,216.4z"/>
<path class="st12" d="M63.2,177c0,5-4,9-9,9c-4.9,0-9-4-9-9c0-5,4-9,9-9C59.2,168,63.2,172,63.2,177z"/>
<circle class="st12" cx="457.9" cy="272.9" r="4.5"/>
<path class="st11" d="M496.8,260.4c0,2.5-2,4.5-4.5,4.5c-2.5,0-4.6-2-4.6-4.5c0-2.5,2-4.6,4.6-4.6
	C494.7,255.9,496.8,257.9,496.8,260.4z"/>
<path class="st11" d="M374.5,86.6c0-6.7,5.4-12.1,12.1-12.1c6.7,0,12.1,5.4,12.1,12.1c0,6.7-5.4,12.1-12.1,12.1
	C379.9,98.7,374.5,93.2,374.5,86.6z"/>
<path class="st13" d="M190.3,33.7c0-6.7,5.4-12.1,12.1-12.1c6.7,0,12.1,5.4,12.1,12.1s-5.4,12.1-12.1,12.1
	C195.7,45.8,190.3,40.4,190.3,33.7z"/>
<path class="st11" d="M445,156.9c0-3.5,2.9-6.4,6.4-6.4c3.5,0,6.4,2.9,6.4,6.4c0,3.5-2.9,6.4-6.4,6.4
	C447.9,163.3,445,160.4,445,156.9z"/>
<path class="st11" d="M219.3,15.2c0-3.5,2.9-6.4,6.4-6.4c3.5,0,6.4,2.9,6.4,6.4c0,3.5-2.9,6.4-6.4,6.4
	C222.1,21.6,219.3,18.7,219.3,15.2z"/>
<path class="st14" d="M238.9,45.8c0-3.5,2.9-6.4,6.4-6.4c3.5,0,6.4,2.9,6.4,6.4c0,3.5-2.9,6.4-6.4,6.4
	C241.7,52.2,238.9,49.3,238.9,45.8z"/>
<polygon class="st13" points="26.6,266 29.5,275.4 38.9,278.4 29.5,281.3 26.6,290.7 23.7,281.3 14.3,278.4 23.3,275.4 "/>
<polygon class="st14" points="454.6,342.5 457.5,351.9 466.9,354.8 457.5,357.8 454.6,367.2 451.6,357.8 442.3,354.8 451.3,351.9 
	"/>
<polygon class="st11" points="164.4,0 168,11.6 179.6,15.2 168,18.8 164.4,30.4 160.7,18.8 149.2,15.2 160.3,11.6 "/>
<path class="st11" d="M256,437.2c-99.9,0-181.2-81.3-181.2-181.2c0-99.9,81.3-181.2,181.2-181.2c99.9,0,181.2,81.3,181.2,181.2
	C437.2,355.9,355.9,437.2,256,437.2z M256,89.1c-92,0-166.9,74.9-166.9,166.9S163.9,422.9,256,422.9c92,0,166.9-74.9,166.9-166.9
	S348,89.1,256,89.1z"/>
</svg>
